<svg width="428" height="183" viewBox="0 0 428 183" fill="none" xmlns="http://www.w3.org/2000/svg">
<g filter="url(#filter0_d_6001_729)">
<path d="M72.6335 6.57194L70.4132 13.336L65.194 11.6228L56.3195 38.6581L47.5304 35.773L56.4049 8.73769L51.2066 7.03133L53.427 0.267283L72.6335 6.57194ZM93.8366 12.6554L84.003 46.843L75.113 44.2859L79.2432 29.9267L76.5825 29.1614L72.4523 43.5206L63.5623 40.9635L73.3958 6.77589L82.2859 9.33298L78.7691 21.5594L81.4298 22.3247L84.9466 10.0983L93.8366 12.6554ZM96.2885 13.317L111.247 17.0812L109.51 23.9851L103.522 22.4784L101.876 29.02L107.48 30.4302L105.828 36.9932L100.224 35.583L98.3154 43.1688L104.9 44.8257L103.162 51.7296L87.6073 47.8153L96.2885 13.317ZM120.669 19.2324L129.71 21.0839C132.565 21.6687 134.68 22.3335 136.052 23.0781C137.439 23.8257 138.445 24.9737 139.07 26.5221C139.698 28.0563 139.703 30.3301 139.086 33.3437C138.669 35.3815 138.055 36.7361 137.245 37.4075C136.449 38.0818 135.067 38.4417 133.099 38.4873C135.097 39.3899 136.356 40.4701 136.876 41.728C137.399 42.9714 137.428 44.7269 136.964 46.9943L136.302 50.2231C135.82 52.5766 135.191 54.2644 134.413 55.2864C133.65 56.3114 132.637 56.9114 131.375 57.0866C130.113 57.2618 127.66 56.9761 124.015 56.2297L113.532 54.0828L120.669 19.2324ZM128.51 27.051L126.923 34.8003C127.314 34.8653 127.616 34.9198 127.832 34.9639C128.721 35.1461 129.332 35.047 129.664 34.6664C129.999 34.2715 130.379 33.0408 130.802 30.9743C131.025 29.8837 131.08 29.1025 130.968 28.6308C130.858 28.1448 130.65 27.8106 130.343 27.6282C130.051 27.4488 129.44 27.2563 128.51 27.051ZM125.812 40.2248L123.815 49.976C125.101 50.1946 125.953 50.1597 126.371 49.8715C126.803 49.5862 127.163 48.7403 127.451 47.334L128.117 44.0836C128.423 42.5911 128.45 41.6547 128.199 41.2743C127.948 40.894 127.152 40.5441 125.812 40.2248ZM159.578 26.5882L158.882 62.5472L149.544 60.972L150.152 54.5902L146.881 54.0384L145.275 60.252L135.829 58.6585L146.383 24.3624L159.578 26.5882ZM150.941 48.3281C151.149 44.2779 151.514 39.2961 152.036 33.3826C149.981 39.9288 148.576 44.7352 147.821 47.8018L150.941 48.3281ZM165.152 27.4854L171.642 28.3508C175.969 28.9278 178.873 29.4849 180.353 30.0221C181.847 30.5613 182.982 31.5845 183.756 33.0916C184.547 34.5862 184.742 36.8363 184.341 39.842C183.975 42.5862 183.388 44.3848 182.58 45.2376C181.772 46.0904 180.353 46.4776 178.324 46.3991C180.079 47.0913 181.218 47.8565 181.742 48.6948C182.266 49.533 182.558 50.2813 182.618 50.9395C182.694 51.5852 182.543 53.331 182.163 56.1769L180.923 65.4769L172.407 64.3414L173.97 52.6238C174.221 50.7362 174.225 49.547 173.98 49.0563C173.749 48.5674 173.003 48.2388 171.739 48.0703L169.619 63.9697L160.45 62.747L165.152 27.4854ZM173.517 34.741L172.471 42.5818C173.502 42.7193 174.239 42.6772 174.683 42.4555C175.142 42.2212 175.476 41.3273 175.683 39.7737L175.941 37.8353C176.09 36.7172 175.985 35.9569 175.625 35.5542C175.279 35.1534 174.577 34.8824 173.517 34.741ZM195.594 31.2651L211.198 32.6657L210.562 39.7564L204.171 39.1828L203.568 45.9014L209.258 46.4121L208.653 53.1526L202.963 52.6418L201.627 67.5234L192.414 66.6964L195.594 31.2651ZM232.215 54.7169C232.012 58.2854 231.781 60.8105 231.521 62.2923C231.276 63.7603 230.673 65.0832 229.711 66.261C228.764 67.4397 227.518 68.3154 225.974 68.888C224.431 69.4606 222.657 69.69 220.653 69.5763C218.752 69.4683 217.059 69.0641 215.572 68.3635C214.102 67.6491 212.941 66.6442 212.09 65.3488C211.239 64.0534 210.768 62.6694 210.675 61.197C210.583 59.7245 210.64 57.1602 210.848 53.504L211.193 47.4273C211.395 43.8588 211.619 41.3406 211.864 39.8726C212.124 38.3909 212.728 37.0606 213.675 35.882C214.637 34.7041 215.89 33.8289 217.433 33.2563C218.977 32.6837 220.751 32.4542 222.754 32.568C224.656 32.6759 226.341 33.0871 227.812 33.8014C229.298 34.502 230.467 35.5 231.318 36.7955C232.168 38.0909 232.64 39.4748 232.732 40.9473C232.825 42.4197 232.767 44.984 232.56 48.6403L232.215 54.7169ZM223.642 42.522C223.736 40.8694 223.7 39.811 223.536 39.3468C223.387 38.8688 223.027 38.6137 222.457 38.5813C221.974 38.5539 221.591 38.7229 221.306 39.0882C221.036 39.4397 220.85 40.5295 220.746 42.3576L219.805 58.9422C219.687 61.0043 219.696 62.2813 219.829 62.773C219.977 63.2656 220.358 63.5293 220.973 63.5642C221.602 63.5999 222.02 63.3448 222.227 62.7991C222.434 62.2533 222.597 60.9347 222.715 58.8433L223.642 42.522ZM235.523 33.9967L242.07 34.1212C246.434 34.2043 249.382 34.4288 250.913 34.7949C252.459 35.1613 253.703 36.0493 254.643 37.4591C255.598 38.8545 256.047 41.068 255.989 44.0997C255.936 46.8677 255.557 48.7212 254.85 49.6601C254.144 50.5989 252.778 51.1444 250.753 51.2963C252.575 51.7852 253.794 52.4164 254.409 53.1899C255.025 53.9635 255.399 54.6739 255.534 55.3211C255.683 55.9539 255.73 57.7056 255.675 60.5762L255.497 69.9568L246.907 69.7934L247.132 57.9743C247.168 56.0703 247.037 54.8884 246.738 54.4285C246.454 53.9689 245.675 53.727 244.4 53.7028L244.095 69.7399L234.846 69.564L235.523 33.9967ZM244.656 40.258L244.506 48.1667C245.545 48.1865 246.273 48.0611 246.688 47.7907C247.119 47.5058 247.349 46.5798 247.379 45.0127L247.416 43.0575C247.437 41.9298 247.246 41.1863 246.843 40.827C246.454 40.468 245.725 40.2783 244.656 40.258Z" fill="white"/>
</g>
<g filter="url(#filter1_d_6001_729)">
<path d="M82.6634 59.2874L91.3875 62.2967C94.1432 63.2472 96.1532 64.1808 97.4176 65.0973C98.6958 66.0186 99.5443 67.2874 99.9629 68.9039C100.386 70.5065 100.096 72.7618 99.0933 75.6699C98.4151 77.6362 97.6306 78.8997 96.74 79.4602C95.8632 80.0255 94.4461 80.203 92.4887 79.9927C94.3529 81.1471 95.4611 82.3816 95.8134 83.6963C96.1704 84.9971 95.9716 86.7414 95.2169 88.9294L94.1421 92.0451C93.3587 94.3162 92.5153 95.9079 91.6117 96.8204C90.722 97.7376 89.6401 98.2012 88.366 98.2111C87.092 98.221 84.6963 97.6193 81.179 96.406L71.0632 92.9166L82.6634 59.2874ZM89.4235 68.0576L86.8441 75.5354C87.2228 75.6505 87.516 75.7439 87.7237 75.8155C88.5823 76.1117 89.2009 76.0927 89.5796 75.7584C89.9631 75.4103 90.4988 74.2393 91.1866 72.2452C91.5496 71.1928 91.7059 70.4254 91.6553 69.9431C91.6095 69.4469 91.4465 69.0885 91.1662 68.8679C90.8997 68.652 90.3189 68.3819 89.4235 68.0576ZM85.0385 80.7698L81.7928 90.1794C83.0396 90.5629 83.8888 90.639 84.3406 90.4074C84.8062 90.1806 85.2731 89.3887 85.7412 88.0316L86.8231 84.8951C87.3199 83.4549 87.4685 82.53 87.2689 82.1203C87.0694 81.7105 86.3259 81.2604 85.0385 80.7698ZM104.553 66.7876L110.839 68.6193C115.03 69.8405 117.817 70.828 119.199 71.5817C120.596 72.3395 121.564 73.5217 122.102 75.1282C122.659 76.7247 122.514 78.9786 121.666 81.8898C120.891 84.5478 120.04 86.2375 119.113 86.9591C118.185 87.6806 116.725 87.85 114.731 87.4673C116.362 88.4156 117.373 89.3434 117.765 90.2509C118.156 91.1584 118.332 91.9421 118.293 92.6019C118.271 93.2517 117.859 94.9548 117.055 97.7113L114.431 106.719L106.182 104.316L109.489 92.9663C110.022 91.138 110.204 89.9629 110.036 89.4408C109.882 88.9229 109.193 88.4857 107.969 88.1292L103.482 103.529L94.6011 100.941L104.553 66.7876ZM111.731 75.2188L109.518 82.8131C110.517 83.1041 111.252 83.1733 111.724 83.0209C112.214 82.8584 112.678 82.0248 113.116 80.52L113.663 78.6425C113.979 77.5596 113.989 76.792 113.693 76.3398C113.412 75.8916 112.758 75.518 111.731 75.2188ZM126.286 73.0711L141.277 76.7032L139.601 83.6222L133.6 82.1683L132.012 88.7242L137.628 90.085L136.034 96.6623L130.418 95.3015L128.576 102.904L135.175 104.503L133.499 111.422L117.91 107.645L126.286 73.0711ZM158.716 80.1961L156.981 116.12L147.692 114.275L148.485 107.914L145.231 107.268L143.447 113.432L134.05 111.566L145.591 77.5898L158.716 80.1961ZM149.455 101.677C149.78 97.6348 150.288 92.6656 150.981 86.7696C148.738 93.2538 147.195 98.0175 146.351 101.061L149.455 101.677ZM163.725 81.142L170.572 82.1495C174.993 82.7999 177.948 83.442 179.439 84.076C180.945 84.7121 182.035 85.5536 182.71 86.6005C183.385 87.6474 183.74 88.7582 183.774 89.933C183.811 91.0933 183.584 93.34 183.093 96.6733L181.28 108.999C180.815 112.158 180.352 114.252 179.889 115.28C179.444 116.295 178.807 117.052 177.978 117.552C177.152 118.038 176.177 118.324 175.054 118.41C173.933 118.482 172.278 118.357 170.089 118.035L158.546 116.337L163.725 81.142ZM171.991 88.5101L168.584 111.662C169.903 111.856 170.753 111.714 171.134 111.237C171.517 110.746 171.882 109.326 172.227 106.979L174.239 93.305C174.474 91.7108 174.573 90.6817 174.538 90.2175C174.502 89.7533 174.319 89.3931 173.986 89.1369C173.656 88.8662 172.991 88.6573 171.991 88.5101ZM206.516 101.868L197.304 101.018L197.874 94.8477C198.04 93.0536 198.041 91.9283 197.877 91.4718C197.729 91.0022 197.32 90.7363 196.649 90.6744C195.89 90.6043 195.384 90.8297 195.13 91.3505C194.876 91.8714 194.666 93.0288 194.5 94.823L192.981 111.276C192.822 112.998 192.82 114.13 192.976 114.674C193.132 115.218 193.567 115.523 194.281 115.589C194.967 115.652 195.436 115.431 195.689 114.925C195.956 114.42 196.179 113.197 196.359 111.257L196.769 106.816L205.98 107.667L205.853 109.045C205.515 112.706 205.012 115.278 204.346 116.761C203.694 118.246 202.425 119.482 200.539 120.47C198.667 121.459 196.434 121.834 193.837 121.594C191.139 121.345 188.959 120.651 187.299 119.512C185.639 118.373 184.604 116.917 184.194 115.143C183.786 113.355 183.742 110.725 184.062 107.253L185.018 96.9041C185.254 94.3515 185.518 92.4487 185.81 91.1959C186.104 89.9285 186.735 88.7437 187.705 87.6417C188.689 86.5411 189.978 85.726 191.572 85.1964C193.181 84.6537 194.985 84.4746 196.984 84.6592C199.697 84.9097 201.887 85.6416 203.555 86.8548C205.223 88.0681 206.261 89.4879 206.67 91.1145C207.08 92.7264 207.133 95.1879 206.827 98.499L206.516 101.868ZM209.407 86.5087L215.95 86.7719C220.311 86.9473 223.254 87.2342 224.777 87.6327C226.315 88.0317 227.539 88.9459 228.449 90.3752C229.374 91.7905 229.776 94.0131 229.654 97.0428C229.543 99.8092 229.124 101.654 228.398 102.578C227.672 103.502 226.295 104.018 224.268 104.127C226.079 104.654 227.284 105.311 227.883 106.098C228.482 106.884 228.841 107.602 228.962 108.252C229.097 108.888 229.107 110.64 228.992 113.509L228.615 122.884L220.031 122.539L220.506 110.727C220.582 108.824 220.476 107.64 220.187 107.173C219.912 106.708 219.138 106.45 217.865 106.398L217.22 122.425L207.977 122.054L209.407 86.5087ZM218.405 92.962L218.088 100.866C219.127 100.908 219.857 100.798 220.278 100.536C220.714 100.26 220.964 99.3395 221.027 97.7734L221.105 95.8194C221.151 94.6924 220.975 93.945 220.58 93.5772C220.199 93.21 219.474 93.005 218.405 92.962ZM252.72 87.0502L253.067 110.822C253.106 113.517 253.046 115.415 252.886 116.516C252.726 117.603 252.223 118.731 251.376 119.9C250.528 121.056 249.398 121.944 247.986 122.565C246.589 123.171 244.931 123.489 243.012 123.517C240.888 123.548 239.008 123.224 237.372 122.544C235.736 121.865 234.507 120.967 233.685 119.851C232.863 118.735 232.37 117.556 232.205 116.313C232.04 115.055 231.928 112.42 231.87 108.407L231.562 87.3593L240.812 87.2242L241.201 113.896C241.224 115.449 241.319 116.444 241.487 116.881C241.669 117.303 242.016 117.51 242.529 117.503C243.115 117.494 243.485 117.254 243.639 116.783C243.808 116.297 243.879 115.168 243.853 113.396L243.47 87.1853L252.72 87.0502ZM282.476 84.7473L285.266 120.211L277.205 120.846L275.321 96.9035L273.985 121.099L268.268 121.549L263.032 98.4214L264.873 121.816L256.811 122.45L254.021 86.9859L265.96 86.0467C266.478 88.1512 267.048 90.6337 267.67 93.4941L269.65 102.419L270.45 85.6934L282.476 84.7473ZM283.84 84.5953L292.973 83.2704C295.857 82.8518 298.072 82.76 299.616 82.9949C301.174 83.2277 302.51 83.9664 303.623 85.2111C304.734 86.4413 305.51 88.5785 305.952 91.6228C306.25 93.6813 306.132 95.1638 305.598 96.0703C305.078 96.9746 303.9 97.782 302.064 98.4924C304.25 98.6638 305.801 99.2529 306.716 100.26C307.63 101.252 308.253 102.894 308.585 105.184L309.059 108.446C309.403 110.823 309.384 112.625 308.999 113.85C308.629 115.073 307.88 115.981 306.752 116.574C305.624 117.166 303.219 117.73 299.537 118.264L288.947 119.801L283.84 84.5953ZM293.868 89.2906L295.004 97.1188C295.393 97.0475 295.697 96.9961 295.914 96.9645C296.813 96.8341 297.354 96.5336 297.537 96.063C297.719 95.5778 297.658 94.2915 297.355 92.204C297.195 91.1022 296.982 90.3486 296.716 89.9432C296.448 89.5232 296.139 89.2794 295.788 89.2118C295.453 89.1421 294.813 89.1684 293.868 89.2906ZM295.799 102.599L297.228 112.449C298.512 112.218 299.302 111.897 299.597 111.484C299.907 111.069 299.959 110.151 299.752 108.73L299.276 105.447C299.057 103.939 298.765 103.049 298.4 102.776C298.035 102.504 297.168 102.444 295.799 102.599ZM327.832 87.927L319.411 89.6311L318.888 87.0467C318.644 85.8407 318.381 85.0944 318.099 84.8077C317.817 84.5211 317.424 84.4286 316.922 84.5303C316.376 84.6407 316.005 84.9475 315.808 85.4507C315.625 85.951 315.625 86.6534 315.808 87.5579C316.043 88.7209 316.379 89.5647 316.814 90.0894C317.234 90.6171 318.232 91.1549 319.808 91.7029C324.328 93.2842 327.267 94.7369 328.626 96.061C329.985 97.3852 331.01 99.7558 331.701 103.173C332.204 105.657 332.28 107.547 331.93 108.843C331.594 110.137 330.674 111.354 329.172 112.495C327.666 113.622 325.808 114.409 323.597 114.856C321.17 115.347 319.003 115.308 317.094 114.737C315.199 114.164 313.843 113.221 313.024 111.907C312.205 110.593 311.531 108.63 311.002 106.017L310.54 103.734L318.961 102.03L319.819 106.272C320.084 107.579 320.369 108.395 320.674 108.722C320.994 109.046 321.455 109.147 322.058 109.025C322.661 108.903 323.058 108.576 323.249 108.044C323.455 107.509 323.463 106.775 323.274 105.842C322.859 103.789 322.307 102.503 321.62 101.985C320.917 101.469 319.29 100.7 316.736 99.6776C314.18 98.6406 312.467 97.8587 311.599 97.3321C310.73 96.8055 309.931 95.9957 309.202 94.9029C308.487 93.8071 307.942 92.3331 307.567 90.481C307.027 87.8105 306.969 85.7897 307.394 84.4184C307.833 83.0442 308.744 81.8585 310.126 80.8614C311.506 79.8499 313.272 79.1262 315.426 78.6904C317.781 78.2139 319.86 78.1891 321.666 78.6159C323.485 79.0398 324.778 79.7795 325.545 80.835C326.323 81.8732 326.992 83.7777 327.553 86.5487L327.832 87.927Z" fill="white"/>
</g>
<g filter="url(#filter2_d_6001_729)">
<path d="M185.208 136.741L174.334 170.86L162.992 168.637C163.008 163.072 163.29 156.798 163.838 149.815C162.906 152.663 160.871 158.593 157.731 167.606L146.454 165.395L149.242 129.691L158.061 131.42L156.601 143.784L155.246 155.722C156.769 149.706 159.166 141.891 162.438 132.278L171.883 134.129C171.812 135.175 171.39 139.078 170.618 145.838L169.011 159.293C171.168 150.953 173.627 142.86 176.389 135.012L185.208 136.741ZM200.285 138.45L201.305 174.402L191.902 173.273L192.206 166.87L188.911 166.475L187.604 172.758L178.092 171.616L186.999 136.856L200.285 138.45ZM192.695 160.577C192.71 156.522 192.837 151.528 193.077 145.597C191.336 152.233 190.162 157.101 189.554 160.2L192.695 160.577ZM223.967 150.925L215.391 150.398L215.553 147.767C215.629 146.538 215.567 145.749 215.369 145.4C215.17 145.05 214.815 144.859 214.303 144.828C213.747 144.794 213.31 144.994 212.989 145.429C212.684 145.866 212.502 146.544 212.446 147.465C212.373 148.65 212.479 149.551 212.764 150.171C213.034 150.789 213.859 151.566 215.24 152.502C219.198 155.197 221.663 157.359 222.634 158.989C223.605 160.619 223.984 163.174 223.77 166.654C223.615 169.183 223.2 171.029 222.527 172.191C221.869 173.354 220.666 174.292 218.92 175.007C217.174 175.707 215.176 175.987 212.924 175.849C210.453 175.697 208.369 175.099 206.672 174.056C204.99 173.013 203.923 171.751 203.471 170.271C203.019 168.79 202.875 166.719 203.038 164.058L203.181 161.733L211.756 162.261L211.491 166.581C211.409 167.912 211.473 168.774 211.684 169.169C211.909 169.564 212.329 169.781 212.943 169.818C213.557 169.856 214.025 169.643 214.347 169.178C214.684 168.715 214.881 168.008 214.94 167.057C215.068 164.966 214.867 163.582 214.336 162.903C213.791 162.224 212.417 161.061 210.214 159.414C208.012 157.752 206.56 156.555 205.856 155.822C205.153 155.089 204.59 154.1 204.167 152.856C203.759 151.613 203.613 150.048 203.729 148.162C203.897 145.443 204.362 143.476 205.127 142.26C205.906 141.046 207.092 140.136 208.685 139.529C210.279 138.908 212.172 138.665 214.365 138.8C216.763 138.947 218.779 139.46 220.413 140.338C222.061 141.218 223.119 142.266 223.588 143.483C224.071 144.687 224.226 146.7 224.053 149.522L223.967 150.925ZM252.071 140.04L252.199 147.158L246.706 147.257L247.217 175.707L237.968 175.873L237.457 147.423L231.987 147.521L231.859 140.403L252.071 140.04ZM274.743 159.125C275.02 162.688 275.129 165.222 275.069 166.725C275.023 168.213 274.602 169.604 273.806 170.9C273.025 172.195 271.908 173.23 270.455 174.004C269.002 174.778 267.275 175.242 265.274 175.398C263.375 175.545 261.643 175.371 260.076 174.875C258.523 174.364 257.239 173.524 256.222 172.354C255.206 171.184 254.553 169.875 254.264 168.429C253.976 166.982 253.69 164.433 253.406 160.782L252.935 154.713C252.659 151.15 252.543 148.624 252.589 147.137C252.649 145.634 253.069 144.235 253.85 142.94C254.646 141.644 255.77 140.609 257.224 139.835C258.677 139.061 260.404 138.596 262.405 138.441C264.303 138.293 266.029 138.475 267.582 138.987C269.149 139.482 270.44 140.315 271.456 141.485C272.473 142.655 273.126 143.963 273.414 145.41C273.703 146.857 273.989 149.406 274.272 153.057L274.743 159.125ZM264.616 148.187C264.488 146.536 264.311 145.492 264.086 145.054C263.875 144.6 263.484 144.396 262.915 144.44C262.433 144.477 262.075 144.696 261.841 145.096C261.622 145.481 261.582 146.586 261.724 148.411L263.01 164.973C263.17 167.032 263.349 168.296 263.547 168.766C263.76 169.234 264.173 169.444 264.786 169.397C265.414 169.348 265.794 169.039 265.926 168.471C266.058 167.902 266.043 166.574 265.881 164.485L264.616 148.187ZM298.141 155.821C298.652 159.359 298.927 161.879 298.966 163.383C299.018 164.871 298.69 166.287 297.982 167.633C297.288 168.976 296.241 170.082 294.842 170.95C293.443 171.818 291.75 172.396 289.764 172.682C287.879 172.955 286.139 172.895 284.543 172.504C282.96 172.096 281.623 171.342 280.531 170.242C279.44 169.141 278.703 167.879 278.319 166.454C277.936 165.03 277.483 162.505 276.959 158.881L276.089 152.857C275.578 149.319 275.297 146.807 275.245 145.319C275.205 143.815 275.532 142.392 276.226 141.048C276.935 139.703 277.988 138.596 279.387 137.728C280.786 136.86 282.479 136.282 284.465 135.995C286.35 135.723 288.084 135.791 289.667 136.199C291.263 136.59 292.607 137.335 293.698 138.436C294.789 139.536 295.527 140.799 295.91 142.224C296.294 143.648 296.747 146.173 297.271 149.797L298.141 155.821ZM287.314 145.574C287.077 143.936 286.832 142.906 286.579 142.483C286.338 142.045 285.935 141.866 285.369 141.948C284.891 142.017 284.549 142.259 284.342 142.673C284.148 143.071 284.182 144.177 284.444 145.989L286.818 162.429C287.113 164.474 287.375 165.724 287.604 166.179C287.847 166.632 288.273 166.815 288.882 166.727C289.505 166.637 289.864 166.304 289.959 165.728C290.053 165.152 289.95 163.827 289.651 161.754L287.314 145.574ZM312.654 131.579L318.925 159.334L324.412 158.094L325.981 165.038L311.472 168.317L303.631 133.618L312.654 131.579ZM344.501 144.514C345.472 147.953 346.076 150.416 346.312 151.902C346.559 153.37 346.42 154.817 345.894 156.244C345.382 157.667 344.49 158.9 343.217 159.945C341.944 160.989 340.342 161.784 338.411 162.329C336.578 162.846 334.845 163.016 333.212 162.837C331.588 162.641 330.164 162.069 328.937 161.121C327.711 160.174 326.814 159.019 326.247 157.657C325.68 156.295 324.899 153.852 323.904 150.327L322.251 144.47C321.28 141.03 320.671 138.576 320.424 137.109C320.188 135.623 320.325 134.169 320.837 132.746C321.362 131.319 322.262 130.083 323.535 129.039C324.808 127.995 326.41 127.2 328.341 126.655C330.174 126.137 331.902 125.977 333.525 126.173C335.158 126.352 336.588 126.914 337.814 127.862C339.041 128.81 339.938 129.964 340.505 131.326C341.072 132.688 341.853 135.132 342.847 138.656L344.501 144.514ZM332.423 135.777C331.973 134.184 331.595 133.194 331.288 132.809C330.992 132.406 330.569 132.282 330.019 132.437C329.554 132.568 329.246 132.853 329.096 133.291C328.955 133.711 329.134 134.802 329.631 136.565L334.144 152.551C334.705 154.539 335.129 155.744 335.415 156.165C335.716 156.583 336.162 156.708 336.754 156.541C337.36 156.369 337.672 155.992 337.69 155.409C337.708 154.825 337.433 153.526 336.864 151.51L332.423 135.777ZM372.03 112.15L380.57 146.927L369.736 150.953C366.844 146.199 363.809 140.701 360.63 134.459C361.322 137.374 362.683 143.495 364.71 152.821L353.938 156.824L337.675 124.917L346.099 121.786L351.309 133.094L356.386 143.983C354.544 138.057 352.508 130.14 350.28 120.233L359.301 116.88C359.787 117.809 361.465 121.358 364.336 127.527L369.99 139.842C367.476 131.603 365.348 123.416 363.606 115.281L372.03 112.15ZM388.362 135.853L391.272 142.494L385.133 145.184L382.224 138.542L388.362 135.853Z" fill="white"/>
</g>
<defs>
<filter id="filter0_d_6001_729" x="42.3322" y="0.282715" width="217.841" height="76.145" filterUnits="userSpaceOnUse" color-interpolation-filters="sRGB">
<feFlood flood-opacity="0" result="BackgroundImageFix"/>
<feColorMatrix in="SourceAlpha" type="matrix" values="0 0 0 0 0 0 0 0 0 0 0 0 0 0 0 0 0 0 127 0" result="hardAlpha"/>
<feOffset dx="4" dy="6"/>
<feComposite in2="hardAlpha" operator="out"/>
<feColorMatrix type="matrix" values="0 0 0 0 0 0 0 0 0 0 0 0 0 0 0 0 0 0 0.1 0"/>
<feBlend mode="normal" in2="BackgroundImageFix" result="effect1_dropShadow_6001_729"/>
<feBlend mode="normal" in="SourceGraphic" in2="effect1_dropShadow_6001_729" result="shape"/>
</filter>
<filter id="filter1_d_6001_729" x="71.0632" y="58.9727" width="266.591" height="70.7495" filterUnits="userSpaceOnUse" color-interpolation-filters="sRGB">
<feFlood flood-opacity="0" result="BackgroundImageFix"/>
<feColorMatrix in="SourceAlpha" type="matrix" values="0 0 0 0 0 0 0 0 0 0 0 0 0 0 0 0 0 0 127 0" result="hardAlpha"/>
<feOffset dx="4" dy="6"/>
<feComposite in2="hardAlpha" operator="out"/>
<feColorMatrix type="matrix" values="0 0 0 0 0 0 0 0 0 0 0 0 0 0 0 0 0 0 0.1 0"/>
<feBlend mode="normal" in2="BackgroundImageFix" result="effect1_dropShadow_6001_729"/>
<feBlend mode="normal" in="SourceGraphic" in2="effect1_dropShadow_6001_729" result="shape"/>
</filter>
<filter id="filter2_d_6001_729" x="142.4" y="111.888" width="252.872" height="70.7349" filterUnits="userSpaceOnUse" color-interpolation-filters="sRGB">
<feFlood flood-opacity="0" result="BackgroundImageFix"/>
<feColorMatrix in="SourceAlpha" type="matrix" values="0 0 0 0 0 0 0 0 0 0 0 0 0 0 0 0 0 0 127 0" result="hardAlpha"/>
<feOffset dx="4" dy="6"/>
<feComposite in2="hardAlpha" operator="out"/>
<feColorMatrix type="matrix" values="0 0 0 0 0 0 0 0 0 0 0 0 0 0 0 0 0 0 0.1 0"/>
<feBlend mode="normal" in2="BackgroundImageFix" result="effect1_dropShadow_6001_729"/>
<feBlend mode="normal" in="SourceGraphic" in2="effect1_dropShadow_6001_729" result="shape"/>
</filter>
</defs>
</svg>
