<svg width="662" height="220" viewBox="0 0 662 220" fill="none" xmlns="http://www.w3.org/2000/svg">
<g filter="url(#filter0_d_6179_83)">
<path d="M53.313 105.665L44.0659 97.6779L46.5171 94.8399C47.661 93.5155 48.2713 92.5699 48.348 92.003C48.4247 91.4361 48.1871 90.9143 47.6353 90.4377C47.0362 89.9202 46.3679 89.7697 45.6304 89.9861C44.9087 90.2161 44.1189 90.8278 43.2609 91.8211C42.1579 93.0982 41.5006 94.2097 41.2892 95.1557C41.062 96.0881 41.326 97.6788 42.0813 99.9278C44.2375 106.387 45.1626 110.958 44.8565 113.639C44.5503 116.32 42.7767 119.537 39.5357 123.289C37.1798 126.017 35.1204 127.748 33.3573 128.482C31.61 129.231 29.4406 129.256 26.849 128.56C24.2711 127.847 21.7682 126.442 19.3401 124.345C16.6756 122.044 14.8331 119.571 13.8126 116.928C12.8079 114.299 12.688 111.952 13.4528 109.887C14.2175 107.822 15.8392 105.355 18.3176 102.485L20.4828 99.9785L29.7299 107.965L25.7059 112.624C24.4666 114.059 23.7961 115.09 23.6943 115.718C23.6083 116.36 23.8964 116.966 24.5586 117.538C25.2208 118.11 25.9343 118.272 26.699 118.024C27.4795 117.79 28.3123 117.16 29.1974 116.136C31.1448 113.881 32.1106 112.141 32.0949 110.916C32.0634 109.678 31.5113 107.178 30.4385 103.416C29.3794 99.6381 28.7678 97.0315 28.6038 95.596C28.4397 94.1604 28.6548 92.5569 29.249 90.7852C29.859 89.0272 31.0423 87.1313 32.799 85.0974C35.3319 82.1648 37.5544 80.3406 39.4666 79.6247C41.3945 78.9224 43.5209 78.9146 45.8458 79.6013C48.1843 80.2722 50.5361 81.629 52.9011 83.6716C55.4868 85.9049 57.3254 88.2224 58.4168 90.6241C59.524 93.0394 59.8177 95.1375 59.2981 96.9185C58.8078 98.6973 57.2485 101.108 54.6203 104.151L53.313 105.665ZM71.0271 135.7C68.1053 139.86 65.9314 142.737 64.5054 144.333C63.1085 145.923 61.3871 147.069 59.3413 147.77C57.3126 148.484 55.1508 148.607 52.856 148.141C50.5612 147.675 48.246 146.622 45.9104 144.981C43.6941 143.424 41.9509 141.665 40.6809 139.704C39.4398 137.738 38.7912 135.653 38.735 133.449C38.6788 131.246 39.1471 129.22 40.14 127.371C41.1329 125.523 43.1261 122.467 46.1197 118.205L51.0952 111.122C54.0169 106.962 56.1763 104.087 57.5733 102.497C58.9992 100.902 60.7266 99.7474 62.7553 99.0339C64.8011 98.3323 66.9714 98.2146 69.2662 98.6808C71.5611 99.147 73.8763 100.2 76.2119 101.841C78.4281 103.398 80.1568 105.159 81.3978 107.126C82.6679 109.087 83.331 111.169 83.3872 113.373C83.4434 115.576 82.9751 117.602 81.9822 119.451C80.9894 121.299 78.9961 124.355 76.0025 128.617L71.0271 135.7ZM69.8168 114.534C71.17 112.607 71.9213 111.302 72.0709 110.618C72.2495 109.929 72.0064 109.351 71.3415 108.884C70.7789 108.488 70.1885 108.405 69.5703 108.632C68.9811 108.855 67.9381 110.032 66.4413 112.163L52.8622 131.495C51.1738 133.899 50.2258 135.448 50.0182 136.143C49.8276 136.849 50.0903 137.453 50.8063 137.956C51.5394 138.471 52.2357 138.477 52.8953 137.973C53.5549 137.468 54.7409 135.997 56.4533 133.56L69.8168 114.534ZM139.704 137.962L111.957 180.669L97.2363 173.355C99.351 165.728 102.097 157.229 105.475 147.857C103.126 151.413 98.104 158.781 90.4079 169.962L75.7715 162.689L93.0243 114.766L104.47 120.454L97.8167 136.863L91.4692 152.727C95.8199 145.049 102.047 135.232 110.151 123.277L122.409 129.368C121.919 130.776 119.872 135.97 116.27 144.951L109.005 162.802C115.1 152.175 121.518 141.999 128.258 132.274L139.704 137.962ZM136.89 136.592L157.509 144.082L154.052 153.598L145.799 150.6L142.523 159.618L150.248 162.424L146.962 171.47L139.237 168.664L135.439 179.121L144.515 182.418L141.058 191.934L119.616 184.146L136.89 136.592ZM205.44 154.603L195.36 204.182L184.091 201.891L190.896 168.42L179.589 200.976L171.596 199.351L173.499 165.68L166.85 198.386L155.58 196.094L165.66 146.515L182.35 149.908C182.234 152.989 182.041 156.606 181.77 160.76L180.981 173.738L188.628 151.185L205.44 154.603ZM226.713 155.989L230.716 206.984L217.28 206.049L217.256 196.932L212.548 196.604L211.138 205.622L197.546 204.677L207.728 154.669L226.713 155.989ZM217.504 187.959C217.236 182.197 217.062 175.095 216.981 166.652C214.98 176.203 213.658 183.201 213.015 187.646L217.504 187.959ZM230.437 156.295L240.269 155.807C246.615 155.492 250.916 155.57 253.172 156.042C255.448 156.514 257.202 157.386 258.433 158.66C259.664 159.934 260.466 161.385 260.839 163.015C261.211 164.623 261.516 167.82 261.753 172.606L262.632 190.303C262.857 194.839 262.789 197.888 262.429 199.449C262.088 200.989 261.409 202.222 260.391 203.149C259.372 204.055 258.091 204.723 256.548 205.154C255.004 205.565 252.661 205.848 249.519 206.004L232.946 206.826L230.437 156.295ZM244.007 164.288L245.657 197.529C247.55 197.435 248.697 197.002 249.096 196.231C249.495 195.44 249.611 193.359 249.444 189.988L248.469 170.356C248.356 168.067 248.21 166.603 248.032 165.966C247.855 165.328 247.498 164.876 246.964 164.611C246.428 164.324 245.442 164.217 244.007 164.288ZM260.204 154.834L281.864 151.357L283.469 161.354L274.799 162.746L276.319 172.218L284.434 170.916L285.959 180.419L277.844 181.722L279.608 192.706L289.142 191.176L290.746 201.173L268.222 204.788L260.204 154.834ZM326.081 161.157L313.541 165.136L310.875 156.736C310.1 154.294 309.479 152.819 309.012 152.311C308.559 151.777 307.875 151.655 306.962 151.945C305.929 152.273 305.39 152.848 305.346 153.671C305.301 154.494 305.666 156.127 306.441 158.569L313.549 180.969C314.292 183.312 314.916 184.797 315.421 185.423C315.926 186.05 316.665 186.209 317.638 185.9C318.571 185.604 319.064 185.055 319.115 184.251C319.186 183.442 318.802 181.717 317.964 179.076L316.045 173.029L328.586 169.05L329.181 170.926C330.763 175.911 331.527 179.559 331.474 181.871C331.44 184.176 330.461 186.498 328.536 188.835C326.631 191.166 323.911 192.893 320.377 194.014C316.703 195.18 313.464 195.476 310.659 194.902C307.854 194.327 305.692 192.991 304.174 190.894C302.65 188.777 301.138 185.355 299.638 180.629L295.167 166.54C294.065 163.065 293.358 160.426 293.048 158.622C292.732 156.799 292.905 154.898 293.566 152.918C294.247 150.931 295.485 149.15 297.28 147.575C299.089 145.974 301.354 144.742 304.074 143.878C307.768 142.706 311.043 142.454 313.899 143.121C316.756 143.789 318.901 145.075 320.336 146.98C321.765 148.865 323.195 152.062 324.625 156.569L326.081 161.157ZM318.362 140.492L326.859 136.679C332.523 134.137 336.451 132.637 338.642 132.178C340.853 131.711 342.991 132.099 345.056 133.342C347.131 134.557 349.052 137.131 350.818 141.066C352.43 144.658 353.067 147.273 352.728 148.909C352.389 150.545 350.964 152.076 348.452 153.5C351.092 153.023 353.042 153.095 354.303 153.717C355.564 154.338 356.477 155.024 357.043 155.775C357.619 156.499 358.743 158.723 360.415 162.449L365.878 174.622L354.731 179.626L347.847 164.287C346.738 161.816 345.851 160.376 345.188 159.966C344.543 159.547 343.394 159.709 341.741 160.451L351.082 181.263L339.079 186.65L318.362 140.492ZM333.91 143.003L338.516 153.266C339.866 152.661 340.725 152.058 341.096 151.458C341.476 150.83 341.21 149.5 340.297 147.466L339.158 144.929C338.502 143.465 337.805 142.625 337.068 142.407C336.35 142.182 335.297 142.38 333.91 143.003ZM370.857 113.518L387.841 142.755C389.767 146.07 391.014 148.465 391.583 149.942C392.141 151.401 392.302 153.15 392.066 155.191C391.819 157.213 391.037 159.102 389.718 160.855C388.408 162.58 386.572 164.129 384.213 165.499C381.6 167.017 379.043 167.924 376.542 168.221C374.04 168.518 371.89 168.261 370.094 167.449C368.297 166.637 366.864 165.518 365.794 164.092C364.714 162.647 362.741 159.457 359.873 154.521L344.835 128.635L356.211 122.026L375.268 154.83C376.377 156.74 377.188 157.907 377.7 158.332C378.219 158.729 378.795 158.744 379.425 158.378C380.146 157.96 380.438 157.404 380.301 156.713C380.172 155.993 379.474 154.543 378.208 152.363L359.481 120.127L370.857 113.518ZM404.357 89.7617L433.637 131.022L424.258 137.677L404.491 109.822L420.512 140.336L413.861 145.056L390.595 120.641L409.91 147.859L400.532 154.515L371.252 113.255L385.141 103.398C387.309 105.589 389.816 108.204 392.662 111.242L401.591 120.693L390.365 99.6905L404.357 89.7617ZM410.968 85.3287L422.06 78.3121C425.563 76.0958 428.386 74.6925 430.527 74.1023C432.686 73.5009 434.849 73.6857 437.016 74.6566C439.172 75.61 441.419 77.9353 443.758 81.6327C445.34 84.1328 446.046 86.1264 445.878 87.6135C445.727 89.0895 444.665 90.8211 442.693 92.8083C445.631 91.7633 447.986 91.629 449.76 92.4056C451.522 93.1645 453.282 94.9349 455.042 97.7167L457.548 101.678C459.375 104.566 460.393 106.916 460.604 108.73C460.832 110.533 460.386 112.147 459.266 113.571C458.145 114.995 455.348 117.121 450.876 119.95L438.015 128.086L410.968 85.3287ZM426.714 85.6109L432.728 95.1183C433.192 94.8 433.556 94.5573 433.82 94.3902C434.912 93.6997 435.44 92.9957 435.406 92.2782C435.36 91.543 434.535 89.9078 432.931 87.3725C432.085 86.0344 431.371 85.1792 430.79 84.807C430.199 84.4171 429.656 84.2798 429.162 84.3951C428.685 84.4993 427.869 84.9045 426.714 85.6109ZM436.938 101.774L444.506 113.737C446.039 112.693 446.878 111.817 447.022 111.11C447.184 110.391 446.719 109.169 445.628 107.444L443.105 103.456C441.947 101.625 441.051 100.638 440.419 100.496C439.787 100.354 438.626 100.779 436.938 101.774ZM490.561 42.3366L507.341 90.4231L492.545 97.5837C487.809 91.2424 482.771 83.8676 477.428 75.4592C478.802 79.4929 481.553 87.9749 485.681 100.905L470.97 108.025L443.642 65.0436L455.146 59.4757L464.048 74.7832L472.704 89.5146C469.297 81.3734 465.348 70.4393 460.857 56.7122L473.177 50.7496C473.99 51.9994 476.845 56.7976 481.741 65.1443L491.407 81.8174C486.736 70.4919 482.619 59.1876 479.056 47.9044L490.561 42.3366ZM536.83 57.5795C538.455 62.3962 539.489 65.8512 539.931 67.9446C540.387 70.0117 540.292 72.0774 539.647 74.1418C539.022 76.1995 537.843 78.0155 536.11 79.5898C534.376 81.164 532.157 82.4073 529.453 83.3196C526.886 84.1854 524.437 84.55 522.104 84.4135C519.785 84.2505 517.72 83.5399 515.91 82.2815C514.101 81.0231 512.744 79.4469 511.841 77.5528C510.939 75.6587 509.655 72.2441 507.99 67.309L505.223 59.1069C503.598 54.2903 502.558 50.8484 502.102 48.7814C501.66 46.688 501.751 44.6124 502.376 42.5546C503.021 40.4902 504.21 38.6709 505.944 37.0967C507.677 35.5224 509.896 34.2791 512.601 33.3668C515.167 32.5011 517.61 32.1497 519.93 32.3126C522.262 32.4491 524.333 33.1465 526.143 34.4049C527.953 35.6633 529.309 37.2395 530.212 39.1337C531.115 41.0278 532.399 44.4424 534.063 49.3774L536.83 57.5795ZM519.05 46.0322C518.298 43.8016 517.69 42.4235 517.227 41.8982C516.777 41.3464 516.167 41.2004 515.397 41.4601C514.746 41.6798 514.329 42.1063 514.147 42.7394C513.978 43.3461 514.309 44.8832 515.142 47.3508L522.693 69.7363C523.632 72.5197 524.32 74.2005 524.757 74.7786C525.214 75.3501 525.857 75.4961 526.686 75.2164C527.535 74.93 527.951 74.3718 527.935 73.5418C527.919 72.7117 527.434 70.8853 526.482 68.0624L519.05 46.0322ZM537.306 26.754L546.397 24.7355C552.458 23.3899 556.608 22.7138 558.847 22.7075C561.107 22.6966 563.122 23.5082 564.894 25.1422C566.681 26.7515 568.042 29.6611 568.976 33.871C569.83 37.7149 569.925 40.404 569.263 41.9382C568.601 43.4724 566.895 44.6833 564.147 45.5709C566.83 45.6369 568.726 46.1016 569.835 46.965C570.944 47.8284 571.7 48.685 572.102 49.5347C572.52 50.3595 573.171 52.7651 574.056 56.7513L576.949 69.7779L565.021 72.4263L561.376 56.0135C560.789 53.3696 560.212 51.7798 559.645 51.2441C559.098 50.704 557.94 50.6303 556.171 51.0232L561.116 73.2933L548.272 76.145L537.306 26.754ZM552.026 32.3528L554.464 43.3354C555.908 43.0148 556.872 42.598 557.355 42.0852C557.855 41.5475 557.863 40.1905 557.38 38.0143L556.777 35.2992C556.429 33.7332 555.917 32.7693 555.239 32.4077C554.581 32.0415 553.51 32.0232 552.026 32.3528ZM607.592 15.2283L602.61 38.7598L613.851 65.4386L600.339 66.9283L592.682 45.9535L595.059 67.5104L581.982 68.9521L576.437 18.6631L589.514 17.2214L591.668 36.7592L595.323 16.581L607.592 15.2283ZM643.98 30.1576L631.762 30.1721L631.757 26.4221C631.755 24.6721 631.597 23.5577 631.284 23.0789C630.971 22.6001 630.45 22.3611 629.721 22.362C628.929 22.3629 628.326 22.6866 627.91 23.3329C627.515 23.9792 627.318 24.9586 627.319 26.2711C627.321 27.9586 627.552 29.2291 628.011 30.0828C628.45 30.9364 629.691 31.9662 631.734 33.1721C637.592 36.6444 641.283 39.4942 642.806 41.7215C644.33 43.9489 645.095 47.5418 645.1 52.5001C645.105 56.1043 644.681 58.761 643.829 60.4703C642.997 62.1797 641.374 63.6191 638.959 64.7886C636.543 65.9373 633.732 66.5135 630.523 66.5173C627.002 66.5215 623.991 65.8584 621.49 64.528C619.009 63.1976 617.382 61.5016 616.609 59.44C615.835 57.3784 615.446 54.4518 615.442 50.6601L615.438 47.3476L627.657 47.3332L627.664 53.4894C627.666 55.3853 627.834 56.6038 628.168 57.1451C628.523 57.6863 629.138 57.9565 630.013 57.9554C630.888 57.9544 631.534 57.6099 631.949 56.9219C632.386 56.2339 632.604 55.2128 632.602 53.8586C632.598 50.8794 632.19 48.932 631.376 48.0163C630.542 47.1006 628.488 45.5718 625.215 43.4298C621.941 41.267 619.773 39.6967 618.709 38.7188C617.645 37.7409 616.758 36.3877 616.048 34.6594C615.359 32.9311 615.012 30.7231 615.009 28.0356C615.004 24.1606 615.491 21.3267 616.468 19.5339C617.466 17.7411 619.068 16.3433 621.275 15.3407C623.482 14.3173 626.148 13.8037 629.273 13.8C632.69 13.796 635.597 14.3446 637.994 15.446C640.412 16.5473 642.007 17.9412 642.78 19.6278C643.574 21.2935 643.973 24.1368 643.978 28.1576L643.98 30.1576ZM657.974 55.8845L657.261 66.1723L647.753 65.5135L648.466 55.2257L657.974 55.8845Z" fill="white"/>
</g>
<defs>
<filter id="filter0_d_6179_83" x="7.63281" y="13.3064" width="654.34" height="199.975" filterUnits="userSpaceOnUse" color-interpolation-filters="sRGB">
<feFlood flood-opacity="0" result="BackgroundImageFix"/>
<feColorMatrix in="SourceAlpha" type="matrix" values="0 0 0 0 0 0 0 0 0 0 0 0 0 0 0 0 0 0 127 0" result="hardAlpha"/>
<feOffset dx="4" dy="6"/>
<feComposite in2="hardAlpha" operator="out"/>
<feColorMatrix type="matrix" values="0 0 0 0 0 0 0 0 0 0 0 0 0 0 0 0 0 0 0.1 0"/>
<feBlend mode="normal" in2="BackgroundImageFix" result="effect1_dropShadow_6179_83"/>
<feBlend mode="normal" in="SourceGraphic" in2="effect1_dropShadow_6179_83" result="shape"/>
</filter>
</defs>
</svg>
