<svg width="428" height="149" viewBox="0 0 428 149" fill="none" xmlns="http://www.w3.org/2000/svg">
<g filter="url(#filter0_d_6001_733)">
<path d="M100.019 25.2347L92.1452 21.7973L93.2002 19.3809C93.6925 18.2532 93.9053 17.491 93.8388 17.0943C93.7722 16.6976 93.504 16.3967 93.0341 16.1916C92.524 15.9689 92.0438 16.007 91.5936 16.3059C91.1568 16.6107 90.7538 17.186 90.3846 18.0318C89.9099 19.1192 89.7 20.0026 89.7551 20.682C89.7967 21.3555 90.3054 22.3687 91.2811 23.7217C94.0747 27.6106 95.648 30.4871 96.0009 32.3515C96.3538 34.2158 95.8328 36.7455 94.4379 39.9406C93.424 42.2631 92.4015 43.8546 91.3705 44.7152C90.3529 45.5816 88.9014 46.0507 87.0159 46.1227C85.1363 46.1812 83.1627 45.7591 81.0953 44.8566C78.8265 43.8661 77.0742 42.5896 75.8383 41.0271C74.6158 39.4705 74.0463 37.9192 74.1298 36.3733C74.2133 34.8274 74.7884 32.8327 75.8551 30.3894L76.787 28.2549L84.6607 31.6923L82.9288 35.6593C82.3954 36.881 82.16 37.7132 82.2224 38.156C82.2982 38.6047 82.6181 38.9521 83.1819 39.1983C83.7458 39.4444 84.2586 39.4046 84.7206 39.0788C85.1959 38.7589 85.624 38.1626 86.005 37.29C86.8431 35.3702 87.1293 34.0007 86.8636 33.1814C86.5845 32.3563 85.6929 30.7923 84.1889 28.4894C82.6907 26.173 81.737 24.5499 81.3278 23.6201C80.9186 22.6902 80.729 21.5685 80.759 20.2549C80.8024 18.9473 81.2022 17.4275 81.9582 15.6957C83.0483 13.1987 84.1609 11.5106 85.2959 10.6316C86.4443 9.75835 87.8707 9.31017 89.5751 9.28703C91.2853 9.25046 93.1473 9.67174 95.161 10.5509C97.3627 11.512 99.0801 12.6854 100.313 14.0709C101.56 15.4623 102.194 16.8101 102.216 18.1144C102.258 19.4111 101.713 21.3549 100.582 23.9459L100.019 25.2347ZM118.496 43.0484C117.232 46.3914 116.253 48.7306 115.56 50.0659C114.886 51.3927 113.913 52.4735 112.642 53.3083C111.385 54.1482 109.934 54.6096 108.289 54.6923C106.645 54.7751 104.884 54.4615 103.007 53.7515C101.226 53.0778 99.7317 52.1837 98.5245 51.0693C97.3361 49.9464 96.5306 48.6394 96.1079 47.1483C95.6853 45.6572 95.6509 44.1955 96.0047 42.7632C96.3585 41.3309 97.1832 38.9021 98.4788 35.4769L100.632 29.7841C101.897 26.441 102.866 24.1061 103.54 22.7793C104.233 21.444 105.208 20.3563 106.466 19.5164C107.737 18.6816 109.195 18.2229 110.839 18.1401C112.483 18.0573 114.244 18.3709 116.121 19.0809C117.902 19.7546 119.387 20.653 120.575 21.7759C121.783 22.8903 122.598 24.1931 123.02 25.6841C123.443 27.1752 123.477 28.6369 123.124 30.0692C122.77 31.5015 121.945 33.9303 120.649 37.3556L118.496 43.0484ZM113.979 28.8422C114.565 27.294 114.849 26.2738 114.832 25.7817C114.833 25.2811 114.567 24.9297 114.032 24.7276C113.58 24.5566 113.163 24.6026 112.782 24.8655C112.42 25.1199 111.914 26.1035 111.267 27.8161L105.39 43.3531C104.659 45.285 104.284 46.5055 104.263 47.0146C104.257 47.5289 104.541 47.8949 105.116 48.1126C105.706 48.3354 106.181 48.2176 106.542 47.7592C106.904 47.3007 107.455 46.0919 108.196 44.1326L113.979 28.8422ZM167.391 35.9699L153.588 69.013L142.483 65.8111C142.983 60.2689 143.81 54.0434 144.963 47.1345C143.787 49.8903 141.243 55.6207 137.331 64.3258L126.289 61.1422L132.175 25.8164L140.81 28.3061L138.279 40.4965L135.89 52.2707C137.931 46.4103 140.999 38.834 145.096 29.5418L154.343 32.208C154.182 33.2439 153.422 37.0952 152.064 43.7622L149.292 57.0265C152.166 48.9064 155.321 41.0577 158.756 33.4802L167.391 35.9699ZM167.113 35.8412L182.164 39.2168L180.606 46.1633L174.581 44.8122L173.105 51.3943L178.744 52.6589L177.263 59.2624L171.624 57.9978L169.912 65.6304L176.537 67.1163L174.979 74.0629L159.328 70.5526L167.113 35.8412ZM218.841 44.9738L213.668 80.1694L205.668 78.9935L209.161 55.2327L202.473 78.5238L196.799 77.6898L196.842 53.9772L193.429 77.1945L185.429 76.0186L190.602 40.8231L202.45 42.5645C202.487 44.7316 202.49 47.2786 202.46 50.2057L202.404 59.3475L206.907 43.2196L218.841 44.9738ZM236.215 46.4651L238.544 82.3553L229.106 81.5705L229.176 75.1602L225.87 74.8853L224.793 81.2118L215.246 80.418L222.879 45.3562L236.215 46.4651ZM229.436 68.8539C229.303 64.8006 229.248 59.8057 229.271 53.8693C227.774 60.5651 226.778 65.4726 226.283 68.5917L229.436 68.8539ZM241.056 46.82L247.975 47.0015C252.441 47.1186 255.452 47.4027 257.009 47.8538C258.579 48.3053 259.762 49.0103 260.558 49.969C261.353 50.9277 261.838 51.9881 262.013 53.1503C262.188 54.2979 262.231 56.5557 262.143 59.9237L261.817 72.3779C261.733 75.5701 261.523 77.704 261.187 78.7796C260.866 79.8409 260.324 80.6692 259.561 81.2647C258.799 81.8455 257.865 82.246 256.76 82.4661C255.656 82.6716 253.998 82.7454 251.787 82.6874L240.124 82.3816L241.056 46.82ZM250.144 53.1469L249.53 76.5397C250.863 76.5746 251.69 76.3325 252.011 75.8135C252.333 75.2797 252.525 73.8267 252.587 71.4545L252.949 57.6384C252.992 56.0277 252.967 54.994 252.877 54.5373C252.786 54.0807 252.561 53.7451 252.2 53.5305C251.84 53.3012 251.154 53.1733 250.144 53.1469ZM264.073 47.3757L279.492 46.9805L279.675 54.0973L273.503 54.2555L273.675 60.9989L279.452 60.8509L279.626 67.6162L273.849 67.7643L274.049 75.584L280.836 75.41L281.019 82.5268L264.984 82.9377L264.073 47.3757Z" fill="white"/>
</g>
<g filter="url(#filter1_d_6001_733)">
<path d="M151.383 111.017L142.491 108.466L144.2 102.51C144.697 100.778 144.908 99.6725 144.832 99.1935C144.774 98.7045 144.421 98.3671 143.774 98.1812C143.041 97.9711 142.502 98.0982 142.155 98.5626C141.809 99.027 141.387 100.125 140.89 101.857L136.332 117.739C135.855 119.401 135.643 120.513 135.694 121.077C135.746 121.64 136.117 122.021 136.807 122.219C137.468 122.409 137.971 122.279 138.313 121.828C138.67 121.382 139.117 120.223 139.654 118.35L140.885 114.062L149.776 116.614L149.394 117.945C148.38 121.479 147.408 123.912 146.476 125.245C145.559 126.582 144.082 127.56 142.045 128.18C140.022 128.803 137.758 128.755 135.252 128.036C132.647 127.289 130.635 126.201 129.216 124.772C127.797 123.344 127.052 121.721 126.979 119.902C126.911 118.068 127.358 115.476 128.319 112.125L131.186 102.135C131.893 99.6714 132.507 97.8511 133.028 96.6746C133.552 95.4841 134.393 94.4378 135.551 93.5357C136.724 92.6376 138.142 92.0769 139.806 91.8535C141.488 91.62 143.294 91.7801 145.223 92.3336C147.842 93.0852 149.858 94.2123 151.271 95.715C152.683 97.2177 153.439 98.8062 153.538 100.48C153.64 102.14 153.233 104.569 152.316 107.765L151.383 111.017ZM156.674 96.35L163.07 97.751C167.335 98.685 170.182 99.4811 171.612 100.139C173.057 100.801 174.103 101.914 174.749 103.481C175.413 105.036 175.421 107.294 174.772 110.256C174.18 112.961 173.446 114.704 172.569 115.487C171.693 116.27 170.247 116.538 168.232 116.292C169.923 117.127 170.995 117.984 171.448 118.863C171.9 119.742 172.129 120.512 172.134 121.173C172.156 121.822 171.861 123.549 171.246 126.354L169.239 135.519L160.846 133.681L163.376 122.133C163.783 120.273 163.885 119.088 163.682 118.579C163.493 118.073 162.776 117.683 161.531 117.411L158.099 133.079L149.063 131.1L156.674 96.35ZM164.408 104.275L162.716 112.002C163.732 112.224 164.47 112.243 164.93 112.059C165.408 111.864 165.814 111.001 166.15 109.47L166.568 107.559C166.809 106.458 166.767 105.691 166.442 105.26C166.131 104.832 165.453 104.504 164.408 104.275ZM198.917 104.168L195.34 127.671C194.934 130.336 194.562 132.198 194.223 133.258C193.886 134.303 193.203 135.332 192.174 136.346C191.148 137.346 189.887 138.036 188.392 138.416C186.914 138.783 185.226 138.823 183.329 138.534C181.229 138.214 179.428 137.585 177.927 136.645C176.425 135.705 175.361 134.617 174.734 133.381C174.107 132.144 173.815 130.9 173.858 129.647C173.903 128.379 174.227 125.761 174.831 121.794L177.998 100.983L187.144 102.375L183.13 128.746C182.896 130.282 182.826 131.278 182.919 131.737C183.029 132.184 183.337 132.445 183.844 132.522C184.423 132.611 184.828 132.435 185.058 131.996C185.304 131.545 185.561 130.443 185.827 128.69L189.772 102.776L198.917 104.168ZM228.083 106.241L225.588 141.728L217.522 141.161L219.206 117.204L214.3 140.934L208.579 140.532L206.828 116.884L205.182 140.293L197.116 139.726L199.61 104.24L211.556 105.08C211.757 107.238 211.953 109.777 212.144 112.698L212.78 121.818L216.049 105.395L228.083 106.241ZM228.933 106.267L238.161 106.176C241.076 106.147 243.283 106.353 244.782 106.792C246.295 107.231 247.52 108.142 248.456 109.524C249.393 110.892 249.876 113.114 249.906 116.19C249.927 118.27 249.612 119.723 248.961 120.55C248.324 121.377 247.049 122.019 245.134 122.478C247.278 122.94 248.736 123.731 249.509 124.852C250.281 125.957 250.679 127.667 250.702 129.982L250.734 133.277C250.758 135.68 250.498 137.462 249.952 138.625C249.422 139.787 248.558 140.587 247.361 141.024C246.164 141.46 243.706 141.697 239.985 141.734L229.285 141.839L228.933 106.267ZM238.243 112.262L238.322 120.172C238.717 120.153 239.025 120.143 239.244 120.141C240.152 120.132 240.729 119.906 240.973 119.464C241.218 119.008 241.33 117.725 241.309 115.616C241.298 114.503 241.188 113.727 240.978 113.29C240.769 112.838 240.495 112.555 240.157 112.441C239.834 112.327 239.196 112.267 238.243 112.262ZM238.376 125.709L238.475 135.662C239.778 135.605 240.604 135.392 240.951 135.022C241.314 134.652 241.488 133.75 241.474 132.314L241.441 128.996C241.426 127.473 241.256 126.552 240.931 126.233C240.605 125.914 239.754 125.739 238.376 125.709ZM285.19 102.531L284.682 138.338L273.183 139.501C271.584 134.171 270.033 128.085 268.532 121.243C268.466 124.239 268.239 130.504 267.848 140.04L256.415 141.196L248.726 106.219L257.667 105.314L259.856 117.571L262.023 129.388C261.735 123.189 261.762 115.015 262.105 104.866L271.68 103.897C271.916 104.919 272.645 108.776 273.866 115.47L276.232 128.813C275.877 120.206 275.882 111.747 276.249 103.435L285.19 102.531ZM308.519 119.088C309.197 122.597 309.592 125.102 309.703 126.602C309.826 128.085 309.565 129.516 308.921 130.893C308.292 132.268 307.299 133.423 305.943 134.356C304.587 135.29 302.923 135.947 300.953 136.328C299.083 136.69 297.342 136.713 295.73 136.398C294.129 136.066 292.757 135.376 291.615 134.329C290.472 133.282 289.676 132.056 289.225 130.651C288.775 129.246 288.202 126.746 287.506 123.15L286.351 117.175C285.673 113.665 285.272 111.169 285.149 109.686C285.038 108.186 285.298 106.748 285.927 105.373C286.571 103.995 287.571 102.84 288.927 101.906C290.283 100.972 291.946 100.315 293.917 99.9342C295.786 99.5728 297.522 99.558 299.123 99.89C300.735 100.205 302.113 100.886 303.255 101.933C304.397 102.981 305.194 104.207 305.645 105.611C306.095 107.016 306.668 109.517 307.363 113.112L308.519 119.088ZM297.217 109.367C296.903 107.742 296.61 106.724 296.336 106.315C296.075 105.888 295.664 105.729 295.103 105.837C294.628 105.929 294.297 106.187 294.111 106.611C293.936 107.017 294.022 108.12 294.37 109.917L297.523 126.227C297.915 128.255 298.236 129.491 298.486 129.935C298.75 130.376 299.185 130.538 299.789 130.421C300.407 130.302 300.75 129.952 300.817 129.372C300.884 128.792 300.718 127.474 300.321 125.417L297.217 109.367ZM305.484 98.4165L311.809 96.7218C316.025 95.5919 318.92 94.9907 320.493 94.918C322.08 94.8416 323.52 95.3503 324.814 96.4443C326.119 97.5203 327.163 99.5227 327.948 102.452C328.665 105.126 328.814 107.012 328.395 108.11C327.977 109.208 326.816 110.11 324.912 110.817C326.798 110.782 328.144 111.051 328.95 111.624C329.755 112.196 330.312 112.775 330.621 113.36C330.939 113.926 331.47 115.596 332.213 118.37L334.642 127.432L326.343 129.656L323.284 118.237C322.791 116.398 322.337 115.299 321.922 114.94C321.522 114.577 320.706 114.56 319.475 114.89L323.627 130.384L314.691 132.778L305.484 98.4165ZM315.995 101.901L318.042 109.542C319.046 109.273 319.711 108.951 320.035 108.576C320.369 108.183 320.334 107.229 319.928 105.715L319.422 103.826C319.13 102.737 318.741 102.075 318.253 101.842C317.78 101.605 317.027 101.625 315.995 101.901ZM347.37 85.5761L347.579 102.487L359.402 119.057L350.362 122.162L341.877 108.952L346.829 123.375L338.08 126.379L326.527 92.7339L335.276 89.7295L339.764 102.801L339.162 88.395L347.37 85.5761ZM369.406 87.9706L361.48 91.2847L360.462 88.852C359.988 87.7168 359.584 87.0361 359.251 86.81C358.919 86.584 358.516 86.5698 358.043 86.7676C357.529 86.9823 357.225 87.3556 357.13 87.8876C357.048 88.4139 357.185 89.1028 357.541 89.9542C357.999 91.0489 358.492 91.8112 359.021 92.241C359.537 92.6764 360.621 93.0092 362.273 93.2393C367.014 93.9084 370.18 94.7598 371.772 95.7934C373.363 96.827 374.831 98.952 376.176 102.169C377.153 104.507 377.597 106.346 377.506 107.685C377.429 109.02 376.764 110.393 375.513 111.805C374.256 113.204 372.587 114.338 370.506 115.209C368.222 116.164 366.088 116.548 364.105 116.361C362.135 116.168 360.62 115.508 359.561 114.379C358.501 113.25 357.457 111.455 356.429 108.996L355.53 106.847L363.457 103.533L365.127 107.526C365.641 108.756 366.079 109.502 366.443 109.763C366.819 110.018 367.291 110.027 367.859 109.79C368.427 109.552 368.752 109.154 368.836 108.595C368.934 108.031 368.799 107.309 368.431 106.431C367.623 104.498 366.831 103.345 366.056 102.97C365.267 102.602 363.52 102.165 360.816 101.66C358.107 101.142 356.275 100.709 355.32 100.362C354.365 100.015 353.423 99.3765 352.495 98.4469C351.58 97.5117 350.758 96.1723 350.029 94.4289C348.978 91.9152 348.527 89.9444 348.676 88.5166C348.839 87.0831 349.501 85.7425 350.662 84.4948C351.818 83.2336 353.41 82.1793 355.437 81.3317C357.653 80.405 359.688 79.9749 361.542 80.0414C363.409 80.1022 364.822 80.5754 365.779 81.461C366.745 82.3275 367.773 84.0649 368.864 86.6732L369.406 87.9706ZM384.394 100.407L387.463 106.977L381.391 109.813L378.322 103.243L384.394 100.407Z" fill="white"/>
</g>
<defs>
<filter id="filter0_d_6001_733" x="71.1273" y="6.14404" width="213.892" height="82.8086" filterUnits="userSpaceOnUse" color-interpolation-filters="sRGB">
<feFlood flood-opacity="0" result="BackgroundImageFix"/>
<feColorMatrix in="SourceAlpha" type="matrix" values="0 0 0 0 0 0 0 0 0 0 0 0 0 0 0 0 0 0 127 0" result="hardAlpha"/>
<feOffset dx="4" dy="6"/>
<feComposite in2="hardAlpha" operator="out"/>
<feColorMatrix type="matrix" values="0 0 0 0 0 0 0 0 0 0 0 0 0 0 0 0 0 0 0.1 0"/>
<feBlend mode="normal" in2="BackgroundImageFix" result="effect1_dropShadow_6001_733"/>
<feBlend mode="normal" in="SourceGraphic" in2="effect1_dropShadow_6001_733" result="shape"/>
</filter>
<filter id="filter1_d_6001_733" x="124.628" y="76.9214" width="266.834" height="71.2095" filterUnits="userSpaceOnUse" color-interpolation-filters="sRGB">
<feFlood flood-opacity="0" result="BackgroundImageFix"/>
<feColorMatrix in="SourceAlpha" type="matrix" values="0 0 0 0 0 0 0 0 0 0 0 0 0 0 0 0 0 0 127 0" result="hardAlpha"/>
<feOffset dx="4" dy="6"/>
<feComposite in2="hardAlpha" operator="out"/>
<feColorMatrix type="matrix" values="0 0 0 0 0 0 0 0 0 0 0 0 0 0 0 0 0 0 0.1 0"/>
<feBlend mode="normal" in2="BackgroundImageFix" result="effect1_dropShadow_6001_733"/>
<feBlend mode="normal" in="SourceGraphic" in2="effect1_dropShadow_6001_733" result="shape"/>
</filter>
</defs>
</svg>
