<svg width="807" height="218" viewBox="0 0 807 218" fill="none" xmlns="http://www.w3.org/2000/svg">
    <g filter="url(#filter0_d_6179_82)">
        <path d="M72.1863 22.6865L67.0672 31.422L60.3268 27.472L39.8659 62.3873L28.5151 55.7355L48.9759 20.8203L42.2625 16.8861L47.3817 8.15058L72.1863 22.6865ZM98.8294 35.7593L76.3905 81.1048L64.599 75.2699L74.0236 56.2242L70.4945 54.4779L61.0699 73.5236L49.2784 67.6886L71.7173 22.343L83.5088 28.178L75.4841 44.3948L79.0131 46.1412L87.0379 29.9243L98.8294 35.7593ZM100.648 36.5885L120.903 45.0147L117.014 54.3631L108.906 50.9902L105.221 59.848L112.81 63.0048L109.113 71.8915L101.524 68.7347L97.2513 79.0063L106.167 82.7153L102.278 92.0636L81.2153 83.3013L100.648 36.5885ZM131.693 48.9713L144.211 52.9162C148.166 54.1623 151.059 55.4126 152.892 56.6673C154.744 57.9282 155.999 59.6998 156.656 61.9819C157.319 64.2442 156.993 67.4617 155.678 71.6344C154.789 74.4559 153.722 76.2822 152.477 77.1131C151.252 77.9503 149.244 78.2568 146.453 78.0327C149.148 79.6026 150.771 81.3153 151.322 83.1709C151.879 85.0067 151.663 87.4943 150.674 90.6337L149.265 95.1045C148.238 98.3632 147.099 100.658 145.85 101.99C144.62 103.328 143.099 104.029 141.289 104.091C139.478 104.154 136.049 103.39 131.002 101.8L116.487 97.2257L131.693 48.9713ZM141.639 61.1816L138.258 71.9114C138.801 72.0606 139.221 72.1821 139.519 72.2761C140.751 72.6643 141.63 72.6136 142.156 72.1239C142.688 71.6144 143.404 69.929 144.306 67.0677C144.782 65.5576 144.975 64.4607 144.884 63.7769C144.8 63.0733 144.555 62.57 144.148 62.267C143.761 61.9703 142.925 61.6085 141.639 61.1816ZM135.891 79.4223L131.636 92.924C133.424 93.4216 134.634 93.4972 135.267 93.1508C135.921 92.8106 136.554 91.6668 137.168 89.7196L138.586 85.219C139.237 83.1525 139.413 81.8318 139.114 81.2569C138.814 80.682 137.74 80.0705 135.891 79.4223ZM184.028 63.6688L179.705 114.637L166.599 111.535L168.054 102.535L163.462 101.448L160.608 110.118L147.349 106.98L165.508 59.2862L184.028 63.6688ZM169.755 93.7209C170.425 87.9922 171.405 80.9559 172.695 72.6119C169.171 81.7117 166.731 88.4026 165.376 92.6847L169.755 93.7209ZM189.876 64.9963L199.073 66.4597C205.204 67.4352 209.312 68.3315 211.397 69.1484C213.503 69.9686 215.079 71.4641 216.126 73.6347C217.197 75.7881 217.393 78.9942 216.715 83.2531C216.097 87.1417 215.197 89.6777 214.018 90.8612C212.838 92.0447 210.807 92.5443 207.925 92.36C210.396 93.407 211.988 94.5358 212.702 95.7465C213.417 96.9571 213.805 98.0315 213.867 98.9695C213.952 99.8902 213.674 102.367 213.033 106.399L210.936 119.577L198.869 117.657L201.511 101.054C201.936 98.3791 201.984 96.6885 201.653 95.9819C201.343 95.2786 200.293 94.7846 198.503 94.4998L194.919 117.029L181.926 114.962L189.876 64.9963ZM201.508 75.6124L199.741 86.7226C201.201 86.955 202.251 86.9216 202.889 86.6224C203.551 86.3058 204.058 85.0468 204.408 82.8453L204.845 80.0986C205.097 78.5144 204.974 77.4296 204.477 76.8441C204 76.2619 203.01 75.8514 201.508 75.6124ZM230.429 70.8307L252.667 72.2243L252.033 82.3295L242.926 81.7587L242.326 91.3337L250.435 91.8419L249.833 101.448L241.724 100.94L240.395 122.148L227.265 121.325L230.429 70.8307ZM282.594 101.503C282.638 106.586 282.545 110.191 282.313 112.318C282.102 114.424 281.369 116.358 280.114 118.119C278.879 119.88 277.193 121.238 275.055 122.194C272.918 123.151 270.422 123.641 267.568 123.666C264.86 123.69 262.418 123.273 260.244 122.417C258.091 121.54 256.35 120.222 255.022 118.463C253.694 116.703 252.896 114.783 252.628 112.702C252.36 110.621 252.203 106.976 252.157 101.768L252.082 93.1123C252.038 88.0292 252.121 84.4346 252.332 82.3285C252.563 80.2014 253.296 78.2574 254.531 76.4966C255.786 74.7356 257.483 73.377 259.62 72.4208C261.758 71.4646 264.254 70.9741 267.108 70.9492C269.816 70.9256 272.247 71.3523 274.401 72.2294C276.575 73.0854 278.326 74.3931 279.654 76.1525C280.982 77.9118 281.78 79.832 282.048 81.913C282.316 83.9941 282.473 87.6387 282.518 92.8469L282.594 101.503ZM269.293 84.9932C269.272 82.6391 269.124 81.1403 268.848 80.4969C268.592 79.8324 268.058 79.5037 267.245 79.5108C266.558 79.5168 266.029 79.7923 265.659 80.3372C265.309 80.8611 265.145 82.4251 265.168 85.0291L265.374 108.653C265.4 111.591 265.53 113.402 265.765 114.088C266.021 114.773 266.587 115.112 267.462 115.104C268.358 115.096 268.927 114.695 269.17 113.902C269.413 113.108 269.522 111.221 269.496 108.242L269.293 84.9932ZM282.987 71.832L292.259 70.966C298.44 70.3887 302.642 70.2368 304.865 70.5105C307.108 70.7822 309.007 71.8394 310.56 73.6821C312.132 75.5022 313.118 78.5591 313.519 82.8529C313.885 86.7733 313.644 89.4532 312.795 90.8926C311.946 92.332 310.103 93.3201 307.265 93.8572C309.918 94.258 311.741 94.9561 312.734 95.9514C313.727 96.9468 314.369 97.8911 314.662 98.7844C314.973 99.6551 315.319 102.123 315.699 106.189L316.94 119.475L304.774 120.611L303.21 103.871C302.958 101.175 302.585 99.5254 302.089 98.923C301.614 98.3187 300.474 98.1009 298.67 98.2694L300.791 120.983L287.692 122.207L282.987 71.832ZM296.891 79.2273L297.937 90.4285C299.41 90.291 300.418 89.998 300.962 89.5497C301.525 89.0786 301.703 87.7333 301.496 85.5138L301.237 82.7446C301.088 81.1474 300.7 80.127 300.072 79.6834C299.466 79.2379 298.405 79.0859 296.891 79.2273Z"
              fill="white"/>
    </g>
    <g filter="url(#filter1_d_6179_82)">
        <path
                d="M95.3049 120.356L107.359 125.549C111.166 127.189 113.918 128.726 115.614 130.16C117.329 131.602 118.398 133.492 118.821 135.828C119.251 138.146 118.601 141.314 116.87 145.332C115.699 148.049 114.453 149.758 113.13 150.458C111.827 151.167 109.798 151.269 107.045 150.763C109.566 152.598 111.007 154.466 111.367 156.368C111.736 158.251 111.269 160.704 109.966 163.727L108.112 168.032C106.76 171.17 105.395 173.338 104.017 174.536C102.657 175.743 101.074 176.285 99.2659 176.164C97.4579 176.043 94.124 174.936 89.2641 172.842L75.2872 166.821L95.3049 120.356ZM103.963 133.511L99.5116 143.843C100.036 144.046 100.442 144.21 100.729 144.333C101.916 144.844 102.795 144.883 103.368 144.449C103.948 143.996 104.832 142.392 106.019 139.637C106.646 138.183 106.949 137.111 106.928 136.422C106.916 135.713 106.722 135.187 106.348 134.845C105.993 134.51 105.198 134.066 103.963 133.511ZM96.3958 151.075L90.7948 164.076C92.5224 164.752 93.7189 164.95 94.3841 164.67C95.0685 164.398 95.8146 163.324 96.6224 161.449L98.4894 157.115C99.3467 155.125 99.6555 153.829 99.4159 153.227C99.1763 152.625 98.1696 151.907 96.3958 151.075ZM123.847 132.608L132.681 135.553C138.571 137.517 142.478 139.072 144.401 140.218C146.345 141.371 147.656 143.104 148.334 145.417C149.039 147.716 148.709 150.911 147.345 155.002C146.1 158.738 144.798 161.093 143.441 162.068C142.084 163.043 139.999 163.204 137.186 162.551C139.452 163.988 140.839 165.362 141.346 166.673C141.853 167.984 142.061 169.107 141.968 170.042C141.902 170.965 141.224 173.363 139.932 177.236L135.712 189.895L124.12 186.031L129.438 170.081C130.294 167.512 130.617 165.852 130.407 165.101C130.216 164.356 129.26 163.697 127.541 163.124L120.326 184.765L107.845 180.604L123.847 132.608ZM133.59 144.981L130.032 155.653C131.435 156.121 132.476 156.26 133.154 156.069C133.859 155.864 134.564 154.705 135.269 152.59L136.149 149.952C136.656 148.43 136.712 147.34 136.317 146.681C135.942 146.028 135.033 145.462 133.59 144.981ZM152.846 142.222L174.134 147.524L171.687 157.349L163.166 155.227L160.847 164.536L168.822 166.523L166.496 175.862L158.521 173.876L155.832 184.671L165.202 187.005L162.755 196.83L140.619 191.316L152.846 142.222ZM197.197 151.361L196.331 202.505L183.045 200.297L183.888 191.218L179.233 190.445L176.972 199.287L163.531 197.054L178.423 148.241L197.197 151.361ZM184.989 182.309C185.27 176.549 185.772 169.462 186.495 161.05C183.594 170.367 181.613 177.208 180.55 181.572L184.989 182.309ZM202.118 152.156L211.937 152.847C218.276 153.293 222.537 153.885 224.719 154.623C226.923 155.363 228.56 156.438 229.63 157.85C230.7 159.262 231.323 160.799 231.499 162.461C231.676 164.103 231.596 167.314 231.26 172.093L230.017 189.769C229.699 194.299 229.267 197.318 228.722 198.825C228.2 200.313 227.378 201.456 226.257 202.254C225.137 203.032 223.786 203.542 222.202 203.786C220.62 204.009 218.26 204.01 215.122 203.79L198.569 202.626L202.118 152.156ZM214.635 161.714L212.3 194.913C214.191 195.046 215.381 194.754 215.87 194.037C216.361 193.298 216.725 191.246 216.961 187.879L218.34 168.271C218.501 165.985 218.531 164.515 218.431 163.861C218.331 163.206 218.031 162.715 217.532 162.388C217.034 162.04 216.069 161.815 214.635 161.714ZM263.653 175.356L250.503 175.769L250.226 166.961C250.145 164.4 249.95 162.812 249.638 162.196C249.347 161.559 248.723 161.256 247.765 161.286C246.682 161.32 246.007 161.727 245.74 162.507C245.473 163.286 245.379 164.957 245.46 167.518L246.199 191.006C246.277 193.463 246.473 195.062 246.788 195.803C247.103 196.543 247.771 196.897 248.791 196.865C249.77 196.834 250.393 196.439 250.661 195.681C250.95 194.921 251.051 193.157 250.963 190.387L250.764 184.047L263.914 183.633L263.976 185.601C264.14 190.827 263.882 194.545 263.201 196.755C262.541 198.965 260.967 200.932 258.478 202.657C256.01 204.381 252.923 205.302 249.217 205.418C245.364 205.54 242.167 204.942 239.624 203.626C237.082 202.309 235.366 200.435 234.476 198.003C233.586 195.551 233.063 191.847 232.907 186.891L232.442 172.117C232.327 168.473 232.366 165.741 232.559 163.922C232.751 162.082 233.435 160.299 234.611 158.573C235.807 156.847 237.483 155.471 239.64 154.444C241.816 153.396 244.331 152.827 247.183 152.738C251.056 152.616 254.276 153.265 256.843 154.685C259.41 156.105 261.124 157.927 261.986 160.15C262.848 162.354 263.353 165.819 263.502 170.545L263.653 175.356ZM262.461 153.317L271.69 152.071C277.842 151.241 282.035 150.917 284.267 151.099C286.519 151.279 288.459 152.257 290.087 154.035C291.732 155.789 292.843 158.802 293.42 163.076C293.946 166.978 293.815 169.666 293.026 171.139C292.237 172.612 290.436 173.675 287.623 174.328C290.29 174.619 292.14 175.242 293.172 176.196C294.205 177.15 294.886 178.067 295.215 178.947C295.562 179.805 296.009 182.256 296.555 186.303L298.34 199.527L286.231 201.161L283.982 184.5C283.62 181.816 283.178 180.183 282.658 179.602C282.159 179.017 281.011 178.846 279.215 179.089L282.267 201.696L269.229 203.456L262.461 153.317ZM276.657 160.136L278.162 171.285C279.628 171.087 280.623 170.753 281.148 170.282C281.691 169.789 281.814 168.437 281.516 166.228L281.144 163.472C280.929 161.882 280.499 160.879 279.854 160.461C279.23 160.041 278.164 159.932 276.657 160.136ZM320.636 142.409L328.522 175.289C329.416 179.016 329.924 181.669 330.045 183.247C330.162 184.804 329.814 186.526 329.003 188.413C328.186 190.28 326.895 191.865 325.13 193.167C323.379 194.444 321.177 195.4 318.523 196.037C315.585 196.741 312.876 196.877 310.394 196.444C307.912 196.011 305.927 195.148 304.438 193.855C302.95 192.563 301.898 191.08 301.282 189.406C300.662 187.713 299.686 184.09 298.354 178.54L291.372 149.428L304.165 146.359L313.014 183.25C313.529 185.398 313.971 186.749 314.339 187.303C314.723 187.832 315.27 188.012 315.979 187.842C316.789 187.647 317.228 187.199 317.295 186.497C317.378 185.771 317.126 184.182 316.538 181.73L307.842 145.477L320.636 142.409ZM358.038 128.676L375.412 176.193L364.611 180.142L352.882 148.063L360.297 181.72L352.637 184.521L336.626 154.839L348.088 186.184L337.287 190.133L319.913 142.616L335.908 136.768C337.422 139.453 339.152 142.636 341.097 146.317L347.22 157.786L341.925 134.568L358.038 128.676ZM357.787 128.784L369.55 122.962C373.266 121.123 376.219 120.021 378.41 119.657C380.62 119.284 382.752 119.694 384.806 120.885C386.851 122.058 388.844 124.605 390.785 128.526C392.097 131.177 392.592 133.234 392.269 134.695C391.965 136.147 390.729 137.759 388.56 139.53C391.591 138.797 393.948  138.909 395.63 139.866C397.303 140.804 398.87 142.749 400.33 145.699L402.41 149.9C403.925 152.962 404.693 155.406 404.714 157.232C404.753 159.049 404.141 160.607 402.878 161.907C401.615 163.206 398.612 165.029 393.87 167.377L380.23 174.127L357.787 128.784ZM373.418 130.706L378.409 140.788C378.903 140.52 379.291 140.317 379.571 140.178C380.729 139.605 381.328 138.96 381.368 138.243C381.399 137.507 380.749 135.795 379.418 133.106C378.716 131.687 378.095 130.762 377.557 130.331C377.009 129.882 376.483 129.689 375.98 129.752C375.495 129.806 374.641 130.124 373.418 130.706ZM381.902 147.846L388.181 160.533C389.815 159.655 390.741 158.871 390.958 158.183C391.194 157.485 390.859 156.221 389.953 154.391L387.86 150.162C386.899 148.22 386.111 147.146 385.497 146.938C384.883 146.731 383.685 147.033 381.902 147.846ZM417.4 113.63L406.946 119.956L405.005 116.748C404.099 115.25 403.388 114.378 402.873 114.13C402.357 113.881 401.788 113.946 401.164 114.323C400.487 114.733 400.137 115.322 400.115 116.091C400.11 116.848 400.448 117.788 401.127 118.911C402.001 120.355 402.855 121.324 403.689 121.817C404.506 122.321 406.1 122.562 408.473 122.539C415.282 122.485 419.915 123.018 422.37 124.138C424.825 125.258 427.336 127.939 429.903 132.181C431.769 135.264 432.779 137.758 432.932 139.662C433.104 141.555 432.458 143.626 430.994 145.875C429.52 148.107 427.41 150.053 424.665 151.714C421.653 153.537 418.732 154.525 415.903 154.678C413.091 154.821 410.822 154.209 409.095 152.844C407.368 151.478 405.522 149.173 403.56 145.929L401.845 143.095L412.299 136.77L415.486 142.037C416.467 143.659 417.241 144.615 417.806 144.906C418.39 145.186 419.056 145.1 419.804 144.647C420.553 144.194 420.928 143.565 420.928 142.762C420.947 141.947 420.605 140.96 419.904 139.802C418.362 137.253 417.006 135.797 415.836 135.433C414.649 135.08 412.1 134.832 408.191 134.69C404.271 134.529 401.603 134.305 400.187 134.017C398.771 133.73 397.312 133.03 395.811 131.917C394.328 130.793 392.89 129.082 391.499 126.783C389.493 123.467 388.445 120.79 388.355 118.75C388.283 116.699 388.933 114.675 390.305 112.676C391.666 110.659 393.683 108.842 396.357 107.224C399.28 105.455 402.052 104.423 404.674 104.128C407.313 103.821 409.399 104.19 410.932 105.235C412.472 106.251 414.283 108.479 416.365 111.919L417.4 113.63ZM466.005 65.9639L486.995 112.368L472.895 120.816C467.614 114.921 461.939 108.023 455.87 100.123C457.597 104.019 461.092 112.223 466.354 124.735L452.334 133.134L421.291 92.7536L432.255 86.1846L442.483 100.64L452.415 114.543C448.297 106.737 443.391 96.1976 437.697 82.9243L449.439 75.8896C450.36 77.0621 453.63 81.5874 459.248 89.4657L470.359 105.213C464.699 94.3479 459.593 83.4545 455.041 72.5329L466.005 65.9639ZM493.062 52.8024L521.652 95.2174L509.497 101.019L504.988 93.0951L500.729 95.1277L503.942 103.671L491.645 109.54L475.887 61.0003L493.062 52.8024ZM500.786 85.1626C497.717 80.2794 494.068 74.1835 489.841 66.8749C492.802 76.1731 495.096 82.9152 496.725 87.1011L500.786 85.1626ZM537.085 51.4958L525.683 55.8881L524.335 52.3888C523.706 50.7557 523.159 49.7718 522.696 49.437C522.232 49.1022 521.66 49.0659 520.979 49.328C520.24 49.6126 519.793 50.1311 519.636 50.8835C519.499 51.6285 519.666 52.6133 520.138 53.8381C520.745 55.4128 521.415 56.5163 522.15 57.1486C522.865 57.7884 524.393 58.3052 526.732 58.6988C533.446 59.841 537.913 61.1788 540.133 62.7123C542.354 64.2458 544.355 67.3259 546.138 71.9528C547.433 75.3161 547.989 77.9483 547.807 79.8495C547.643 81.7432 546.643 83.6688 544.808 85.6262C542.964 87.5641 540.546 89.1098 537.552 90.2631C534.266 91.5287 531.218 91.9887 528.405 91.6432C525.613 91.2902 523.486 90.2899 522.025 88.6424C520.565 86.9948 519.153 84.402 517.79 80.8637L516.599 77.7727L528.001 73.3804L530.214 79.1251C530.895 80.8942 531.489 81.9716 531.995 82.3572C532.52 82.7354 533.191 82.7672 534.007 82.4526C534.824 82.1381 535.303 81.5852 535.445 80.7938C535.606 79.995 535.443 78.9638 534.956 77.7002C533.885 74.9201 532.806 73.2485 531.718 72.6851C530.611 72.1293 528.146 71.4381 524.322 70.6114C520.491 69.7654 517.904 69.0765 516.56 68.5447C515.217 68.0129 513.904 67.0675 512.621 65.7086C511.358 64.3421 510.244 62.405 509.278 59.8971C507.885 56.2811 507.323 53.4612 507.593 51.4373C507.882 49.4059 508.877 47.5268 510.578 45.7998C512.272 44.0533 514.577 42.6185 517.493 41.4951C520.681 40.2669 523.592 39.7374 526.224 39.9065C528.876 40.0681 530.865 40.7978 532.191 42.0954C533.529 43.3661 534.921 45.8774 536.366 49.6295L537.085 51.4958ZM578.096 23.6014L580.701 33.3857L573.151 35.3954L583.562 74.5022L570.848 77.8866L560.438 38.7799L552.918 40.7816L550.314 30.9973L578.096 23.6014ZM619.955 46.0054C620.85 51.0095 621.361 54.5794 621.488 56.7152C621.633 58.8269 621.234 60.8559 620.291 62.8022C619.368 64.7448 617.933 66.3663 615.986 67.6667C614.038 68.9671 611.66 69.8683 608.85 70.3705C606.184 70.847 603.707 70.8451 601.421 70.3649C599.151 69.8606 597.214 68.8523 595.61 67.34C594.007 65.8277 592.899 64.0681 592.286 62.0612C591.673 60.0544 590.909 56.4874 589.993 51.3603L588.47 42.8391C587.575 37.835 587.056 34.2772 586.911 32.1655C586.784 30.0297 587.181 27.9904 588.104 26.0478C589.047 24.1015 590.492 22.4782 592.439 21.1778C594.387 19.8774 596.765 18.9761 599.575 18.474C602.241 17.9975 604.709 18.0115 606.979 18.5158C609.266 18.996 611.211 19.9922 612.815 21.5045C614.418 23.0168 615.526 24.7764 616.139 26.7832C616.752 28.7901 617.516 32.3571 618.432 37.4842L619.955 46.0054ZM604.079 31.9543C603.665 29.6369 603.268 28.1841 602.888 27.596C602.524 26.9837 601.943 26.749 601.143 26.892C600.466 27.0129 599.991 27.373 599.717 27.9722C599.46 28.5472 599.561 30.1165 600.019 32.68L604.175 55.9365C604.692 58.8282 605.124 60.5923 605.47 61.2287C605.837 61.8615 606.451 62.101 607.313 61.947C608.195 61.7894 608.689 61.299 608.796 60.4757C608.903 59.6524 608.694 57.7744 608.17 54.8417L604.079 31.9543ZM656.714 42.5952C657.142 47.6605 657.321 51.2624 657.251 53.4009C657.199 55.5169 656.614 57.5003 655.496 59.3511C654.397 61.2001 652.819 62.6821 650.759 63.797C648.7 64.9119 646.249 65.5896 643.404 65.8299C640.706 66.058 638.24 65.8274 636.007 65.138C633.794 64.4261 631.958 63.2431 630.501 61.5891C629.044 59.9351 628.104 58.0807 627.679 56.0258C627.255 53.9709 626.823 50.3486 626.384 45.1587L625.655 36.5333C625.227 31.468 625.039 27.8773 625.09 25.7614C625.16 23.6229 625.744 21.6291 626.842 19.78C627.961 17.9292 629.55 16.4463 631.609 15.3314C633.669 14.2165 636.12 13.5389 638.964 13.2985C641.663 13.0704 644.119 13.3123 646.333 14.0242C648.566 14.7136 650.41 15.8853 651.867 17.5393C653.324 19.1933 654.265 21.0478 654.69 23.1027C655.114 25.1575 655.546 28.7799 655.985 33.9697L656.714 42.5952ZM642.204 27.1373C642.006 24.7915 641.744 23.3083 641.42 22.6875C641.115 22.0443 640.557 21.7569 639.748 21.8253C639.063 21.8832 638.556 22.1978 638.228 22.7692C637.919 23.318 637.874 24.8898 638.094 27.4848L640.083 51.0258C640.331 53.9529 640.598 55.7493 640.884 56.415C641.191 57.079 641.78 57.3742 642.652 57.3005C643.545 57.2251 644.082 56.7824 644.265 55.9725C644.447 55.1626 644.413 53.2733 644.162 50.3047L642.204 27.1373ZM689.051 12.8248L688.095 53.2822L696.093 53.4712L695.854 63.5933L674.704 63.0937L675.899 12.514L689.051 12.8248ZM731.081 46.0466C730.567 51.104 730.079 54.6771 729.616 56.766C729.175 58.8362 728.234 60.6777 726.793 62.2904C725.373 63.9053 723.548 65.0707 721.319 65.7867C719.089 66.5027 716.554 66.7166 713.715 66.4284C711.02 66.1549 708.64 65.4735 706.572 64.3841C704.528 63.2762 702.942 61.7751 701.815 59.8807C700.688 57.9864 700.106 55.9903 700.067 53.8924C700.029 51.7944 700.273 48.1546 700.799 42.9729L701.673 34.3609C702.186 29.3035 702.663 25.7397 703.104 23.6695C703.567 21.5806 704.509 19.7287 705.929 18.1139C707.37 16.5012 709.205 15.3368 711.435 14.6208C713.665 13.9048 716.199 13.6909 719.039 13.9791C721.733 14.2526 724.103 14.9434 726.147 16.0513C728.214 17.1406 729.811 18.6325 730.938 20.5268C732.065 22.4211 732.648 24.4172 732.686 26.5152C732.725 28.6131 732.481 32.2529 731.955 37.4346L731.081 46.0466ZM719.671 28.178C719.908 25.8359 719.925 24.3299 719.721 23.66C719.539 22.9715 719.045 22.5862 718.236 22.5042C717.552 22.4347 716.996 22.6505 716.569 23.1516C716.164 23.634 715.83 25.1706 715.567 27.7615L713.181 51.2657C712.884 54.1882 712.815 56.003 712.974 56.7101C713.153 57.4193 713.678 57.8181 714.548 57.9065C715.44 57.997 716.05 57.661 716.378 56.8986C716.707 56.1363 717.022 54.2731 717.323 51.3092L719.671 28.178ZM792.892 28.7069L776.487 76.9225L760.421 73.4482C760.597 65.5359 761.171 56.6225 762.143 46.7081C760.74 50.7316 757.681 59.1078 752.968 71.8366L736.993 68.3822L741.945 17.6897L754.437 20.3911L752.019 37.9325L749.763 54.8696C752.094 46.3575 755.719 35.3116 760.638 21.732L774.016 24.625C773.886 26.1104 773.179 31.6485 771.894 41.2393L769.237 60.3277C772.534 48.5289 776.255 37.0882 780.4 26.0054L792.892 28.7069ZM795.342 71.3568L792.362 81.2292L783.237 78.4745L786.218 68.6021L795.342 71.3568Z"
                fill="white"/>
    </g>
    <defs>
        <filter id="filter0_d_6179_82" x="21.8008" y="8.53882" width="299.141" height="121.504"
                filterUnits="userSpaceOnUse" color-interpolation-filters="sRGB">
            <feFlood flood-opacity="0" result="BackgroundImageFix"/>
            <feColorMatrix in="SourceAlpha" type="matrix" values="0 0 0 0 0 0 0 0 0 0 0 0 0 0 0 0 0 0 127 0"
                           result="hardAlpha"/>
            <feOffset dx="4" dy="6"/>
            <feComposite in2="hardAlpha" operator="out"/>
            <feColorMatrix type="matrix" values="0 0 0 0 0 0 0 0 0 0 0 0 0 0 0 0 0 0 0.1 0"/>
            <feBlend mode="normal" in2="BackgroundImageFix" result="effect1_dropShadow_6179_82"/>
            <feBlend mode="normal" in="SourceGraphic" in2="effect1_dropShadow_6179_82" result="shape"/>
        </filter>
        <filter id="filter1_d_6179_82" x="75.2891" y="11.7742" width="724.055" height="200.217"
                filterUnits="userSpaceOnUse" color-interpolation-filters="sRGB">
            <feFlood flood-opacity="0" result="BackgroundImageFix"/>
            <feColorMatrix in="SourceAlpha" type="matrix" values="0 0 0 0 0 0 0 0 0 0 0 0 0 0 0 0 0 0 127 0"
                           result="hardAlpha"/>
            <feOffset dx="4" dy="6"/>
            <feComposite in2="hardAlpha" operator="out"/>
            <feColorMatrix type="matrix" values="0 0 0 0 0 0 0 0 0 0 0 0 0 0 0 0 0 0 0.1 0"/>
            <feBlend mode="normal" in2="BackgroundImageFix" result="effect1_dropShadow_6179_82"/>
            <feBlend mode="normal" in="SourceGraphic" in2="effect1_dropShadow_6179_82" result="shape"/>
        </filter>
    </defs>
</svg>
