<svg width="428" height="125" viewBox="0 0 428 125" fill="none" xmlns="http://www.w3.org/2000/svg">
<path d="M160.883 11.7959L161.085 47.6056L149.611 48.9963C147.907 43.699 146.236 37.6451 144.599 30.8346C144.593 33.8307 144.49 40.0996 144.289 49.6414L132.881 51.0241L124.499 16.2059L133.421 15.1246L135.853 27.3352L138.253 39.107C137.842 32.9152 137.707 24.7421 137.849 14.5879L147.403 13.4298C147.659 14.4464 148.464 18.2886 149.818 24.9564L152.448 38.2497C151.922 29.6519 151.76 21.1944 151.962 12.8772L160.883 11.7959ZM164.492 11.4967L179.878 10.4104L180.38 17.5119L174.221 17.9467L174.696 24.6756L180.46 24.2686L180.937 31.0194L175.172 31.4263L175.723 39.2292L182.496 38.751L182.997 45.8525L166.997 46.9821L164.492 11.4967ZM221.786 9.55969L222.162 45.1314L214.077 45.217L213.823 21.2022L210.847 45.2512L205.113 45.3119L201.459 21.8825L201.707 45.348L193.621 45.4335L193.245 9.86181L205.219 9.73506C205.594 11.8699 205.994 14.3853 206.42 17.2814L207.79 26.3201L209.723 9.68738L221.786 9.55969ZM243.135 10.2141L247.124 45.9578L237.661 45.6112L237.434 39.2045L234.118 39.0831L233.335 45.4527L223.761 45.1021L229.762 9.72429L243.135 10.2141ZM237.401 32.893C237.08 28.8502 236.793 23.8632 236.542 17.9321C235.356 24.6901 234.588 29.6384 234.239 32.7771L237.401 32.893ZM251.369 10.6132L258.271 11.1325C262.726 11.4677 265.719 11.8987 267.252 12.4253C268.798 12.953 269.946 13.715 270.693 14.7114C271.441 15.7078 271.874 16.7907 271.991 17.9601C272.11 19.1148 272.043 21.372 271.79 24.7316L270.856 37.155C270.616 40.3394 270.302 42.4605 269.914 43.5183C269.542 44.5627 268.96 45.3636 268.169 45.921C267.379 46.4638 266.427 46.8182 265.312 46.9841C264.199 47.1354 262.54 47.128 260.334 46.9621L248.7 46.0866L251.369 10.6132ZM260.136 17.3765L258.381 40.7114C259.71 40.8115 260.548 40.6101 260.894 40.1073C261.241 39.5899 261.504 38.1481 261.682 35.7817L262.719 21.9999C262.84 20.3931 262.866 19.3594 262.798 18.8989C262.73 18.4384 262.521 18.0921 262.171 17.8602C261.823 17.6136 261.144 17.4524 260.136 17.3765ZM277.438 12.6644L292.767 14.3742L291.978 21.4495L285.842 20.7651L285.094 27.4691L290.838 28.1097L290.087 34.8356L284.344 34.195L283.477 41.969L290.225 42.7217L289.436 49.7969L273.494 48.0189L277.438 12.6644Z" fill="white"/>
<path d="M91.1735 84.5019L100.222 82.6881C103.08 82.1152 105.286 81.9046 106.841 82.0561C108.409 82.2049 109.783 82.8708 110.961 84.0538C112.137 85.2226 113.027 87.315 113.631 90.3312C114.04 92.3707 114.002 93.8574 113.517 94.7912C113.046 95.7222 111.913 96.5917 110.118 97.3998C112.31 97.4534 113.89 97.9583 114.859 98.9146C115.824 99.8564 116.535 101.462 116.989 103.731L117.637 106.963C118.109 109.318 118.186 111.118 117.868 112.362C117.564 113.603 116.865 114.55 115.771 115.203C114.676 115.856 112.305 116.547 108.657 117.279L98.1651 119.382L91.1735 84.5019ZM101.44 88.6515L102.994 96.4074C103.379 96.3153 103.679 96.2477 103.895 96.2045C104.785 96.026 105.31 95.6968 105.467 95.217C105.622 94.7228 105.492 93.4416 105.078 91.3734C104.859 90.2818 104.606 89.5407 104.318 89.1502C104.028 88.7452 103.706 88.5184 103.353 88.4697C103.014 88.4182 102.376 88.4788 101.44 88.6515ZM104.083 101.837L106.039 111.596C107.309 111.297 108.08 110.933 108.352 110.505C108.64 110.074 108.642 109.154 108.36 107.747L107.708 104.494C107.408 103 107.069 102.127 106.69 101.874C106.31 101.622 105.441 101.609 104.083 101.837ZM117.128 79.4187L132.371 77.0614L133.459 84.0969L127.358 85.0405L128.388 91.7069L134.099 90.8237L135.134 97.5118L129.423 98.395L130.618 106.125L137.328 105.088L138.416 112.123L122.564 114.575L117.128 79.4187ZM155.478 74.2971L156.299 81.3687L150.843 82.0024L154.125 110.267L144.937 111.334L141.654 83.0696L136.219 83.7008L135.398 76.6292L155.478 74.2971ZM177.505 72.5509L178.056 79.6487L172.58 80.0739L174.782 108.443L165.559 109.159L163.357 80.79L157.902 81.2135L157.351 74.1157L177.505 72.5509ZM180.841 72.3775L196.251 71.7171L196.556 78.8297L190.387 79.094L190.676 85.8335L196.45 85.586L196.739 92.3474L190.966 92.5948L191.301 100.41L198.084 100.119L198.389 107.232L182.364 107.919L180.841 72.3775ZM200.903 71.6142L207.451 71.584C211.816 71.5638 214.769 71.7186 216.308 72.0484C217.863 72.3781 219.126 73.2365 220.1 74.6236C221.087 75.996 221.588 78.1983 221.602 81.2305C221.615 83.9991 221.279 85.861 220.595 86.8163C219.911 87.7716 218.559 88.3492 216.538 88.549C218.372 88.9946 219.605 89.5968 220.238 90.3556C220.872 91.1144 221.263 91.8157 221.413 92.4596C221.577 93.0887 221.665 94.8388 221.679 97.7098L221.722 107.092L213.131 107.132L213.076 95.3106C213.067 93.4064 212.908 92.2279 212.598 91.7752C212.303 91.3225 211.518 91.0991 210.244 91.1049L210.318 107.145L201.068 107.188L200.903 71.6142ZM210.182 77.6578L210.218 85.5679C211.258 85.5631 211.983 85.4206 212.392 85.1404C212.815 84.8454 213.023 83.9143 213.016 82.3469L213.007 80.3914C213.002 79.2635 212.793 78.5247 212.382 78.175C211.984 77.8253 211.251 77.6529 210.182 77.6578ZM255.127 93.7114C254.947 97.2811 254.731 99.8076 254.481 101.291C254.245 102.76 253.65 104.087 252.696 105.271C251.756 106.456 250.516 107.339 248.976 107.921C247.436 108.504 245.663 108.744 243.659 108.643C241.757 108.547 240.061 108.153 238.571 107.462C237.095 106.757 235.928 105.759 235.07 104.469C234.211 103.179 233.73 101.798 233.629 100.326C233.527 98.8546 233.568 96.2899 233.753 92.6325L234.06 86.5538C234.24 82.9841 234.448 80.4645 234.683 78.995C234.934 77.5117 235.53 76.1777 236.469 74.9931C237.424 73.8092 238.671 72.9262 240.211 72.3439C241.751 71.7616 243.524 71.5211 245.528 71.6222C247.43 71.7182 249.118 72.1188 250.593 72.824C252.084 73.5152 253.258 74.5059 254.117 75.7959C254.976 77.086 255.457 78.4669 255.558 79.9388C255.66 81.4106 255.619 83.9753 255.434 87.6327L255.127 93.7114ZM246.478 81.5705C246.561 79.9173 246.519 78.8591 246.352 78.396C246.2 77.919 245.839 77.6661 245.268 77.6373C244.785 77.6129 244.403 77.7843 244.12 78.1514C243.853 78.5046 243.673 79.5955 243.581 81.4242L242.744 98.0144C242.639 100.077 242.656 101.354 242.792 101.845C242.943 102.337 243.326 102.598 243.941 102.629C244.57 102.661 244.986 102.403 245.19 101.856C245.393 101.309 245.548 99.9894 245.654 97.8973L246.478 81.5705ZM281.622 75.118L278.414 110.547L270.339 109.816L267.005 93.2759L265.547 109.382L257.844 108.685L261.051 73.2558L268.754 73.9531L272.474 90.3735L273.919 74.4207L281.622 75.118ZM286.495 75.6394L301.803 77.534L300.929 84.5993L294.801 83.8409L293.973 90.5354L299.708 91.2452L298.877 97.9616L293.142 97.2517L292.181 105.015L298.919 105.849L298.044 112.914L282.126 110.944L286.495 75.6394ZM323.902 91.8313L315.414 90.5002L315.823 87.8953C316.013 86.6797 316.026 85.8885 315.861 85.5216C315.696 85.1547 315.361 84.9315 314.854 84.8521C314.304 84.7659 313.85 84.9244 313.49 85.3276C313.144 85.7331 312.9 86.3917 312.757 87.3034C312.573 88.4756 312.594 89.3833 312.82 90.0266C313.03 90.6676 313.779 91.519 315.066 92.5807C318.753 95.6352 321.004 98.0195 321.817 99.7336C322.631 101.448 322.768 104.027 322.228 107.471C321.835 109.975 321.249 111.773 320.47 112.867C319.705 113.963 318.419 114.784 316.613 115.332C314.81 115.864 312.794 115.956 310.565 115.606C308.119 115.223 306.101 114.432 304.51 113.233C302.933 112.037 301.989 110.681 301.678 109.164C301.367 107.647 301.419 105.572 301.832 102.938L302.192 100.637L310.68 101.968L310.009 106.245C309.803 107.561 309.786 108.426 309.958 108.839C310.145 109.254 310.543 109.509 311.151 109.604C311.758 109.699 312.244 109.531 312.609 109.099C312.988 108.669 313.251 107.984 313.398 107.043C313.723 104.973 313.653 103.576 313.188 102.851C312.709 102.123 311.451 100.836 309.412 98.9893C307.376 97.1279 306.043 95.7993 305.411 95.0034C304.78 94.2075 304.312 93.1704 304.009 91.8921C303.719 90.6161 303.721 89.0446 304.014 87.1778C304.436 84.4861 305.085 82.5713 305.96 81.4334C306.85 80.2978 308.116 79.5029 309.759 79.0488C311.404 78.5803 313.312 78.5162 315.483 78.8566C317.856 79.2288 319.815 79.9289 321.359 80.9569C322.917 81.9871 323.873 83.1303 324.224 84.3865C324.592 85.6305 324.558 87.649 324.12 90.442L323.902 91.8313ZM330.535 110.81L329.256 117.947L322.659 116.764L323.939 109.627L330.535 110.81Z" fill="white"/>
</svg>
