<svg width="92" height="92" viewBox="0 0 92 92" fill="none" xmlns="http://www.w3.org/2000/svg">
<rect width="92" height="92" rx="46" fill="#FFD700"/>
<path d="M46.8941 20.9493L46.9155 20.9656L46.9175 20.9666L47.0038 21.0285L47.0434 21.0549C47.1102 21.1031 47.1922 21.1638 47.2882 21.2367C47.5332 21.423 47.8808 21.6975 48.2967 22.0513C49.1285 22.7588 50.2406 23.7907 51.3517 25.088C53.5608 27.6674 55.8426 31.3807 55.8428 35.7348C55.8427 37.764 55.3478 39.6539 54.5915 41.3593L53.8938 42.9305L54.1223 42.8492L55.5117 42.3516C57.3765 41.6868 59.2763 41.3751 60.9514 41.2456C62.6521 41.1142 64.1643 41.17 65.2526 41.2577C65.7974 41.3017 66.2395 41.3523 66.5444 41.3938C66.6941 41.4142 66.8133 41.4348 66.8999 41.4487L66.97 41.4578H66.973L66.9801 41.4599C66.9814 41.4601 66.9825 41.4607 66.9832 41.4609H66.9862C66.9874 41.4611 66.9892 41.4617 66.9903 41.4619C66.9933 41.4625 66.9956 41.4627 66.9964 41.4629C66.9969 41.463 66.9963 41.4636 66.9974 41.4639C66.9995 41.4645 67.0046 41.4649 67.0096 41.466L67.0289 41.469C67.0335 41.4691 67.0376 41.4691 67.0401 41.469L67.4971 41.5523L67.5834 42.0256V42.0276L67.5895 42.0581L67.5956 42.0906L67.6048 42.1464L67.6068 42.1627L67.6098 42.1688C67.623 42.2519 67.6403 42.3672 67.6596 42.509C67.7012 42.8145 67.7538 43.2562 67.7977 43.8009C67.8855 44.8895 67.9424 46.4037 67.8109 48.1051C67.5489 51.4913 66.5367 55.7331 63.458 58.8118C60.379 61.8903 56.1374 62.8989 52.7512 63.1607C51.0495 63.2922 49.5356 63.2363 48.447 63.1485C48.2884 63.1357 48.1383 63.1226 47.9981 63.1089L47.1887 63.0297V71.3761H45.8155V63.0297L45.0061 63.1089C44.8655 63.1227 44.7136 63.1357 44.5541 63.1485C43.4658 63.2363 41.9537 63.292 40.253 63.1607C36.867 62.8989 32.6252 61.8898 29.5462 58.8118C26.4675 55.7331 25.4553 51.4913 25.1933 48.1051C25.0618 46.4037 25.1177 44.8895 25.2055 43.8009C25.2494 43.2562 25.303 42.8145 25.3446 42.509C25.3651 42.3583 25.3829 42.2376 25.3964 42.1535L25.3974 42.1454V42.1393L25.4055 42.0895L25.5 41.5523L25.9753 41.47L25.9855 41.468L26.018 41.4578L26.0352 41.4548L26.089 41.4497H26.0921L26.1002 41.4487C26.1867 41.4348 26.3067 41.4143 26.4567 41.3938C26.7614 41.3523 27.203 41.3017 27.7476 41.2577C28.8362 41.1699 30.351 41.1141 32.0528 41.2456C33.7269 41.375 35.6257 41.6876 37.4894 42.3516L38.8758 42.8462L39.1043 42.9274L38.4065 41.3593C37.6497 39.6541 37.1554 37.7639 37.1553 35.7348C37.1555 31.3808 39.442 27.6678 41.6515 25.088C42.7614 23.7922 43.8702 22.7595 44.7014 22.0523L44.7024 22.0533L45.6998 21.2459L46.3843 21.7242L45.7983 21.1717L45.8308 21.1484L45.8866 21.1088L45.8876 21.1067L45.9618 21.0519L45.9608 21.0509L45.9963 21.0275L46.0024 21.0255L46.0105 21.0184L46.0552 20.9828L46.0603 20.9808L46.0674 20.9777L46.0735 20.9727C46.0774 20.9699 46.0813 20.9675 46.0837 20.9656C46.0857 20.9639 46.0876 20.9625 46.0887 20.9615L46.0918 20.9595L46.0958 20.9544L46.1019 20.9524L46.109 20.9483C46.1117 20.9464 46.1168 20.9413 46.1222 20.9371L46.1233 20.9381L46.1314 20.929L46.495 20.6771L46.8941 20.9493ZM31.9482 42.6136C30.3343 42.4889 28.8929 42.5423 27.8583 42.6258C27.7117 42.6376 27.5728 42.6563 27.4591 42.6695C27.3986 42.6765 27.3428 42.6823 27.2905 42.6877L26.7807 42.7406L26.6974 42.7487L26.6883 42.833L26.6172 43.481C26.6033 43.6084 26.5891 43.7548 26.5765 43.9106C26.4931 44.9451 26.4397 46.3838 26.5644 47.9974C26.8156 51.2463 27.776 55.0964 30.5172 57.8378C33.2586 60.5791 37.1086 61.5425 40.3576 61.7937C41.3475 61.8702 42.2723 61.879 43.0764 61.8556L44.7816 61.8049L36.1854 53.2086L37.1583 52.2367L44.3408 59.4192C44.3409 59.4208 44.3408 59.4225 44.3408 59.4242L44.3459 59.5319L44.4455 59.5238L44.6313 59.7096L44.8223 59.5136L45.8155 59.4933V58.242C45.8131 57.6692 45.7911 57.0536 45.7414 56.4099C45.5124 53.4486 44.6939 49.9962 42.4833 47.3332C42.2656 47.071 42.0341 46.8151 41.7886 46.5695C39.0475 43.8284 35.197 42.865 31.9482 42.6136ZM65.1429 42.6258C64.1083 42.5424 62.6696 42.4889 61.056 42.6136C58.0099 42.8491 54.4364 43.709 51.7427 46.0738L51.7397 46.0759L51.2176 46.5664L51.2156 46.5695C50.9706 46.8145 50.7377 47.0679 50.5199 47.3302C48.3082 49.9935 47.4918 53.448 47.2628 56.4099C47.213 57.0547 47.1921 57.6707 47.1887 58.242V59.1388L47.2394 60.8431L47.409 60.6724L55.8438 52.2377L56.8148 53.2086L48.3922 61.6342L48.2226 61.8049L49.9268 61.8556C50.7308 61.879 51.6568 61.8702 52.6466 61.7937C55.8954 61.5423 59.7459 60.5788 62.487 57.8378C65.2277 55.0964 66.1886 51.246 66.4398 47.9974C66.5645 46.3838 66.5111 44.9451 66.4276 43.9106C66.4159 43.7655 66.4004 43.6295 66.387 43.5145C66.3798 43.4525 66.3743 43.3967 66.3687 43.3428L66.3129 42.833L66.3037 42.7487L66.2205 42.7406L65.7116 42.6877L65.54 42.6664C65.4252 42.653 65.2876 42.6375 65.1429 42.6258ZM46.0349 22.7409C45.994 22.7741 45.9499 22.808 45.8998 22.8475L45.8988 22.8485L45.5931 23.0953L45.5911 23.0974C44.7991 23.7711 43.7479 24.7561 42.6955 25.9848C40.5763 28.4592 38.5287 31.8578 38.5284 35.7348V35.7378L38.5538 36.4518V36.4549C38.786 40.0325 40.7081 43.1663 42.6955 45.4868C42.8291 45.6428 42.9626 45.795 43.0957 45.9428C43.1472 46.0001 43.1988 46.0575 43.2501 46.1135C43.7065 46.6111 44.1546 47.0594 44.5714 47.4531L45.6368 48.4636L45.8125 48.6292V36.4711H47.1887V48.6292L47.3644 48.4636L48.4298 47.4561C48.9895 46.9275 49.6422 46.2964 50.2802 45.5559L50.6946 45.0765L50.7647 44.9963L50.7261 44.9648C52.5531 42.7052 54.2318 39.7749 54.4473 36.4549V36.4518L54.4717 35.7378L54.4727 35.7348C54.4725 32.1009 52.6751 28.8855 50.7048 26.4591L50.3087 25.9848L49.9146 25.5349C48.9967 24.5139 48.102 23.6869 47.409 23.0974C47.3001 23.0047 47.1934 22.9216 47.1064 22.8536C47.0515 22.8107 47.0057 22.7753 46.9632 22.7409L46.564 22.4169L46.499 22.3631L46.0349 22.7409Z" fill="#0044CC"/>
</svg>
