<svg width="38" height="38" viewBox="0 0 38 38" fill="none" xmlns="http://www.w3.org/2000/svg">
<rect x="0.5" y="0.5" width="37" height="37" rx="18.5" fill="white"/>
<rect x="0.5" y="0.5" width="37" height="37" rx="18.5" stroke="#0E0E0E"/>
<path d="M23.0544 11.5031L21.1092 11.5C18.9239 11.5 17.5116 12.9489 17.5116 15.1915V16.8936H15.5559C15.5157 16.8936 15.4759 16.9015 15.4388 16.9169C15.4017 16.9322 15.3679 16.9548 15.3395 16.9832C15.3111 17.0116 15.2886 17.0454 15.2732 17.0825C15.2579 17.1196 15.25 17.1594 15.25 17.1996V19.6656C15.25 19.7467 15.2822 19.8245 15.3396 19.8819C15.3969 19.9393 15.4747 19.9715 15.5559 19.9715H17.5116V26.1941C17.5116 26.2753 17.5439 26.3531 17.6012 26.4104C17.6586 26.4678 17.7364 26.5 17.8175 26.5H20.3692C20.4503 26.5 20.5281 26.4678 20.5855 26.4104C20.6429 26.3531 20.6751 26.2753 20.6751 26.1941V19.9715H22.9618C23.043 19.9715 23.1208 19.9393 23.1781 19.8819C23.2355 19.8245 23.2677 19.7467 23.2677 19.6656L23.2686 17.1996C23.2685 17.1184 23.2363 17.0406 23.1789 16.9833C23.1215 16.9259 23.0438 16.8936 22.9626 16.8936H20.6751V15.4507C20.6751 14.7572 20.8403 14.4052 21.7437 14.4052L23.0541 14.4047C23.1352 14.4047 23.2129 14.3724 23.2702 14.3151C23.3276 14.2577 23.3598 14.1799 23.3598 14.0989V11.809C23.3598 11.7279 23.3276 11.6502 23.2703 11.5929C23.2131 11.5355 23.1354 11.5032 23.0544 11.5031Z" fill="#0E0E0E"/>
</svg>
