<svg width="24" height="24" viewBox="0 0 24 24" fill="none" xmlns="http://www.w3.org/2000/svg">
<rect x="0.5" y="0.5" width="23" height="23" rx="11.5" fill="white"/>
<rect x="0.5" y="0.5" width="23" height="23" rx="11.5" stroke="#0E0E0E"/>
<path d="M17.8015 9.59672C17.7741 8.9768 17.6739 8.55066 17.5303 8.18135C17.3821 7.78937 17.1542 7.43843 16.8557 7.14668C16.5639 6.8504 16.2106 6.62017 15.8232 6.47435C15.4518 6.33077 15.0278 6.23049 14.4079 6.20318C13.7834 6.17351 13.5851 6.16667 12.0012 6.16667C10.4172 6.16667 10.2189 6.17351 9.5967 6.20086C8.97681 6.22821 8.55064 6.32853 8.18145 6.47203C7.78935 6.62017 7.43842 6.84808 7.14667 7.14668C6.85039 7.43841 6.62027 7.79167 6.47433 8.17912C6.33075 8.55066 6.23049 8.97452 6.20317 9.59439C6.17352 10.2189 6.16666 10.4172 6.16666 12.0012C6.16666 13.5851 6.17352 13.7834 6.20084 14.4056C6.22819 15.0255 6.32852 15.4517 6.47212 15.821C6.62027 16.213 6.85039 16.5639 7.14667 16.8556C7.43842 17.1519 7.79168 17.3822 8.17912 17.528C8.55062 17.6716 8.97448 17.7718 9.59449 17.7992C10.2166 17.8266 10.415 17.8333 11.9989 17.8333C13.5829 17.8333 13.7812 17.8266 14.4034 17.7992C15.0233 17.7718 15.4495 17.6716 15.8186 17.528C16.2064 17.3781 16.5586 17.1488 16.8525 16.8548C17.1465 16.5609 17.3758 16.2087 17.5258 15.821C17.6693 15.4495 17.7696 15.0255 17.7969 14.4056C17.8243 13.7834 17.8311 13.5851 17.8311 12.0012C17.8311 10.4172 17.8288 10.2189 17.8015 9.59672ZM16.7509 14.36C16.7257 14.9298 16.63 15.2375 16.5503 15.4426C16.3542 15.9508 15.9509 16.3542 15.4426 16.5503C15.2375 16.6301 14.9276 16.7258 14.36 16.7508C13.7447 16.7782 13.5601 16.785 12.0035 16.785C10.4468 16.785 10.26 16.7782 9.64682 16.7508C9.07704 16.7258 8.76937 16.6301 8.56425 16.5503C8.31134 16.4568 8.08112 16.3087 7.89424 16.1149C7.70051 15.9258 7.55237 15.6979 7.45888 15.4449C7.37911 15.2398 7.28342 14.9298 7.25841 14.3624C7.23097 13.747 7.22423 13.5624 7.22423 12.0057C7.22423 10.4491 7.23097 10.2622 7.25841 9.64916C7.28342 9.07938 7.37911 8.77171 7.45888 8.56659C7.55237 8.31356 7.70051 8.08339 7.89656 7.89646C8.08564 7.70274 8.31355 7.5546 8.56657 7.46122C8.77169 7.38145 9.08169 7.28573 9.64914 7.26064C10.2645 7.23329 10.4492 7.22645 12.0057 7.22645C13.5647 7.22645 13.7492 7.23329 14.3623 7.26064C14.9321 7.28576 15.2398 7.38143 15.4449 7.4612C15.6978 7.5546 15.9281 7.70274 16.1149 7.89646C16.3087 8.08565 16.4568 8.31356 16.5503 8.56659C16.63 8.77171 16.7257 9.08159 16.7508 9.64916C16.7782 10.2645 16.785 10.4491 16.785 12.0057C16.785 13.5624 16.7782 13.7447 16.7509 14.36Z" fill="#0E0E0E"/>
<path d="M12.0012 9.00414C10.3466 9.00414 9.00418 10.3465 9.00418 12.0012C9.00418 13.6558 10.3466 14.9982 12.0012 14.9982C13.6558 14.9982 14.9982 13.6558 14.9982 12.0012C14.9982 10.3465 13.6558 9.00414 12.0012 9.00414ZM12.0012 13.9452C10.9278 13.9452 10.0571 13.0747 10.0571 12.0012C10.0571 10.9277 10.9278 10.0571 12.0012 10.0571C13.0747 10.0571 13.9453 10.9277 13.9453 12.0012C13.9453 13.0747 13.0747 13.9452 12.0012 13.9452ZM15.8165 8.88563C15.8165 9.27203 15.5031 9.58531 15.1167 9.58531C14.7303 9.58531 14.417 9.27203 14.417 8.88563C14.417 8.49918 14.7303 8.18599 15.1167 8.18599C15.5031 8.18599 15.8165 8.49916 15.8165 8.88563Z" fill="#0E0E0E"/>
</svg>
