<svg width="24" height="24" viewBox="0 0 24 24" fill="none" xmlns="http://www.w3.org/2000/svg">
<rect x="0.5" y="0.5" width="23" height="23" rx="11.5" fill="white"/>
<rect x="0.5" y="0.5" width="23" height="23" rx="11.5" stroke="#0E0E0E"/>
<path d="M17.8304 17.8333L17.8333 17.8329V13.5541C17.8333 11.4609 17.3827 9.84848 14.9356 9.84848C13.7592 9.84848 12.9698 10.494 12.6475 11.106H12.6135V10.0439H10.2933V17.8329H12.7092V13.976C12.7092 12.9606 12.9017 11.9786 14.1593 11.9786C15.3984 11.9786 15.4169 13.1375 15.4169 14.0412V17.8333H17.8304ZM6.35916 10.0444H8.77805V17.8333H6.35916V10.0444ZM7.56763 6.16667C6.79423 6.16667 6.16666 6.79424 6.16666 7.56764C6.16666 8.34105 6.79423 8.98174 7.56763 8.98174C8.34103 8.98174 8.9686 8.34105 8.9686 7.56764C8.96834 7.19616 8.82066 6.83997 8.55798 6.57729C8.2953 6.31461 7.93911 6.16693 7.56763 6.16667Z" fill="#0E0E0E"/>
</svg>
