<svg width="21" height="10" viewBox="0 0 21 10" fill="none" xmlns="http://www.w3.org/2000/svg">
<path d="M0.464731 2.93933C0.169383 3.20659 -0.000955582 3.57582 -0.000720739 3.97388C-0.00095582 4.37147 0.169383 4.7653 0.46473 5.06065C0.760077 5.356 1.15391 5.52634 1.5515 5.5261C1.94956 5.52634 2.31879 5.356 2.58605 5.06065C2.58605 5.06065 2.58605 5.06065 2.58605 5.06065C2.78963 4.83469 2.95757 4.6631 3.16997 4.47989C6.24642 0.803517 13.4978 10.9371 19.4887 5.54832C19.7739 5.34609 20.0463 5.13427 20.3291 4.89717C20.4256 4.81548 20.4864 4.69571 20.5004 4.56708C20.5143 4.43829 20.4802 4.31119 20.4035 4.21085C20.3268 4.11052 20.213 4.04435 20.0851 4.024C19.9573 4.00382 19.8258 4.03114 19.7217 4.10281C19.7217 4.10281 19.7217 4.10281 19.7217 4.10281C19.4396 4.29738 19.1713 4.46537 18.8963 4.62147C16.3408 6.21298 13.4976 5.70695 11.0988 4.01829C9.85144 3.2357 8.65661 2.256 7.01568 1.55235C5.42681 0.754132 2.87527 1.00135 1.41788 2.169C1.05364 2.42628 0.779148 2.65041 0.464731 2.93933Z" fill="#FAFAE3"/>
<circle cx="16.0254" cy="1.5" r="1.5" fill="#FAFAE3"/>
<circle cx="6.52539" cy="8" r="2" fill="#FAFAE3"/>
</svg>
