<svg width="92" height="92" viewBox="0 0 92 92" fill="none" xmlns="http://www.w3.org/2000/svg">
<rect width="92" height="92" rx="46" fill="#FFD700"/>
<path d="M54.9791 68.6718C60.2246 68.6718 64.4809 64.4293 64.4995 59.1889L64.465 58.3642C64.3217 56.6464 63.7123 54.9963 62.7009 53.5928L62.4937 53.3155L53.3581 41.5586C52.3214 40.2245 51.7595 38.5814 51.7595 36.8918V25.1705H53.7512L53.8913 25.1573C54.1728 25.0975 54.3839 24.8466 54.3839 24.5469C54.3836 24.2482 54.1726 24.0004 53.8903 23.9406L53.7461 23.9233H40.0027C39.6583 23.9233 39.3794 24.2025 39.3791 24.5469C39.3791 24.8915 39.658 25.1705 40.0027 25.1705H41.2448V36.8918C41.2448 38.5795 40.6856 40.221 39.6492 41.5556L30.5116 53.3155C29.4471 54.6855 28.7815 56.3133 28.5769 58.0219L28.5423 58.3642L28.5078 59.1543C28.5078 64.411 32.7686 68.6718 38.0252 68.6718H54.9791ZM32.2788 53.0738L32.5388 52.7376L40.6313 42.3214C41.838 40.7685 42.495 38.8587 42.495 36.8918V25.1705H50.5103V36.8918C50.5103 38.858 51.1688 40.7678 52.376 42.3214L60.4685 52.7376L60.7285 53.0738H32.2788ZM38.0252 67.4246C33.4578 67.4246 29.755 63.7217 29.755 59.1543L29.7591 58.8659C29.8092 57.4279 30.2333 56.03 30.9849 54.8115L31.2297 54.4185L31.2906 54.321H61.7147L61.7756 54.4185L62.0194 54.8115L62.1656 55.0583C62.8734 56.3 63.2503 57.7116 63.2503 59.1543V59.2082L63.2117 59.9475V59.9567L63.2097 59.9668V59.9932L63.2066 60.0085L63.0929 60.759L63.0919 60.7682L63.0137 61.1216C62.1306 64.7396 58.869 67.4246 54.9791 67.4246H38.0252Z" fill="#0044CC"/>
<path d="M11.4238 15.5065L37 37.4289" stroke="#0044CC" stroke-width="1.3" stroke-linecap="round"/>
<path d="M67.416 63.5L81.4236 75.5065" stroke="#0044CC" stroke-width="1.3" stroke-linecap="round"/>
</svg>
