<svg width="428" height="136" viewBox="0 0 428 136" fill="none" xmlns="http://www.w3.org/2000/svg">
<g filter="url(#filter0_d_6001_598)">
<path d="M71.2396 11.3084L58.1458 44.3847L49.5447 40.9799L55.0443 27.0874L52.4701 26.0684L46.9705 39.9608L38.3695 36.556L51.4632 3.47965L60.0643 6.88451L55.3816 18.7135L57.9558 19.7326L62.6385 7.90354L71.2396 11.3084ZM82.0991 15.1491L70.3759 48.7357L61.6422 45.6872L73.3653 12.1007L82.0991 15.1491ZM100.73 34.5164L91.8759 31.8378L92.8112 28.7462C93.4008 26.7973 93.6857 25.552 93.6659 25.0104C93.6461 24.4688 93.3207 24.1025 92.6898 23.9116C92.1429 23.7462 91.7078 23.8441 91.3842 24.2054C91.0607 24.5666 90.6359 25.6165 90.11 27.3551L85.1663 43.6965C84.704 45.2247 84.4967 46.2639 84.5446 46.814C84.5967 47.3501 84.9171 47.7073 85.506 47.8854C86.151 48.0805 86.6683 47.9386 87.0581 47.4597C87.4619 46.985 87.9034 45.9554 88.3827 44.3711L89.6043 40.333L87.8166 39.7922L89.3818 34.6185L99.7503 37.7552L94.2213 56.0314L88.648 54.3454L88.5658 51.6576C87.6448 52.5268 86.641 53.0878 85.5544 53.3407C84.4861 53.5837 83.328 53.5165 82.0802 53.139C80.594 52.6894 79.3071 51.9098 78.2194 50.8003C77.1501 49.681 76.4401 48.4867 76.0895 47.2175C75.7388 45.9483 75.6554 44.7064 75.8392 43.4918C76.0272 42.2631 76.4755 40.4781 77.1838 38.1366L80.2442 28.0205C81.2282 24.7677 82.1182 22.4582 82.9141 21.092C83.71 19.7259 85.1197 18.6831 87.1432 17.9638C89.1849 17.2347 91.5237 17.2689 94.1597 18.0663C96.7535 18.8511 98.7446 20.0349 100.133 21.618C101.521 23.2011 102.252 24.8072 102.325 26.4363C102.403 28.0514 102.02 30.2541 101.175 33.0442L100.73 34.5164ZM126.676 27.3395L118.378 61.9317L109.382 59.7738L112.868 45.2446L110.176 44.5987L106.69 59.1279L97.6949 56.9699L105.994 22.3777L114.989 24.5357L112.021 36.9068L114.713 37.5527L117.681 25.1815L126.676 27.3395ZM137.675 29.4529L132.43 57.4199L137.959 58.4568L136.646 65.4539L122.026 62.712L128.583 27.7478L137.675 29.4529ZM163.335 33.2894L153.507 54.8325L151.722 67.5841L143.235 66.3959L145.021 53.6443L141.727 30.264L150.148 31.443C150.507 38.4897 150.6 43.2137 150.427 45.6152C151.461 41.929 152.956 37.4273 154.914 32.1103L163.335 33.2894ZM186.135 34.9326L189.141 70.7724L179.69 70.1659L179.639 63.7554L176.328 63.5429L175.371 69.8886L165.81 69.275L172.781 34.0755L186.135 34.9326ZM179.78 57.4453C179.57 53.3952 179.421 48.4023 179.332 42.4664C177.962 49.1893 177.058 54.1147 176.623 57.2426L179.78 57.4453ZM190.824 35.1871L197.745 35.2073C202.213 35.2203 205.23 35.4342 206.796 35.8489C208.377 36.2636 209.576 36.941 210.394 37.8809C211.211 38.8207 211.721 39.8696 211.923 41.0274C212.124 42.1706 212.22 44.4267 212.211 47.7959L212.174 60.2543C212.165 63.4476 212.005 65.5859 211.694 66.6689C211.398 67.7374 210.876 68.5782 210.127 69.1912C209.378 69.7897 208.454 70.2118 207.355 70.4576C206.255 70.6888 204.6 70.8011 202.388 70.7947L190.72 70.7607L190.824 35.1871ZM200.057 41.3005L199.989 64.7013C201.322 64.7051 202.143 64.4439 202.452 63.9174C202.761 63.3763 202.919 61.9192 202.926 59.5462L202.966 45.7255C202.971 44.1141 202.923 43.0813 202.821 42.6269C202.72 42.1725 202.487 41.8422 202.121 41.6361C201.756 41.4153 201.067 41.3034 200.057 41.3005ZM213.398 35.2079L220.306 34.7823C224.766 34.5076 227.79 34.5267 229.38 34.8397C230.984 35.1518 232.224 35.7505 233.101 36.6358C233.977 37.5211 234.553 38.535 234.829 39.6774C235.104 40.8052 235.345 43.0505 235.552 46.4133L236.318 58.8482C236.515 62.0355 236.493 64.1796 236.252 65.2804C236.025 66.3658 235.558 67.2384 234.85 67.8984C234.142 68.5438 233.247 69.0245 232.165 69.3407C231.083 69.6421 229.438 69.8609 227.231 69.9969L215.585 70.7143L213.398 35.2079ZM223.005 40.714L224.444 64.0706C225.774 63.9886 226.577 63.675 226.852 63.1298C227.125 62.5699 227.189 61.1057 227.043 58.7371L226.194 44.9424C226.094 43.3342 225.98 42.3066 225.85 41.8596C225.719 41.4127 225.465 41.0981 225.087 40.916C224.708 40.7192 224.014 40.6518 223.005 40.714ZM245.646 32.7136L249.592 68.0677L240.399 69.0939L236.452 33.7398L245.646 32.7136ZM271.383 44.3086L262.251 45.7879L261.26 39.6713C260.972 37.8928 260.692 36.803 260.419 36.402C260.158 35.9842 259.695 35.8291 259.03 35.9369C258.278 36.0587 257.845 36.4035 257.729 36.9713C257.613 37.5391 257.699 38.7123 257.987 40.4909L260.63 56.8017C260.906 58.508 261.188 59.605 261.474 60.0927C261.761 60.5805 262.259 60.767 262.967 60.6522C263.647 60.5421 264.046 60.2104 264.164 59.657C264.297 59.1014 264.207 57.8619 263.895 55.9387L263.182 51.5357L272.314 50.0564L272.535 51.4229C273.123 55.0523 273.28 57.6684 273.005 59.271C272.745 60.8713 271.825 62.3855 270.246 63.8136C268.682 65.2394 266.612 66.1607 264.039 66.5777C261.363 67.011 259.08 66.8839 257.188 66.1961C255.296 65.5084 253.929 64.3571 253.089 62.7422C252.246 61.1128 251.546 58.5774 250.989 55.1359L249.327 44.8766C248.917 42.3461 248.697 40.4378 248.666 39.1517C248.634 37.8511 248.949 36.5461 249.613 35.2366C250.29 33.9248 251.335 32.8134 252.745 31.9022C254.168 30.9743 255.87 30.3499 257.851 30.029C260.54 29.5933 262.844 29.7543 264.762 30.512C266.681 31.2696 268.041 32.3848 268.844 33.8575C269.644 35.3157 270.31 37.686 270.841 40.9684L271.383 44.3086ZM288.228 24.6813L289.788 31.6276L284.428 32.8308L290.661 60.5944L281.635 62.6206L275.402 34.8571L270.064 36.0555L268.504 29.1092L288.228 24.6813ZM297.699 22.0971L306.987 56.4371L298.057 58.8521L288.77 24.5121L297.699 22.0971ZM320.56 14.7884L326.985 50.0915L313.62 54.3942L297.636 22.1683L306.923 19.1786C310.999 28.1613 314.305 35.7995 316.839 42.0933C315.203 35.4335 313.821 29.492 312.693 24.2689L311.273 17.778L320.56 14.7884ZM320.266 14.8325L334.681 9.34107L337.215 15.9938L331.445 18.1919L333.847 24.4955L339.247 22.4382L341.656 28.7624L336.256 30.8197L339.041 38.1295L345.386 35.7123L347.92 42.365L332.931 48.0755L320.266 14.8325ZM352.794 32.4798L355.605 39.1638L349.428 41.7618L346.617 35.0779L352.794 32.4798Z" fill="#0044CC"/>
</g>
<g filter="url(#filter1_d_6001_598)">
<path d="M82.753 65.5487L76.4926 100.965L67.5113 97.9618L69.1016 91.7516L65.955 90.6993L63.4062 96.589L54.3207 93.5506L70.0624 61.3048L82.753 65.5487ZM70.8516 85.6873C71.6846 81.7183 72.8173 76.8533 74.2497 71.0921C71.2049 77.2408 69.072 81.7714 67.8508 84.6838L70.8516 85.6873ZM87.6523 67.1369L94.3149 69.0116C98.6157 70.2217 101.465 71.2364 102.863 72.0558C104.274 72.8791 105.248 73.8531 105.784 74.9777C106.32 76.1023 106.53 77.2494 106.413 78.4189C106.301 79.5743 105.789 81.7737 104.877 85.0169L101.502 97.0097C100.637 100.084 99.91 102.101 99.3202 103.061C98.7486 104.011 98.0199 104.681 97.1341 105.071C96.2523 105.447 95.2489 105.606 94.1238 105.548C93.0028 105.476 91.3777 105.14 89.2484 104.541L78.0171 101.381L87.6523 67.1369ZM94.9085 75.5013L88.5703 98.0275C89.8535 98.3886 90.7145 98.3569 91.1535 97.9326C91.5964 97.4942 92.1392 96.1328 92.782 93.8485L96.5254 80.5443C96.9618 78.9932 97.1922 77.9852 97.2164 77.5203C97.2407 77.0554 97.1044 76.6746 96.8074 76.378C96.5144 76.0673 95.8814 75.7751 94.9085 75.5013ZM109.865 73.3372L116.614 74.8713C120.971 75.8616 123.868 76.7304 125.305 77.4777C126.757 78.2283 127.779 79.1516 128.371 80.2476C128.963 81.3436 129.231 82.4786 129.175 83.6525C129.121 84.8121 128.721 87.0346 127.975 90.3199L125.213 102.469C124.505 105.582 123.881 107.634 123.341 108.623C122.819 109.601 122.125 110.307 121.26 110.741C120.398 111.161 119.404 111.371 118.278 111.37C117.155 111.355 115.514 111.102 113.358 110.612L101.98 108.026L109.865 73.3372ZM117.536 81.3226L112.35 104.141C113.65 104.437 114.508 104.362 114.925 103.916C115.345 103.455 115.818 102.068 116.344 99.754L119.407 86.277C119.764 84.7057 119.943 83.6873 119.944 83.2218C119.945 82.7562 119.789 82.3829 119.477 82.1018C119.169 81.8063 118.522 81.5466 117.536 81.3226ZM139.51 79.7245L148.63 81.135C151.511 81.5805 153.655 82.1419 155.062 82.819C156.484 83.4984 157.544 84.5962 158.243 86.1125C158.945 87.6144 159.061 89.8853 158.591 92.9253C158.273 94.981 157.725 96.3637 156.948 97.0737C156.186 97.7858 154.823 98.2124 152.86 98.3534C154.899 99.158 156.209 100.176 156.79 101.407C157.372 102.624 157.487 104.376 157.133 106.663L156.629 109.92C156.262 112.294 155.715 114.01 154.988 115.069C154.275 116.13 153.293 116.778 152.041 117.014C150.789 117.251 148.325 117.084 144.648 116.516L134.073 114.88L139.51 79.7245ZM147.722 87.1533L146.512 94.9705C146.906 95.0164 147.211 95.0562 147.428 95.0898C148.325 95.2286 148.931 95.0999 149.244 94.7037C149.56 94.293 149.879 93.0453 150.201 90.9608C150.371 89.8605 150.388 89.0776 150.253 88.612C150.12 88.1319 149.895 87.8082 149.58 87.6409C149.28 87.4758 148.66 87.3133 147.722 87.1533ZM145.666 100.443L144.145 110.279C145.44 110.435 146.289 110.359 146.693 110.051C147.11 109.745 147.429 108.882 147.649 107.464L148.156 104.185C148.389 102.679 148.37 101.743 148.101 101.375C147.832 101.007 147.02 100.696 145.666 100.443ZM181.162 106.015C180.807 109.572 180.467 112.085 180.143 113.554C179.836 115.01 179.176 116.306 178.165 117.441C177.168 118.578 175.886 119.4 174.319 119.905C172.752 120.411 170.97 120.564 168.973 120.365C167.079 120.175 165.404 119.699 163.949 118.935C162.51 118.158 161.394 117.104 160.6 115.773C159.805 114.443 159.393 113.04 159.364 111.565C159.335 110.09 159.503 107.53 159.867 103.886L160.473 97.8299C160.828 94.2734 161.16 91.7671 161.467 90.311C161.791 88.8418 162.451 87.5387 163.448 86.4018C164.46 85.2663 165.749 84.4457 167.316 83.9399C168.883 83.4341 170.664 83.281 172.661 83.4807C174.556 83.6701 176.223 84.1533 177.662 84.9302C179.116 85.6939 180.241 86.7412 181.035 88.0719C181.83 89.4027 182.241 90.8056 182.27 92.2807C182.3 93.7557 182.132 96.3152 181.768 99.9592L181.162 106.015ZM173.121 93.4636C173.285 91.8165 173.295 90.7576 173.151 90.2868C173.023 89.8029 172.674 89.5325 172.106 89.4757C171.625 89.4276 171.234 89.5799 170.934 89.9327C170.65 90.2723 170.417 91.3531 170.235 93.175L168.582 109.704C168.376 111.759 168.33 113.035 168.442 113.532C168.569 114.031 168.938 114.311 169.55 114.372C170.177 114.434 170.606 114.198 170.836 113.661C171.066 113.125 171.286 111.814 171.494 109.73L173.121 93.4636ZM203.484 86.3048L203.14 93.4157L197.653 93.1502L196.278 121.572L187.038 121.125L188.413 92.7032L182.949 92.4388L183.293 85.3279L203.484 86.3048ZM225.027 86.2017L225.141 121.775L215.891 121.805L215.842 106.864L213.074 106.873L213.122 121.814L203.872 121.844L203.757 86.2702L213.008 86.2404L213.048 98.9625L215.817 98.9536L215.776 86.2315L225.027 86.2017ZM252.746 84.45L253.277 91.5494L247.799 91.9586L249.918 120.334L240.693 121.023L238.574 92.6476L233.118 93.0551L232.588 85.9558L252.746 84.45ZM276.587 102.369C277.04 105.915 277.274 108.44 277.289 109.944C277.317 111.432 276.965 112.843 276.235 114.176C275.519 115.508 274.454 116.597 273.041 117.442C271.628 118.287 269.926 118.836 267.935 119.091C266.046 119.332 264.307 119.244 262.718 118.827C261.142 118.393 259.817 117.617 258.744 116.499C257.671 115.381 256.954 114.106 256.594 112.675C256.234 111.245 255.822 108.713 255.359 105.08L254.588 99.0428C254.135 95.4974 253.895 92.9807 253.867 91.4927C253.852 89.9883 254.203 88.5702 254.919 87.2383C255.649 85.9045 256.721 84.8152 258.134 83.9702C259.547 83.1252 261.249 82.5756 263.24 82.3214C265.129 82.0801 266.861 82.1764 268.438 82.6101C270.027 83.0274 271.358 83.7951 272.431 84.9133C273.504 86.0315 274.221 87.306 274.581 88.7367C274.941 90.1675 275.353 92.6992 275.816 96.3318L276.587 102.369ZM265.931 91.9457C265.721 90.3038 265.493 89.2696 265.247 88.8433C265.013 88.4006 264.613 88.2154 264.046 88.2878C263.566 88.349 263.22 88.5853 263.007 88.9965C262.806 89.3913 262.822 90.4968 263.054 92.3131L265.158 108.791C265.42 110.839 265.661 112.093 265.882 112.552C266.118 113.01 266.541 113.199 267.151 113.121C267.776 113.042 268.14 112.715 268.244 112.14C268.348 111.566 268.267 110.24 268.002 108.162L265.931 91.9457ZM306.813 91.0891L297.754 92.9596L296.501 86.8913C296.137 85.1268 295.81 84.05 295.52 83.6611C295.242 83.2549 294.773 83.1199 294.113 83.2562C293.367 83.4102 292.948 83.7733 292.857 84.3456C292.766 84.9179 292.902 86.0863 293.266 87.8508L296.608 104.033C296.957 105.726 297.286 106.81 297.593 107.285C297.9 107.76 298.406 107.925 299.109 107.779C299.783 107.64 300.167 107.292 300.261 106.734C300.37 106.173 300.227 104.938 299.833 103.03L298.931 98.6621L307.991 96.7916L308.271 98.1473C309.014 101.748 309.283 104.355 309.078 105.968C308.887 107.578 308.033 109.13 306.517 110.625C305.015 112.117 302.987 113.126 300.434 113.653C297.78 114.201 295.493 114.172 293.573 113.567C291.653 112.961 290.238 111.869 289.329 110.292C288.417 108.7 287.609 106.198 286.904 102.783L284.802 92.6048C284.284 90.0943 283.982 88.1972 283.897 86.9136C283.808 85.6156 284.067 84.2982 284.674 82.9614C285.294 81.6217 286.29 80.4664 287.66 79.4955C289.041 78.5073 290.715 77.8103 292.68 77.4045C295.348 76.8535 297.657 76.9153 299.606 77.5898C301.555 78.2644 302.963 79.32 303.828 80.7568C304.69 82.1793 305.457 84.5187 306.129 87.7753L306.813 91.0891ZM320.406 71.4843L334.649 104.509L325.496 106.939L323.41 100.877L320.203 101.728L321.312 108.049L312.053 110.507L307.472 74.917L320.406 71.4843ZM321.537 94.8494C320.051 91.0761 318.322 86.3896 316.351 80.79C317.188 87.5999 317.898 92.5569 318.479 95.6611L321.537 94.8494ZM325.168 70.1711L331.396 68.1501C335.548 66.8028 338.407 66.052 339.974 65.8977C341.555 65.7389 343.02 66.1722 344.369 67.1974C345.728 68.2042 346.875 70.1497 347.811 73.0339C348.666 75.6673 348.912 77.5431 348.551 78.6612C348.19 79.7794 347.078 80.741 345.214 81.5461C347.096 81.4128 348.454 81.6113 349.288 82.1414C350.122 82.6715 350.708 83.2205 351.047 83.7884C351.394 84.3378 352.011 85.9779 352.897 88.7088L355.793 97.6331L347.621 100.285L343.973 89.0406C343.385 87.2293 342.875 86.1552 342.442 85.8182C342.023 85.4767 341.208 85.5026 339.995 85.8959L344.946 101.153L336.147 104.008L325.168 70.1711ZM335.845 73.1052L338.286 80.6292C339.276 80.3081 339.922 79.952 340.227 79.5607C340.54 79.1509 340.455 78.2006 339.972 76.7097L339.368 74.8496C339.02 73.7768 338.596 73.1364 338.098 72.9286C337.613 72.7163 336.862 72.7752 335.845 73.1052ZM363.898 56.5523L366.438 63.2028L361.307 65.163L371.461 91.7443L362.819 95.0452L352.665 68.4639L347.554 70.4163L345.014 63.7658L363.898 56.5523ZM373.385 52.5138L382.508 77.7388L376.196 80.4154L364.404 56.3228L373.385 52.5138ZM383.827 78.993L386.607 85.5471L378.96 88.79L376.181 82.2359L383.827 78.993Z" fill="#0044CC"/>
</g>
<defs>
<filter id="filter0_d_6001_598" x="38.3695" y="3.60303" width="321.236" height="73.4647" filterUnits="userSpaceOnUse" color-interpolation-filters="sRGB">
<feFlood flood-opacity="0" result="BackgroundImageFix"/>
<feColorMatrix in="SourceAlpha" type="matrix" values="0 0 0 0 0 0 0 0 0 0 0 0 0 0 0 0 0 0 127 0" result="hardAlpha"/>
<feOffset dx="4" dy="6"/>
<feComposite in2="hardAlpha" operator="out"/>
<feColorMatrix type="matrix" values="0 0 0 0 0 0 0 0 0 0 0 0 0 0 0 0 0 0 0.1 0"/>
<feBlend mode="normal" in2="BackgroundImageFix" result="effect1_dropShadow_6001_598"/>
<feBlend mode="normal" in="SourceGraphic" in2="effect1_dropShadow_6001_598" result="shape"/>
</filter>
<filter id="filter1_d_6001_598" x="54.3207" y="52.823" width="336.954" height="75.171" filterUnits="userSpaceOnUse" color-interpolation-filters="sRGB">
<feFlood flood-opacity="0" result="BackgroundImageFix"/>
<feColorMatrix in="SourceAlpha" type="matrix" values="0 0 0 0 0 0 0 0 0 0 0 0 0 0 0 0 0 0 127 0" result="hardAlpha"/>
<feOffset dx="4" dy="6"/>
<feComposite in2="hardAlpha" operator="out"/>
<feColorMatrix type="matrix" values="0 0 0 0 0 0 0 0 0 0 0 0 0 0 0 0 0 0 0.1 0"/>
<feBlend mode="normal" in2="BackgroundImageFix" result="effect1_dropShadow_6001_598"/>
<feBlend mode="normal" in="SourceGraphic" in2="effect1_dropShadow_6001_598" result="shape"/>
</filter>
</defs>
</svg>
