<svg width="428" height="148" viewBox="0 0 428 148" fill="none" xmlns="http://www.w3.org/2000/svg">
<g filter="url(#filter0_d_6001_634)">
<path d="M65.494 19.5081L52.9997 52.8155L44.6883 49.6977L51.3869 31.8405C52.3541 29.262 52.8738 27.6891 52.9459 27.1216C53.0179 26.5541 52.8217 26.0346 52.3571 25.5631C51.9114 25.083 50.7285 24.4828 48.8084 23.7625L47.9854 23.4538L49.444 19.5655C53.7867 20.2089 57.5046 19.5776 60.5977 17.6714L65.494 19.5081ZM83.4497 38.0696L79.7754 49.3516C78.9407 51.9144 78.1936 53.7355 77.534 54.8147C76.8744 55.894 75.9403 56.7991 74.7316 57.5301C73.523 58.2611 72.2263 58.6476 70.8415 58.6896C69.4567 58.7316 67.9983 58.5031 66.4661 58.0041C64.4465 57.3463 62.843 56.5699 61.6556 55.6748C60.4727 54.7657 59.6453 53.6875 59.1735 52.44C58.7016 51.1925 58.4755 49.9711 58.495 48.7759C58.5191 47.5666 58.919 45.7712 59.6947 43.3894L63.5391 31.5851C64.5507 28.4791 65.5729 26.2392 66.6057 24.8656C67.6524 23.4964 69.1217 22.6038 71.0134 22.1878C72.9191 21.7762 75.0071 21.9402 77.2775 22.6796C79.1299 23.2829 80.6808 24.15 81.9301 25.2809C83.1839 26.398 84.021 27.541 84.4413 28.7101C84.8617 29.8792 85.0067 31.0895 84.8763 32.3412C84.7599 33.5973 84.2844 35.5068 83.4497 38.0696ZM75.9345 32.4793C76.5197 30.6826 76.7943 29.5318 76.7584 29.0272C76.741 28.5131 76.4119 28.1517 75.7712 27.943C75.1444 27.7389 74.6472 27.8466 74.2795 28.266C73.9303 28.6761 73.4721 29.7516 72.9051 31.4927L67.5297 47.9978C66.8901 49.9617 66.595 51.1751 66.6446 51.638C66.708 52.1054 67.0531 52.4412 67.6799 52.6453C68.3067 52.8495 68.7947 52.7465 69.1439 52.3364C69.4931 51.9264 69.9377 50.8926 70.4775 49.2351L75.9345 32.4793ZM105.459 43.9246L102.436 55.3981C101.749 58.0045 101.107 59.8652 100.51 60.9804C99.9135 62.0956 99.0327 63.0526 97.8678 63.8515C96.7029 64.6504 95.4304 65.1103 94.0503 65.2314C92.6702 65.3524 91.201 65.2077 89.6429 64.7971C87.589 64.2558 85.9437 63.5723 84.7071 62.7465C83.4742 61.9065 82.5865 60.8773 82.0442 59.6589C81.5018 58.4404 81.2062 57.2339 81.1574 56.0395C81.1123 54.8309 81.409 53.0155 82.0473 50.5933L85.2108 38.5886C86.0432 35.4298 86.9357 33.1352 87.8883 31.7047C88.8551 30.278 90.2709 29.3029 92.1358 28.7794C94.0149 28.2596 96.1088 28.304 98.4177 28.9124C100.302 29.4089 101.9 30.1859 103.211 31.2436C104.527 32.2872 105.428 33.3805 105.915 34.5237C106.401 35.6668 106.615 36.8669 106.556 38.1239C106.512 39.3847 106.146 41.3183 105.459 43.9246ZM97.6371 38.7729C98.1186 36.9456 98.327 35.7811 98.2623 35.2793C98.2155 34.7671 97.8663 34.4251 97.2147 34.2534C96.5773 34.0854 96.0871 34.2213 95.7439 34.6611C95.4187 35.0904 95.0228 36.1904 94.5562 37.961L90.1328 54.7464C89.6065 56.7436 89.3813 57.9719 89.4572 58.4312C89.5473 58.8942 89.911 59.2097 90.5484 59.3777C91.1858 59.5457 91.6671 59.415 91.9924 58.9856C92.3176 58.5563 92.7023 57.4988 93.1465 55.8132L97.6371 38.7729ZM131.787 36.1921L111.012 69.7496L107.692 69.0966L128.51 35.5475L131.787 36.1921ZM120.331 40.8137L119.152 46.8072C118.844 48.3739 118.461 49.5228 118.004 50.254C117.564 50.9736 116.797 51.5319 115.704 51.929C114.628 52.3145 113.292 52.3503 111.697 52.0366C109.857 51.6747 108.509 51.126 107.654 50.3904C106.801 49.6405 106.278 48.8435 106.086 47.9995C105.908 47.1583 105.962 46.0119 106.247 44.5602L107.481 38.2864C107.821 36.5616 108.243 35.3235 108.749 34.5721C109.273 33.8091 110.088 33.2679 111.196 32.9483C112.304 32.6288 113.598 32.6146 115.079 32.9058C116.717 33.228 117.99 33.777 118.898 34.5526C119.808 35.3139 120.356 36.1309 120.543 37.0036C120.73 37.8764 120.659 39.1464 120.331 40.8137ZM115.113 38.1974C115.294 37.2775 115.355 36.6999 115.297 36.4645C115.253 36.2319 115.023 36.0747 114.606 35.9927C114.218 35.9164 113.944 35.9819 113.783 36.1892C113.623 36.3966 113.455 36.9458 113.28 37.837L111.55 46.6333C111.352 47.6394 111.284 48.253 111.345 48.474C111.406 48.695 111.652 48.8479 112.083 48.9327C112.457 49.0062 112.717 48.9379 112.863 48.7277C113.023 48.5203 113.186 47.9926 113.353 47.1446L115.113 38.1974ZM133.206 60.8578L132.023 66.8729C131.718 68.4252 131.337 69.5669 130.879 70.2981C130.436 71.0321 129.668 71.5976 128.575 71.9947C127.499 72.3802 126.163 72.4161 124.568 72.1023C122.742 71.7432 121.396 71.1873 120.529 70.4346C119.676 69.6846 119.154 68.8876 118.961 68.0436C118.783 67.2025 118.836 66.0632 119.119 64.6259L120.357 58.3305C120.693 56.6201 121.114 55.3892 121.62 54.6378C122.144 53.8748 122.959 53.3336 124.067 53.014C125.178 52.6801 126.474 52.6587 127.954 52.9499C129.607 53.275 130.887 53.8254 131.794 54.601C132.702 55.3767 133.242 56.1994 133.414 57.0693C133.601 57.9421 133.531 59.2049 133.206 60.8578ZM127.984 58.2631C128.165 57.3432 128.226 56.7656 128.168 56.5302C128.127 56.2833 127.898 56.1188 127.481 56.0368C127.093 55.9605 126.819 56.026 126.659 56.2334C126.513 56.4436 126.351 57.0014 126.173 57.9069L124.443 66.7032C124.248 67.695 124.181 68.3013 124.242 68.5223C124.303 68.7434 124.542 68.8949 124.958 68.9768C125.347 69.0532 125.612 68.9934 125.755 68.7976C125.901 68.5874 126.059 68.0512 126.228 67.1888L127.984 58.2631ZM145.177 39.1029L154.439 40.1127C156.944 40.3858 158.844 40.792 160.141 41.3312C161.453 41.8721 162.403 42.5504 162.992 43.3661C163.595 44.1834 163.955 45.1362 164.072 46.2247C164.206 47.3001 164.152 48.9446 163.91 51.158L163.574 54.2379C163.328 56.495 162.916 58.1152 162.337 59.0983C161.759 60.0814 160.813 60.7813 159.5 61.1981C158.202 61.6166 156.548 61.7162 154.539 61.4971L152.07 61.228L150.518 75.4697L141.322 74.4671L145.177 39.1029ZM153.714 46.1562L152.732 55.1556C152.993 55.1987 153.218 55.2306 153.407 55.2512C154.252 55.3433 154.857 55.203 155.221 54.8301C155.602 54.4444 155.864 53.5962 156.007 52.2856L156.324 49.3804C156.456 48.1718 156.352 47.3648 156.013 46.9595C155.674 46.5541 154.908 46.2864 153.714 46.1562ZM186.547 42.3187L185.369 66.0639C185.235 68.7559 185.053 70.6462 184.823 71.7348C184.594 72.8087 184.019 73.9022 183.098 75.0151C182.179 76.1135 180.994 76.9273 179.545 77.4568C178.112 77.9723 176.437 78.1825 174.52 78.0874C172.399 77.9821 170.543 77.538 168.954 76.7552C167.365 75.9723 166.196 74.9976 165.447 73.8312C164.699 72.6647 164.282 71.456 164.197 70.2052C164.113 68.9397 164.171 66.3026 164.37 62.2938L165.413 41.2699L174.652 41.7284L173.33 68.3704C173.253 69.9213 173.284 70.9201 173.424 71.367C173.578 71.8 173.911 72.0292 174.423 72.0546C175.009 72.0837 175.393 71.8681 175.577 71.4079C175.777 70.9338 175.921 69.8117 176.009 68.0414L177.308 41.8602L186.547 42.3187ZM187.886 42.3395L194.433 42.2524C198.798 42.1944 201.752 42.3236 203.294 42.6401C204.851 42.9563 206.122 43.8038 207.108 45.1824C208.107 46.5462 208.627 48.7441 208.668 51.776C208.704 54.5443 208.385 56.4091 207.709 57.3703C207.033 58.3315 205.686 58.9208 203.667 59.1381C205.504 59.5678 206.743 60.1593 207.383 60.9126C208.023 61.6659 208.42 62.3638 208.575 63.0063C208.745 63.634 208.848 65.3832 208.887 68.2541L209.011 77.6356L200.421 77.7497L200.264 65.9295C200.238 64.0254 200.069 62.8483 199.755 62.3983C199.456 61.9482 198.67 61.7316 197.395 61.7485L197.608 77.7871L188.359 77.91L187.886 42.3395ZM197.217 48.3024L197.322 56.2119C198.362 56.198 199.085 56.0493 199.491 55.7655C199.912 55.4669 200.112 54.534 200.091 52.9668L200.065 51.0114C200.05 49.8835 199.835 49.1466 199.421 48.8005C199.021 48.4542 198.286 48.2882 197.217 48.3024ZM210.138 41.9962L225.526 40.9259L226.02 48.0279L219.86 48.4563L220.328 55.1857L226.093 54.7847L226.563 61.536L220.798 61.9369L221.341 69.7403L228.114 69.2692L228.608 76.3712L212.606 77.4842L210.138 41.9962ZM243.486 38.7251L247.37 66.9135L252.942 66.1458L253.914 73.1983L239.177 75.2284L234.323 39.9875L243.486 38.7251ZM274.078 54.2883C274.759 57.797 275.156 60.3015 275.268 61.8018C275.392 63.2849 275.132 64.7155 274.49 66.0937C273.861 67.4691 272.869 68.6241 271.514 69.5588C270.158 70.4934 268.495 71.1519 266.525 71.5343C264.656 71.8972 262.915 71.9219 261.302 71.6082C259.701 71.2774 258.329 70.5888 257.186 69.5423C256.042 68.4959 255.245 67.2704 254.793 65.8659C254.341 64.4614 253.767 61.9617 253.069 58.3667L251.909 52.3918C251.228 48.8831 250.825 46.3872 250.702 44.9041C250.589 43.4038 250.848 41.966 251.476 40.5906C252.119 39.2124 253.118 38.056 254.473 37.1213C255.829 36.1867 257.491 35.5282 259.462 35.1458C261.331 34.7829 263.066 34.7668 264.667 35.0976C266.28 35.4113 267.658 36.0913 268.801 37.1378C269.945 38.1842 270.742 39.4097 271.194 40.8142C271.645 42.2187 272.22 44.7184 272.918 48.3134L274.078 54.2883ZM262.769 44.5759C262.454 42.951 262.16 41.9337 261.886 41.5242C261.624 41.0976 261.213 40.9387 260.652 41.0476C260.177 41.1397 259.847 41.3978 259.661 41.8219C259.486 42.2289 259.573 43.3311 259.922 45.1286L263.088 61.4355C263.481 63.4631 263.803 64.6988 264.054 65.1426C264.318 65.5837 264.753 65.7456 265.357 65.6283C265.975 65.5083 266.317 65.1583 266.384 64.5784C266.45 63.9984 266.284 62.6803 265.885 60.624L262.769 44.5759ZM292.56 28.0234L296.978 63.6335L283.391 67.1732L269.256 34.0945L278.697 31.635C282.259 40.834 285.127 48.647 287.301 55.0741C286.044 48.3324 285 42.3222 284.17 37.0436L283.12 30.4828L292.56 28.0234ZM292.206 28.0663L306.9 23.3739L309.065 30.1557L303.184 32.034L305.236 38.4599L310.741 36.7019L312.8 43.1487L307.295 44.9067L309.674 52.3582L316.142 50.2928L318.308 57.0745L303.028 61.954L292.206 28.0663ZM323.723 47.4746L326.158 54.3042L319.846 56.5554L317.41 49.7258L323.723 47.4746Z" fill="white"/>
</g>
<g filter="url(#filter1_d_6001_634)">
<path d="M217.076 94.1005L217.402 129.673L209.294 129.747L204.334 113.62L204.482 129.791L196.748 129.862L196.422 94.2898L204.156 94.2189L209.488 110.189L209.341 94.1714L217.076 94.1005ZM241.044 113.157C241.324 116.72 241.435 119.253 241.377 120.757C241.332 122.244 240.912 123.636 240.118 124.933C239.338 126.229 238.222 127.264 236.769 128.039C235.317 128.815 233.59 129.281 231.59 129.438C229.691 129.587 227.958 129.415 226.391 128.921C224.838 128.411 223.552 127.572 222.535 126.403C221.517 125.234 220.864 123.926 220.574 122.479C220.284 121.033 219.995 118.484 219.708 114.833L219.232 108.765C218.952 105.202 218.834 102.677 218.879 101.189C218.937 99.6859 219.356 98.2865 220.136 96.9909C220.93 95.6943 222.054 94.6583 223.506 93.8829C224.959 93.1076 226.685 92.6414 228.686 92.4842C230.585 92.335 232.311 92.5153 233.864 93.0251C235.431 93.5191 236.723 94.3506 237.741 95.5196C238.758 96.6886 239.412 97.9964 239.702 99.443C239.992 100.89 240.28 103.438 240.567 107.089L241.044 113.157ZM230.906 102.228C230.777 100.578 230.599 99.5337 230.374 99.0959C230.162 98.6424 229.771 98.438 229.202 98.4827C228.72 98.5206 228.362 98.7397 228.129 99.14C227.91 99.5246 227.871 100.63 228.015 102.455L229.316 119.015C229.478 121.074 229.658 122.339 229.856 122.808C230.069 123.276 230.483 123.486 231.096 123.438C231.724 123.389 232.104 123.08 232.235 122.511C232.367 121.942 232.351 120.614 232.187 118.525L230.906 102.228ZM275.084 86.1997L281.581 121.175L273.631 122.652L269.245 99.0397L270.456 123.242L264.817 124.289L257.183 101.839L261.469 124.911L253.519 126.388L247.022 91.4126L258.796 89.2255C259.532 91.264 260.359 93.6729 261.278 96.4523L264.184 105.12L263.224 88.4028L275.084 86.1997ZM285.418 83.6264L294.161 118.109L285.195 120.383L276.451 85.9001L285.418 83.6264ZM305.266 77.613L306.774 93.6026L317.237 111.153L309.041 113.657C307.025 110.566 304.868 106.714 302.57 102.101C303.001 104.313 303.388 106.684 303.732 109.213L304.586 115.018L295.971 117.65L293.367 97.6989L285.576 83.629L294.129 81.0159C294.569 81.9074 295.355 83.3753 296.485 85.4194C297.359 86.9752 298.126 88.4102 298.788 89.7243L297.848 79.8795L305.266 77.613ZM315.21 74.0748L327.178 107.575L318.466 110.687L306.499 77.1867L315.21 74.0748ZM336.049 65.4603L349.711 98.3062L342.224 101.42L331.571 88.3361L337.781 103.268L330.64 106.238L316.979 73.3923L324.12 70.422L335.059 83.2204L328.908 68.4306L336.049 65.4603ZM362.225 67.226L353.925 71.3112L352.499 68.4132C351.6 66.5864 350.958 65.4818 350.574 65.0994C350.19 64.7171 349.702 64.6714 349.111 64.9625C348.598 65.2148 348.347 65.5834 348.357 66.0682C348.367 66.5531 348.773 67.6103 349.575 69.24L357.115 84.5578C357.82 85.9904 358.378 86.8913 358.788 87.2608C359.192 87.6171 359.67 87.6594 360.222 87.3877C360.826 87.0901 361.108 86.6333 361.066 86.0172C361.037 85.3947 360.657 84.3408 359.926 82.8557L358.063 79.0706L356.387 79.8954L354 75.0458L363.719 70.262L372.151 87.3935L366.927 89.9649L365.033 88.0565C364.953 89.3203 364.602 90.4154 363.98 91.3418C363.366 92.2486 362.473 92.9898 361.303 93.5656C359.91 94.2513 358.438 94.5598 356.886 94.4911C355.34 94.4028 354.006 94.0145 352.884 93.3262C351.761 92.6379 350.852 91.7871 350.158 90.7739C349.457 89.7475 348.566 88.1369 347.486 85.9421L342.818 76.4597C341.318 73.4106 340.392 71.1152 340.041 69.5735C339.691 68.0318 340.009 66.3076 340.997 64.4008C341.992 62.4745 343.725 60.9032 346.196 59.687C348.627 58.4903 350.89 57.9967 352.985 58.2064C355.08 58.416 356.711 59.0911 357.876 60.2317C359.035 61.3592 360.258 63.2307 361.546 65.8461L362.225 67.226ZM376.843 76.6692L380.307 83.0391L374.42 86.2409L370.956 79.871L376.843 76.6692Z" fill="white"/>
</g>
<defs>
<filter id="filter0_d_6001_634" x="38.9484" y="13.7852" width="291.21" height="71.0947" filterUnits="userSpaceOnUse" color-interpolation-filters="sRGB">
<feFlood flood-opacity="0" result="BackgroundImageFix"/>
<feColorMatrix in="SourceAlpha" type="matrix" values="0 0 0 0 0 0 0 0 0 0 0 0 0 0 0 0 0 0 127 0" result="hardAlpha"/>
<feOffset dx="4" dy="6"/>
<feComposite in2="hardAlpha" operator="out"/>
<feColorMatrix type="matrix" values="0 0 0 0 0 0 0 0 0 0 0 0 0 0 0 0 0 0 0.1 0"/>
<feBlend mode="normal" in2="BackgroundImageFix" result="effect1_dropShadow_6001_634"/>
<feBlend mode="normal" in="SourceGraphic" in2="effect1_dropShadow_6001_634" result="shape"/>
</filter>
<filter id="filter1_d_6001_634" x="196.422" y="55.2241" width="187.885" height="81.3967" filterUnits="userSpaceOnUse" color-interpolation-filters="sRGB">
<feFlood flood-opacity="0" result="BackgroundImageFix"/>
<feColorMatrix in="SourceAlpha" type="matrix" values="0 0 0 0 0 0 0 0 0 0 0 0 0 0 0 0 0 0 127 0" result="hardAlpha"/>
<feOffset dx="4" dy="6"/>
<feComposite in2="hardAlpha" operator="out"/>
<feColorMatrix type="matrix" values="0 0 0 0 0 0 0 0 0 0 0 0 0 0 0 0 0 0 0.1 0"/>
<feBlend mode="normal" in2="BackgroundImageFix" result="effect1_dropShadow_6001_634"/>
<feBlend mode="normal" in="SourceGraphic" in2="effect1_dropShadow_6001_634" result="shape"/>
</filter>
</defs>
</svg>
