<svg width="727" height="122" viewBox="0 0 727 122" fill="none" xmlns="http://www.w3.org/2000/svg">
<g filter="url(#filter0_d_2063_5991)">
<path d="M41.0822 32.5521L19.2559 78.1957L7.86612 72.7492L19.5679 48.2782C21.2576 44.7447 22.1886 42.5804 22.361 41.7853C22.5334 40.9902 22.3196 40.2299 21.7198 39.5043C21.1478 38.7689 19.5461 37.772 16.9148 36.5138L15.7871 35.9745L18.3351 30.6462C24.4082 32.0954 29.754 31.6612 34.3724 29.3435L41.0822 32.5521ZM64.4634 59.6372L58.5993 75.4606C57.2673 79.055 56.1018 81.6003 55.103 83.0965C54.1042 84.5926 52.7252 85.8257 50.966 86.7957C49.2068 87.7656 47.342 88.241 45.3718 88.2218C43.4015 88.2026 41.3419 87.7949 39.1931 86.9985C36.3605 85.9488 34.126 84.7541 32.4895 83.4144C30.8603 82.0552 29.7459 80.4758 29.1464 78.6762C28.547 76.8766 28.2951 75.128 28.391 73.4305C28.4941 71.7135 29.1646 69.1848 30.4025 65.8443L36.538 49.2883C38.1525 44.932 39.7326 41.8072 41.2785 39.9139C42.844 38.0279 44.9827 36.8431 47.6948 36.3596C50.4264 35.8833 53.3842 36.2351 56.5685 37.4152C59.1666 38.378 61.3212 39.6986 63.0321 41.3769C64.7502 43.0357 65.8747 44.7077 66.4055 46.393C66.9362 48.0783 67.0734 49.8066 66.8169 51.5778C66.5799 53.3563 65.7954 56.0428 64.4634 59.6372ZM54.102 51.2649C55.0359 48.7449 55.4917 47.1253 55.4694 46.4061C55.4739 45.6745 55.0268 45.1423 54.1282 44.8092C53.2491 44.4835 52.5364 44.6081 51.99 45.1833C51.4704 45.7461 50.7581 47.2485 49.8531 49.6903L41.2743 72.8393C40.2535 75.5938 39.7651 77.3013 39.8091 77.9619C39.8727 78.6298 40.344 79.1266 41.2231 79.4524C42.1021 79.7782 42.8015 79.6597 43.3211 79.0968C43.8408 78.534 44.5313 77.0902 45.3928 74.7656L54.102 51.2649ZM96.0278 68.6588L91.4785 84.909C90.4451 88.6004 89.4919 91.2326 88.6188 92.8054C87.7458 94.3783 86.4724 95.7201 84.7985 96.8308C83.1245 97.9415 81.305 98.5679 79.3397 98.71C77.3745 98.8521 75.2885 98.6143 73.0816 97.9965C70.1726 97.1821 67.8479 96.1743 66.1072 94.973C64.3723 93.7518 63.1324 92.2688 62.3876 90.5243C61.6428 88.7798 61.2488 87.0577 61.2054 85.3581C61.1676 83.6384 61.6289 81.0632 62.5893 77.6326L67.3492 60.6301C68.6017 56.1563 69.9208 52.9126 71.3066 50.8992C72.7124 48.8913 74.7471 47.5355 77.4104 46.8316C80.0939 46.1333 83.0706 46.2419 86.3407 47.1574C89.009 47.9044 91.2644 49.0442 93.1069 50.5769C94.955 52.0894 96.2126 53.6638 96.8795 55.3C97.5464 56.9362 97.8245 58.6475 97.7139 60.4338C97.6233 62.2257 97.0613 64.9674 96.0278 68.6588ZM85.016 61.1626C85.7406 58.5746 86.0623 56.9231 85.9812 56.2081C85.9258 55.4786 85.4367 54.9847 84.5138 54.7264C83.611 54.4737 82.9109 54.6562 82.4134 55.2742C81.9415 55.8776 81.3546 57.4333 80.6525 59.941L73.9971 83.7145C73.2051 86.5432 72.8581 88.285 72.9561 88.9398C73.0741 89.6002 73.5845 90.0568 74.4872 90.3095C75.39 90.5623 76.0773 90.3869 76.5492 89.7834C77.021 89.18 77.5911 87.6845 78.2594 85.2972L85.016 61.1626ZM133.958 57.6683L104.67 105.554L99.9431 104.651L129.293 56.7769L133.958 57.6683ZM117.701 64.3293L116.07 72.8625C115.644 75.093 115.109 76.7299 114.464 77.7733C113.844 78.8001 112.757 79.6 111.206 80.1732C109.678 80.7297 107.779 80.791 105.507 80.357C102.888 79.8566 100.967 79.0866 99.7448 78.047C98.5262 76.987 97.777 75.8576 97.497 74.6587C97.2374 73.4638 97.3051 71.8329 97.7 69.7662L99.4066 60.834C99.8758 58.3784 100.467 56.6143 101.181 55.5418C101.92 54.4526 103.075 53.6766 104.649 53.2136C106.222 52.7506 108.062 52.7205 110.17 53.1232C112.503 53.5689 114.317 54.3398 115.614 55.4359C116.914 56.5116 117.701 57.6693 117.973 58.9091C118.245 60.1489 118.154 61.9556 117.701 64.3293ZM110.259 60.6487C110.509 59.339 110.592 58.517 110.508 58.1827C110.444 57.8523 110.115 57.6304 109.521 57.517C108.969 57.4115 108.579 57.5067 108.353 57.8029C108.127 58.099 107.893 58.8814 107.65 60.1502L105.257 72.6736C104.984 74.106 104.891 74.9792 104.98 75.293C105.068 75.6069 105.419 75.8225 106.033 75.9397C106.565 76.0414 106.934 75.9422 107.14 75.6422C107.366 75.346 107.595 74.5943 107.825 73.387L110.259 60.6487ZM136.166 92.737L134.53 101.301C134.108 103.511 133.574 105.138 132.93 106.181C132.305 107.228 131.217 108.038 129.665 108.612C128.138 109.168 126.239 109.229 123.967 108.795C121.368 108.299 119.449 107.519 118.21 106.455C116.992 105.395 116.243 104.265 115.963 103.066C115.703 101.871 115.769 100.251 116.16 98.2045L117.872 89.2417C118.337 86.8065 118.927 85.0527 119.641 83.9801C120.379 82.891 121.535 82.115 123.108 81.652C124.685 81.1685 126.528 81.1282 128.636 81.5309C130.989 81.9805 132.814 82.7534 134.11 83.8495C135.407 84.9456 136.181 86.1116 136.432 87.3475C136.705 88.5872 136.616 90.3837 136.166 92.737ZM128.719 89.087C128.969 87.7774 129.052 86.9554 128.967 86.6211C128.907 86.2702 128.58 86.0381 127.987 85.9247C127.434 85.8191 127.045 85.9144 126.819 86.2106C126.613 86.5106 126.387 87.3052 126.141 88.5944L123.748 101.118C123.478 102.53 123.387 103.393 123.476 103.707C123.564 104.02 123.905 104.234 124.499 104.347C125.051 104.453 125.429 104.366 125.63 104.086C125.836 103.786 126.056 103.022 126.291 101.795L128.719 89.087ZM154.558 61.8394L167.762 62.94C171.333 63.2376 174.05 63.7463 175.914 64.4661C177.798 65.1876 179.173 66.1176 180.04 67.256C180.927 68.3961 181.474 69.7379 181.68 71.2811C181.908 72.8054 181.891 75.1453 181.628 78.3011L181.262 82.6921C180.994 85.9101 180.466 88.2284 179.679 89.6471C178.892 91.0658 177.572 92.0952 175.721 92.7353C173.891 93.3771 171.543 93.5787 168.678 93.3399L165.159 93.0465L163.466 113.351L150.356 112.258L154.558 61.8394ZM166.95 71.5586L165.88 84.3891C166.252 84.441 166.573 84.4782 166.843 84.5007C168.047 84.601 168.902 84.3796 169.407 83.8364C169.935 83.2741 170.277 82.0587 170.432 80.1902L170.778 76.0483C170.921 74.3251 170.745 73.1815 170.248 72.6174C169.752 72.0534 168.652 71.7005 166.95 71.5586ZM214.14 64.6022L213.747 98.4124C213.702 102.245 213.546 104.942 213.278 106.501C213.01 108.04 212.252 109.625 211.003 111.256C209.755 112.867 208.116 114.088 206.085 114.918C204.076 115.728 201.707 116.117 198.978 116.086C195.957 116.051 193.296 115.52 190.996 114.493C188.695 113.466 186.981 112.144 185.854 110.527C184.727 108.909 184.069 107.214 183.882 105.441C183.694 103.647 183.634 99.8959 183.7 94.1879L184.048 64.2524L197.203 64.4053L196.762 102.34C196.737 104.548 196.835 105.966 197.057 106.594C197.3 107.201 197.786 107.509 198.515 107.517C199.348 107.527 199.883 107.2 200.12 106.536C200.378 105.851 200.522 104.249 200.551 101.728L200.984 64.4493L214.14 64.6022ZM216.614 64.5787L225.906 63.9718C232.101 63.5673 236.306 63.5328 238.52 63.8684C240.755 64.2026 242.623 65.3124 244.124 67.1978C245.644 69.061 246.545 72.1442 246.826 76.4476C247.083 80.3767 246.767 83.0488 245.878 84.4639C244.989 85.879 243.119 86.8154 240.268 87.273C242.908 87.7477 244.711 88.4964 245.676 89.5191C246.64 90.5417 247.256 91.5036 247.524 92.4048C247.811 93.2838 248.087 95.7606 248.354 99.8353L249.223 113.151L237.03 113.947L235.935 97.1701C235.758 94.4676 235.431 92.8083 234.952 92.1923C234.494 91.575 233.361 91.3254 231.552 91.4435L233.039 114.208L219.911 115.065L216.614 64.5787ZM230.306 72.3592L231.039 83.5853C232.515 83.4889 233.531 83.2242 234.088 82.7912C234.663 82.336 234.878 80.9962 234.733 78.7718L234.552 75.9965C234.447 74.3957 234.088 73.3649 233.473 72.904C232.879 72.4417 231.824 72.2601 230.306 72.3592ZM248.784 62.4177L270.522 59.4678L271.884 69.5008L263.182 70.6816L264.472 80.1882L272.616 79.0831L273.911 88.6207L265.767 89.7258L267.263 100.75L276.831 99.4513L278.193 109.484L255.587 112.552L248.784 62.4177ZM297.185 54.0494L306.161 93.51L313.962 91.7355L316.208 101.608L295.579 106.301L284.356 56.9676L297.185 54.0494ZM343.202 71.6205C344.682 76.4839 345.611 79.9685 345.99 82.0743C346.383 84.1541 346.226 86.216 345.52 88.2601C344.833 90.2981 343.599 92.0777 341.819 93.5991C340.039 95.1204 337.784 96.2964 335.053 97.1269C332.462 97.915 330.003 98.2057 327.675 97.999C325.361 97.7664 323.319 96.9939 321.548 95.6816C319.777 94.3693 318.469 92.753 317.623 90.8325C316.778 88.9121 315.598 85.4604 314.082 80.4774L311.563 72.1958C310.084 67.3324 309.148 63.8608 308.755 61.781C308.376 59.6752 308.529 57.6033 309.216 55.5653C309.923 53.5213 311.166 51.7386 312.946 50.2172C314.727 48.6959 316.982 47.52 319.713 46.6894C322.304 45.9013 324.756 45.6236 327.07 45.8563C329.397 46.0629 331.447 46.8224 333.218 48.1347C334.989 49.447 336.297 51.0634 337.142 52.9838C337.988 54.9042 339.168 58.3559 340.684 63.3389L343.202 71.6205ZM325.778 59.5432C325.093 57.2909 324.527 55.8953 324.08 55.3562C323.647 54.7911 323.041 54.6268 322.264 54.8632C321.606 55.0633 321.177 55.477 320.976 56.1043C320.788 56.7057 321.074 58.2521 321.831 60.7436L328.706 83.3462C329.561 86.1566 330.198 87.8574 330.617 88.4484C331.056 89.0334 331.694 89.1986 332.532 88.944C333.389 88.6833 333.822 88.1379 333.83 87.3078C333.839 86.4776 333.41 84.6374 332.543 81.7871L325.778 59.5432ZM366.805 31.4015L378.207 81.1453L359.495 88.1187L334.711 43.3622L347.713 38.5168C354.083 51.0166 359.271 61.656 363.276 70.4349C360.523 61.0782 358.177 52.7257 356.239 45.3774L353.803 36.2469L366.805 31.4015ZM372.36 29.5183L393.248 22.8153L396.342 32.4561L387.981 35.1392L390.912 44.2741L398.738 41.7629L401.679 50.9276L393.853 53.4388L397.252 64.0318L406.447 61.0813L409.54 70.7221L387.819 77.6925L372.36 29.5183ZM419.439 57.2082L422.164 67.1544L412.971 69.6722L410.247 59.7261L419.439 57.2082ZM458.468 7.71517L468.147 57.3743L456.829 59.5805L445.711 38.3147L450.112 60.8899L439.315 62.9944L429.635 13.3352L440.432 11.2307L452.03 32.1801L447.671 9.81971L458.468 7.71517ZM501.968 31.8771C502.578 36.9237 502.887 40.5168 502.894 42.6565C502.919 44.7729 502.405 46.7761 501.354 48.6659C500.323 50.5533 498.798 52.0911 496.78 53.2793C494.763 54.4675 492.337 55.2329 489.503 55.5754C486.815 55.9004 484.342 55.7586 482.086 55.1499C479.848 54.5181 477.972 53.4019 476.456 51.8013C474.941 50.2008 473.934 48.3814 473.436 46.3431C472.937 44.3048 472.376 40.7004 471.751 35.5297L470.712 26.936C470.102 21.8894 469.784 18.3078 469.759 16.1914C469.753 14.0517 470.265 12.0382 471.296 10.1509C472.347 8.26101 473.882 6.72197 475.9 5.53374C477.918 4.34551 480.343 3.58014 483.177 3.23763C485.866 2.91263 488.329 3.06605 490.567 3.6979C492.823 4.30658 494.709 5.41118 496.224 7.01171C497.74 8.61225 498.747 10.4317 499.245 12.4699C499.743 14.5082 500.305 18.1127 500.93 23.2834L501.968 31.8771ZM486.912 16.951C486.63 14.6139 486.315 13.1409 485.969 12.5323C485.641 11.9004 485.073 11.6333 484.267 11.7308C483.584 11.8133 483.089 12.1459 482.782 12.7286C482.493 13.2882 482.504 14.8607 482.817 17.446L485.652 40.9003C486.004 43.8166 486.336 45.6022 486.646 46.2572C486.976 46.9098 487.576 47.1835 488.445 47.0785C489.334 46.971 489.855 46.5093 490.009 45.6934C490.162 44.8774 490.06 42.9906 489.702 40.033L486.912 16.951ZM563.096 0.149124L563.816 50.7378L552.317 50.9014L551.831 16.7486L547.724 50.9668L539.569 51.0828L534.251 17.7802L534.725 51.1518L523.227 51.3154L522.507 0.726797L539.536 0.484432C540.079 3.51868 540.662 7.09409 541.283 11.2107L543.278 24.0586L545.942 0.393267L563.096 0.149124ZM585.939 0.90896L583.497 51.4437L570.356 50.8087L572.799 0.273921L585.939 0.90896ZM621.572 4.18575L614.786 25.9964L618.897 54.7631L606.77 53.5571C605.817 48.3959 605.098 42.1586 604.611 34.8454C603.964 37.9842 603.173 41.3077 602.237 44.8157L600.177 52.9015L587.428 51.6337L594.947 24.0234L592.434 1.28823L605.09 2.54681C605.18 3.95847 605.407 6.31534 605.769 9.61742C606.063 12.138 606.284 14.442 606.432 16.5295L610.595 3.09415L621.572 4.18575ZM642.52 7.11691L635.026 57.1526L622.015 55.2038L629.509 5.16815L642.52 7.11691ZM680.514 14.6841L670.252 64.2262L658.96 61.8872L656.924 37.9771L652.259 60.499L641.487 58.2678L651.75 8.72575L662.521 10.957L665.122 34.7606L669.743 12.4529L680.514 14.6841ZM714.664 43.6865L702.048 39.9529L703.352 35.548C704.174 32.7713 704.568 30.9978 704.536 30.2277C704.503 29.4575 704.037 28.9394 703.138 28.6734C702.359 28.4428 701.741 28.5858 701.284 29.1023C700.827 29.6188 700.232 31.1157 699.499 33.5928L692.608 56.8758C691.963 59.0532 691.677 60.533 691.75 61.3149C691.829 62.0769 692.288 62.582 693.127 62.8304C694.046 63.1023 694.78 62.8961 695.33 62.2116C695.901 61.533 696.52 60.065 697.188 57.8076L698.891 52.0543L696.344 51.3005L698.525 43.929L713.298 48.3012L705.591 74.3409L697.651 71.9908L697.511 68.169C696.208 69.413 694.786 70.2195 693.242 70.5884C691.725 70.9432 690.078 70.8575 688.3 70.3314C686.182 69.7046 684.345 68.607 682.789 67.0383C681.258 65.4556 680.238 63.7632 679.729 61.9612C679.219 60.1592 679.09 58.3936 679.341 56.6646C679.598 54.9156 680.22 52.373 681.207 49.0369L685.473 34.6237C686.845 29.989 688.091 26.6969 689.211 24.7471C690.331 22.7973 692.327 21.3023 695.199 20.262C698.096 19.2076 701.423 19.2361 705.178 20.3476C708.874 21.4414 711.716 23.1081 713.704 25.3476C715.692 27.5871 716.745 29.8651 716.863 32.1814C716.987 34.4777 716.461 37.6136 715.285 41.589L714.664 43.6865ZM722.779 69.4427L719.196 79.1127L710.258 75.8008L713.842 66.1309L722.779 69.4427Z" fill="white"/>
</g>
<defs>
<filter id="filter0_d_2063_5991" x="0" y="0" width="726.779" height="121.848" filterUnits="userSpaceOnUse" color-interpolation-filters="sRGB">
<feFlood flood-opacity="0" result="BackgroundImageFix"/>
<feColorMatrix in="SourceAlpha" type="matrix" values="0 0 0 0 0 0 0 0 0 0 0 0 0 0 0 0 0 0 127 0" result="hardAlpha"/>
<feOffset dx="4" dy="6"/>
<feComposite in2="hardAlpha" operator="out"/>
<feColorMatrix type="matrix" values="0 0 0 0 0 0 0 0 0 0 0 0 0 0 0 0 0 0 0.1 0"/>
<feBlend mode="normal" in2="BackgroundImageFix" result="effect1_dropShadow_2063_5991"/>
<feBlend mode="normal" in="SourceGraphic" in2="effect1_dropShadow_2063_5991" result="shape"/>
</filter>
</defs>
</svg>
