<svg width="94" height="94" viewBox="0 0 94 94" fill="none" xmlns="http://www.w3.org/2000/svg">
<rect width="94" height="94" rx="47" fill="#FFD700"/>
<path d="M47.499 24.7002C53.1677 24.7004 58.8001 25.7926 63.0977 27.9414C67.3333 30.0592 69.3259 32.71 69.7178 35.1807C70.1072 37.6357 68.9516 40.1422 66.3848 42.0801L66.1064 42.29V68.6523C66.1064 69.0099 65.8165 69.2996 65.459 69.2998H29.5371C29.1796 69.2997 28.8896 69.0099 28.8896 68.6523V42.2598L28.6426 42.0498C26.2734 40.039 25.1994 38.0631 25.1992 36.1758C25.1992 33.1317 27.4357 30.1727 31.8984 27.9414C36.1978 25.7917 41.8305 24.7 47.499 24.7002ZM47.498 25.9941C42.0904 25.9941 36.6429 27.017 32.4775 29.0996C28.8617 30.9075 26.4941 33.4372 26.4941 36.1758C26.4943 37.3016 27.0263 38.3417 27.6826 39.2061C28.3455 40.0789 29.1902 40.845 29.9395 41.4385C30.0946 41.5613 30.1846 41.7484 30.1846 41.9463V68.0049H64.8105V41.9463C64.8106 41.8404 64.8371 41.7361 64.8867 41.6426C64.9363 41.5492 65.0081 41.4694 65.0957 41.4102L65.3555 41.2295C66.6294 40.3214 67.5196 39.3267 68.0225 38.2656C68.565 37.1207 68.6356 35.9392 68.2998 34.7969C67.6415 32.5577 65.4623 30.5715 62.5186 29.0996C58.3538 27.0172 52.9058 25.9942 47.498 25.9941Z" fill="#0044CC"/>
<path d="M57.7317 37.1996C57.9846 36.9468 58.3949 36.9468 58.6477 37.1996C58.869 37.4209 58.8967 37.7627 58.7307 38.0141L58.6477 38.1156L35.8284 60.935C35.5755 61.1879 35.1652 61.1879 34.9123 60.935C34.6594 60.6821 34.6594 60.2719 34.9123 60.019L57.7317 37.1996ZM58.9895 44.0278C59.2424 43.7748 59.6527 43.7749 59.9055 44.0278C60.1582 44.2807 60.1584 44.6909 59.9055 44.9438L43.9592 60.8901C43.7064 61.1429 43.2961 61.1428 43.0432 60.8901C42.7903 60.6371 42.7903 60.227 43.0432 59.974L58.9895 44.0278ZM58.9895 52.1137C59.2426 51.8607 59.6529 51.86 59.9055 52.1127C60.1583 52.3655 60.1581 52.7758 59.9055 53.0287L52.0442 60.8901C51.7912 61.1428 51.3809 61.1428 51.1282 60.8901C50.8754 60.6372 50.8755 60.2269 51.1282 59.974L58.9895 52.1137ZM49.6457 37.1996C49.8986 36.9467 50.309 36.9469 50.5618 37.1996C50.8147 37.4525 50.8147 37.8627 50.5618 38.1156L35.8284 52.849C35.5755 53.102 35.1652 53.1019 34.9123 52.849C34.6597 52.5962 34.6598 52.1869 34.9123 51.934L49.6457 37.1996ZM41.5608 37.1996C41.8137 36.9469 42.2241 36.9469 42.4768 37.1996C42.7295 37.4525 42.7295 37.8628 42.4768 38.1156L35.8284 44.7641C35.5755 45.0169 35.1652 45.0169 34.9123 44.7641C34.6595 44.5112 34.6595 44.101 34.9123 43.8481L41.5608 37.1996Z" fill="#0044CC"/>
<path d="M58.2812 61.8246C59.0254 61.8246 59.6288 61.2212 59.6288 60.477C59.6288 59.7327 59.0254 59.1294 58.2812 59.1294C57.5369 59.1294 56.9336 59.7327 56.9336 60.477C56.9336 61.2212 57.5369 61.8246 58.2812 61.8246Z" fill="#0044CC"/>
<path d="M35.2812 38.9154C36.0254 38.9154 36.6288 38.3121 36.6288 37.5678C36.6288 36.8236 36.0254 36.2202 35.2812 36.2202C34.5369 36.2202 33.9336 36.8236 33.9336 37.5678C33.9336 38.3121 34.5369 38.9154 35.2812 38.9154Z" fill="#0044CC"/>
</svg>
