<svg width="428" height="129" viewBox="0 0 428 129" fill="none" xmlns="http://www.w3.org/2000/svg">
<g filter="url(#filter0_d_6001_686)">
<path d="M80.296 5.4999L72.8634 28.0826C71.7505 31.4637 70.999 33.6299 70.6089 34.581C70.2233 35.5181 69.6171 36.2824 68.7901 36.8739C67.9771 37.4699 67.0332 37.7607 65.9585 37.7462C64.9022 37.7224 63.4001 37.3899 61.4521 36.7488L57.0483 35.2994L58.9923 29.3928C59.5073 29.6086 59.8831 29.7554 60.1196 29.8332C60.7458 30.0393 61.2901 30.0488 61.7526 29.8618C62.2151 29.6748 62.5475 29.3678 62.7497 28.9408C62.9519 28.5139 63.2637 27.6604 63.685 26.3803L71.5092 2.6079L80.296 5.4999ZM96.9524 31.9055C95.9791 35.3446 95.2044 37.7591 94.6283 39.1489C94.0704 40.5286 93.194 41.6887 91.9991 42.6294C90.8183 43.574 89.4123 44.158 87.781 44.3813C86.1497 44.6047 84.3686 44.4432 82.4376 43.8966C80.6053 43.3781 79.04 42.6153 77.7417 41.6085C76.4614 40.5915 75.5469 39.3584 74.998 37.909C74.4491 36.4596 74.2895 35.0062 74.5193 33.5489C74.7491 32.0915 75.3626 29.601 76.3599 26.0773L78.0174 20.2209C78.9908 16.7818 79.7564 14.3724 80.3144 12.9927C80.8904 11.6029 81.7688 10.4357 82.9496 9.49107C84.1445 8.55045 85.5575 7.96845 87.1888 7.74506C88.8201 7.52168 90.6012 7.68325 92.5322 8.22976C94.3645 8.74835 95.9208 9.51613 97.201 10.5331C98.4993 11.5399 99.4229 12.7681 99.9718 14.2174C100.521 15.6668 100.68 17.1202 100.451 18.5775C100.221 20.0349 99.6072 22.5254 98.6099 26.0491L96.9524 31.9055ZM91.2349 18.1387C91.6857 16.546 91.8813 15.5052 91.8217 15.0164C91.7802 14.5175 91.4846 14.1903 90.9349 14.0347C90.4698 13.903 90.0585 13.9846 89.7011 14.2792C89.3618 14.5638 88.9428 15.587 88.4441 17.3488L83.9204 33.3323C83.3579 35.3197 83.0884 36.5679 83.1118 37.0769C83.1493 37.5899 83.464 37.9302 84.056 38.0977C84.6621 38.2692 85.1255 38.1111 85.4462 37.6234C85.767 37.1357 86.2125 35.884 86.783 33.8685L91.2349 18.1387ZM113.387 14.4115L105.304 49.0549L96.2958 46.9531L104.378 12.3097L113.387 14.4115ZM135.828 18.6941L129.232 53.651L121.265 52.1476L119.535 35.3639L116.537 51.2554L108.936 49.8213L115.532 14.8644L123.133 16.2985L125.258 33.0003L128.228 17.26L135.828 18.6941ZM163.288 22.1131L162.49 29.1874L157.031 28.572L153.843 56.8474L144.651 55.811L147.839 27.5356L142.402 26.9226L143.2 19.8483L163.288 22.1131ZM184.626 23.2647L182.64 58.7829L173.404 58.2663L174.238 43.3482L171.474 43.1936L170.639 58.1117L161.403 57.5951L163.39 22.0769L172.626 22.5935L171.916 35.2958L174.68 35.4504L175.39 22.7481L184.626 23.2647ZM186.33 23.3126L201.755 23.2964L201.762 30.4155L195.588 30.422L195.595 37.1676L201.374 37.1615L201.381 43.9291L195.602 43.9352L195.61 51.7574L202.4 51.7503L202.407 58.8694L186.367 58.8863L186.33 23.3126Z" fill="#0044CC"/>
</g>
<g filter="url(#filter1_d_6001_686)">
<path d="M150.483 86.5936L141.397 84.8586L142.559 78.7723C142.897 77.0025 143.006 75.8825 142.887 75.4124C142.785 74.9307 142.403 74.6266 141.742 74.5002C140.993 74.3573 140.468 74.5329 140.165 75.0268C139.861 75.5207 139.541 76.6525 139.203 78.4223L136.104 94.6525C135.78 96.3503 135.669 97.4775 135.771 98.0339C135.874 98.5904 136.278 98.9359 136.983 99.0705C137.659 99.1997 138.147 99.0245 138.448 98.545C138.762 98.0682 139.102 96.873 139.468 94.9593L140.304 90.578L149.391 92.3131L149.131 93.6728C148.441 97.2843 147.693 99.796 146.887 101.208C146.095 102.622 144.713 103.731 142.74 104.532C140.782 105.336 138.522 105.494 135.961 105.005C133.299 104.497 131.197 103.596 129.655 102.302C128.112 101.008 127.222 99.4587 126.986 97.6537C126.751 95.8343 126.961 93.2124 127.615 89.788L129.564 79.5793C130.045 77.0614 130.492 75.193 130.903 73.9741C131.318 72.7409 132.061 71.6226 133.132 70.6193C134.218 69.6186 135.579 68.9316 137.217 68.5583C138.871 68.1732 140.684 68.1689 142.655 68.5453C145.331 69.0564 147.441 69.9961 148.984 71.3645C150.527 72.7329 151.424 74.2463 151.674 75.9047C151.927 77.5487 151.741 80.0037 151.118 83.2699L150.483 86.5936ZM154.338 71.4919L160.837 72.2914C165.169 72.8245 168.078 73.3521 169.564 73.8743C171.064 74.3983 172.209 75.4099 172.998 76.9092C173.804 78.3957 174.022 80.6437 173.652 83.6532C173.314 86.4011 172.745 88.2055 171.945 89.0664C171.146 89.9274 169.731 90.3289 167.701 90.2711C169.463 90.9454 170.61 91.699 171.142 92.5319C171.675 93.3649 171.974 94.1101 172.041 94.7677C172.124 95.4126 171.99 97.1598 171.639 100.009L170.494 109.322L161.967 108.272L163.41 96.5396C163.643 94.6495 163.634 93.4604 163.384 92.9721C163.149 92.4856 162.399 92.1646 161.134 92.009L159.175 107.929L149.994 106.799L154.338 71.4919ZM162.776 78.6623L161.81 86.5133C162.842 86.6403 163.579 86.5907 164.02 86.3646C164.477 86.1257 164.802 85.2284 164.993 83.6727L165.232 81.7318C165.37 80.6123 165.257 79.8531 164.892 79.454C164.543 79.0568 163.837 78.7929 162.776 78.6623ZM197.039 75.2807L195.724 99.0187C195.575 101.71 195.383 103.599 195.146 104.686C194.911 105.759 194.33 106.849 193.403 107.957C192.477 109.05 191.288 109.857 189.836 110.378C188.399 110.885 186.723 111.086 184.807 110.98C182.686 110.862 180.834 110.408 179.249 109.616C177.664 108.824 176.501 107.843 175.759 106.672C175.017 105.501 174.607 104.29 174.53 103.039C174.453 101.773 174.526 99.1361 174.748 95.1286L175.911 74.111L185.148 74.6223L183.673 101.256C183.587 102.807 183.613 103.806 183.749 104.253C183.901 104.687 184.233 104.918 184.745 104.947C185.33 104.979 185.716 104.766 185.903 104.307C186.105 103.834 186.255 102.712 186.353 100.943L187.802 74.7693L197.039 75.2807ZM226.302 74.5841L227.178 110.147L219.094 110.346L218.503 86.3374L215.865 110.426L210.132 110.567L206.15 87.1913L206.728 110.651L198.644 110.85L197.768 75.2872L209.739 74.9922C210.143 77.1216 210.579 79.6311 211.046 82.5209L212.543 91.5395L214.242 74.8813L226.302 74.5841ZM227.026 74.5363L236.201 73.5397C239.099 73.225 241.315 73.2126 242.85 73.5027C244.399 73.7912 245.707 74.5774 246.775 75.8612C247.841 77.1304 248.54 79.2942 248.872 82.3523C249.097 84.4203 248.926 85.8976 248.359 86.7843C247.807 87.6694 246.601 88.434 244.74 89.0781C246.919 89.3277 248.447 89.9721 249.326 91.0112C250.204 92.0357 250.768 93.6984 251.018 95.9993L251.374 99.2759C251.633 101.664 251.548 103.464 251.12 104.674C250.706 105.883 249.925 106.764 248.777 107.316C247.629 107.868 245.205 108.345 241.506 108.746L230.868 109.902L227.026 74.5363ZM236.88 79.5882L237.734 87.4521C238.126 87.3948 238.431 87.3543 238.649 87.3306C239.552 87.2325 240.104 86.9516 240.304 86.4878C240.502 86.0095 240.488 84.7218 240.26 82.6248C240.14 81.518 239.954 80.7572 239.703 80.3425C239.45 79.9132 239.149 79.6585 238.802 79.5784C238.469 79.4967 237.828 79.4999 236.88 79.5882ZM238.332 92.9568L239.407 102.852C240.698 102.668 241.499 102.375 241.809 101.972C242.133 101.569 242.218 100.653 242.063 99.2263L241.705 95.9279C241.54 94.4133 241.281 93.5133 240.925 93.2277C240.57 92.9421 239.706 92.8518 238.332 92.9568ZM280.58 81.8542L271.516 83.7014L270.279 77.6298C269.919 75.8644 269.595 74.7868 269.306 74.3972C269.029 73.9902 268.56 73.854 267.9 73.9886C267.153 74.1407 266.734 74.5027 266.641 75.0748C266.548 75.6468 266.682 76.8155 267.041 78.581L270.341 94.7717C270.686 96.4654 271.012 97.5501 271.318 98.0259C271.624 98.5017 272.129 98.6679 272.832 98.5246C273.507 98.3871 273.892 98.0396 273.988 97.4819C274.098 96.9213 273.958 95.6865 273.569 93.7775L272.678 89.4068L281.743 87.5597L282.019 88.9161C282.753 92.5188 283.016 95.1264 282.806 96.7388C282.611 98.3483 281.753 99.8984 280.233 101.389C278.727 102.877 276.697 103.881 274.142 104.402C271.487 104.943 269.2 104.908 267.281 104.298C265.363 103.687 263.951 102.592 263.046 101.012C262.139 99.4181 261.337 96.9131 260.64 93.4969L258.565 83.3132C258.053 80.8013 257.756 78.9035 257.674 77.6196C257.589 76.3214 257.851 75.0047 258.461 73.6695C259.085 72.3314 260.084 71.1786 261.456 70.2113C262.84 69.2266 264.516 68.5339 266.482 68.1332C269.152 67.5891 271.46 67.6569 273.408 68.3364C275.355 69.0159 276.759 70.0752 277.621 71.5142C278.479 72.9389 279.24 75.2804 279.904 78.5386L280.58 81.8542ZM278.232 66.4592L284.539 64.698C288.743 63.524 291.631 62.8923 293.203 62.8031C294.79 62.71 296.235 63.2036 297.541 64.2839C298.856 65.3461 299.922 67.3375 300.738 70.258C301.482 72.9245 301.651 74.8089 301.244 75.9111C300.837 77.0134 299.686 77.928 297.79 78.6552C299.676 78.6 301.024 78.8546 301.836 79.4188C302.647 79.9831 303.21 80.5559 303.525 81.1373C303.849 81.7006 304.398 83.3649 305.17 86.1302L307.693 95.1668L299.419 97.4775L296.239 86.0919C295.727 84.2577 295.262 83.1634 294.843 82.8087C294.439 82.4502 293.623 82.4423 292.396 82.785L296.71 98.234L287.8 100.722L278.232 66.4592ZM288.779 69.8333L290.906 77.452C291.908 77.1722 292.569 76.8432 292.889 76.4648C293.22 76.0684 293.174 75.1153 292.752 73.6057L292.227 71.7222C291.923 70.6358 291.527 69.9785 291.037 69.7502C290.562 69.518 289.809 69.5457 288.779 69.8333ZM314.439 55.2309L331.197 87.054L322.259 90.1847L319.71 84.3027L316.579 85.3995L318.174 91.6157L309.132 94.7826L301.81 59.6545L314.439 55.2309ZM317.376 78.4382C315.602 74.7914 313.516 70.2528 311.117 64.8225C312.479 71.5472 313.57 76.4344 314.39 79.4842L317.376 78.4382ZM333.444 47.6583L336.149 54.2437L337.873 76.6006L344.255 73.9793L346.959 80.5646L331.187 87.0427L329.225 82.2663L326.962 58.017L321.149 60.4045L318.444 53.8192L333.444 47.6583ZM334.049 47.3582L348.014 40.8076L351.037 47.2529L345.448 49.875L348.312 55.9821L353.544 53.528L356.418 59.655L351.186 62.1091L354.508 69.1909L360.655 66.3076L363.678 72.7528L349.157 79.5647L334.049 47.3582ZM367.801 62.5313L371.103 68.9866L365.137 72.0388L361.834 65.5835L367.801 62.5313Z" fill="#0044CC"/>
</g>
<defs>
<filter id="filter0_d_6001_686" x="57.0483" y="1.33301" width="149.359" height="63.665" filterUnits="userSpaceOnUse" color-interpolation-filters="sRGB">
<feFlood flood-opacity="0" result="BackgroundImageFix"/>
<feColorMatrix in="SourceAlpha" type="matrix" values="0 0 0 0 0 0 0 0 0 0 0 0 0 0 0 0 0 0 127 0" result="hardAlpha"/>
<feOffset dx="4" dy="6"/>
<feComposite in2="hardAlpha" operator="out"/>
<feColorMatrix type="matrix" values="0 0 0 0 0 0 0 0 0 0 0 0 0 0 0 0 0 0 0.1 0"/>
<feBlend mode="normal" in2="BackgroundImageFix" result="effect1_dropShadow_6001_686"/>
<feBlend mode="normal" in="SourceGraphic" in2="effect1_dropShadow_6001_686" result="shape"/>
</filter>
<filter id="filter1_d_6001_686" x="125.105" y="40.1978" width="249.998" height="77.8125" filterUnits="userSpaceOnUse" color-interpolation-filters="sRGB">
<feFlood flood-opacity="0" result="BackgroundImageFix"/>
<feColorMatrix in="SourceAlpha" type="matrix" values="0 0 0 0 0 0 0 0 0 0 0 0 0 0 0 0 0 0 127 0" result="hardAlpha"/>
<feOffset dx="4" dy="6"/>
<feComposite in2="hardAlpha" operator="out"/>
<feColorMatrix type="matrix" values="0 0 0 0 0 0 0 0 0 0 0 0 0 0 0 0 0 0 0.1 0"/>
<feBlend mode="normal" in2="BackgroundImageFix" result="effect1_dropShadow_6001_686"/>
<feBlend mode="normal" in="SourceGraphic" in2="effect1_dropShadow_6001_686" result="shape"/>
</filter>
</defs>
</svg>
