<svg width="601" height="123" viewBox="0 0 601 123" fill="none" xmlns="http://www.w3.org/2000/svg">
<g filter="url(#filter0_d_2059_5817)">
<path d="M38.8767 39.5902L23.7458 69.8283C21.4804 74.3556 19.9748 77.248 19.2291 78.5056C18.4926 79.7445 17.4815 80.6945 16.1955 81.3556C14.9282 82.026 13.5399 82.2399 12.0306 81.9972C10.5493 81.7452 8.50449 80.9666 5.89615 79.6614L-0.00055295 76.7107L3.95696 68.8019C4.63697 69.212 5.13534 69.4963 5.45207 69.6548C6.29046 70.0744 7.05441 70.2004 7.74392 70.0329C8.43343 69.8654 8.96461 69.5022 9.33746 68.9433C9.71031 68.3844 10.3256 67.2479 11.1833 65.5339L27.1112 33.7028L38.8767 39.5902ZM57.6086 78.6251C55.7897 83.3719 54.3834 86.6927 53.3896 88.5876C52.4227 90.4705 51.0328 92.0016 49.22 93.181C47.4266 94.3679 45.3603 95.0152 43.0211 95.1228C40.6818 95.2305 38.1796 94.7737 35.5144 93.7524C32.9854 92.7834 30.8658 91.5027 29.1557 89.9104C27.4724 88.306 26.3348 86.4423 25.7428 84.319C25.1508 82.1958 25.1108 80.1168 25.6228 78.0819C26.1348 76.0471 27.3226 72.5979 29.1862 67.7344L32.2834 59.6512C34.1023 54.9044 35.4951 51.5896 36.462 49.7067C37.4558 47.8118 38.8494 46.271 40.6428 45.0841C42.4557 43.9047 44.5317 43.2611 46.8709 43.1535C49.2101 43.0458 51.7123 43.5026 54.3776 44.5239C56.9066 45.4929 59.0127 46.7796 60.696 48.384C62.4061 49.9763 63.5572 51.834 64.1492 53.9573C64.7411 56.0805 64.7811 58.1595 64.2692 60.1944C63.7572 62.2292 62.5694 65.6784 60.7058 70.5419L57.6086 78.6251ZM51.2719 58.3934C52.1142 56.1951 52.5244 54.7459 52.5026 54.0459C52.5077 53.3339 52.1309 52.8326 51.3722 52.5419C50.7302 52.2959 50.1372 52.3587 49.5932 52.7303C49.0762 53.09 48.3517 54.4856 47.4199 56.9174L38.9668 78.9783C37.9157 81.7214 37.3742 83.4549 37.3422 84.1788C37.3296 84.9103 37.7319 85.4325 38.549 85.7456C39.3855 86.0662 40.0621 85.9015 40.5788 85.2517C41.0955 84.6019 41.8869 82.886 42.9528 80.1041L51.2719 58.3934ZM82.6812 55.2819L68.599 103.876L55.9626 100.214L70.0448 51.62L82.6812 55.2819ZM113.909 61.8575L103.721 111.415L92.426 109.093L90.3539 85.1858L85.7224 107.715L74.9477 105.5L85.1359 55.9422L95.9105 58.1573L98.547 81.957L103.134 59.6424L113.909 61.8575ZM152.67 65.4669L151.96 75.5669L144.166 75.019L141.328 115.388L128.204 114.465L131.042 74.0963L123.28 73.5505L123.99 63.4505L152.67 65.4669ZM181.988 64.4243L183.619 114.992L170.469 115.416L169.785 94.1768L165.849 94.3037L166.534 115.543L153.385 115.967L151.754 65.3993L164.903 64.9752L165.487 83.0596L169.422 82.9327L168.839 64.8483L181.988 64.4243ZM183.463 64.369L205.207 61.4625L206.549 71.4982L197.845 72.6617L199.116 82.1708L207.262 81.0819L208.537 90.6221L200.391 91.711L201.865 102.738L211.436 101.459L212.778 111.494L190.166 114.517L183.463 64.369ZM251.862 72.1629L239.204 75.7505L236.801 67.272C236.103 64.8066 235.528 63.313 235.077 62.7912C234.64 62.2437 233.961 62.1007 233.039 62.362C231.996 62.6574 231.44 63.2157 231.37 64.0368C231.299 64.858 231.613 66.5013 232.312 68.9666L238.72 91.576C239.391 93.9412 239.968 95.4448 240.454 96.0868C240.939 96.7289 241.672 96.9107 242.655 96.6323C243.597 96.3653 244.106 95.8313 244.182 95.0302C244.278 94.2234 243.948 92.4871 243.193 89.8212L241.463 83.7179L254.12 80.1303L254.657 82.0244C256.083 87.0554 256.734 90.7255 256.609 93.0346C256.504 95.338 255.453 97.628 253.456 99.9046C251.48 102.175 248.708 103.816 245.14 104.828C241.432 105.879 238.185 106.074 235.399 105.412C232.613 104.751 230.494 103.349 229.042 101.205C227.584 99.0416 226.179 95.5745 224.827 90.8041L220.796 76.5831C219.802 73.0754 219.178 70.4156 218.924 68.6036C218.665 66.7716 218.897 64.8762 219.619 62.9175C220.361 60.953 221.654 59.2116 223.498 57.693C225.355 56.1488 227.657 54.9875 230.403 54.2092C234.131 53.1525 237.412 53.0021 240.247 53.7578C243.081 54.5135 245.186 55.8658 246.561 57.8147C247.931 59.7435 249.26 62.9829 250.55 67.5328L251.862 72.1629ZM246.05 50.9096L254.663 47.3673C260.404 45.0058 264.378 43.6305 266.583 43.2416C268.808 42.8447 270.932 43.3 272.957 44.6074C274.993 45.8875 276.831 48.5218 278.471 52.5101C279.969 56.1516 280.523 58.7848 280.132 60.4096C279.742 62.0345 278.269 63.5189 275.713 64.863C278.367 64.4697 280.314 64.6036 281.555 65.2648C282.795 65.9259 283.686 66.6407 284.228 67.4092C284.78 68.1506 285.833 70.4094 287.386 74.1858L292.462 86.5265L281.162 91.1743L274.767 75.6256C273.737 73.1208 272.896 71.653 272.246 71.2222C271.615 70.7834 270.461 70.9087 268.785 71.5981L277.463 92.6958L265.295 97.7002L246.05 50.9096ZM261.51 53.9108L265.79 64.3151C267.158 63.7525 268.036 63.1772 268.425 62.5892C268.825 61.974 268.601 60.6356 267.753 58.5741L266.696 56.0019C266.085 54.5183 265.415 53.6562 264.686 53.4157C263.975 53.1673 262.917 53.3323 261.51 53.9108ZM306.793 25.9328L319.649 57.206C321.106 60.7514 322.016 63.2943 322.379 64.8345C322.734 66.3554 322.656 68.1107 322.145 70.1002C321.626 72.0705 320.594 73.8349 319.05 75.3932C317.517 76.9244 315.488 78.2088 312.964 79.2465C310.17 80.395 307.514 80.9465 304.995 80.9008C302.476 80.8551 300.381 80.3083 298.712 79.2602C297.042 78.2122 295.774 76.9089 294.908 75.3502C294.034 73.7723 292.512 70.3436 290.342 65.0639L278.959 37.3747L291.127 32.3726L305.552 67.461C306.391 69.5035 307.036 70.7702 307.485 71.2611C307.946 71.7249 308.514 71.8181 309.188 71.5409C309.959 71.224 310.324 70.7138 310.282 70.01C310.252 69.2791 309.758 67.7479 308.799 65.4164L294.625 30.9349L306.793 25.9328ZM357.483 10.9462L371.104 59.6717L360.029 62.7679L350.833 29.8729L355.605 64.0047L347.75 66.2007L334.099 35.3622L343.085 67.5048L332.01 70.601L318.388 21.8755L334.79 17.29C336.091 20.0848 337.567 23.3928 339.22 27.214L344.432 39.1256L340.96 15.5653L357.483 10.9462ZM369.719 8.22142L382.69 6.21472C386.787 5.58086 389.935 5.4206 392.134 5.73394C394.353 6.0441 396.263 7.0768 397.862 8.83203C399.459 10.5667 400.592 13.5958 401.26 17.9193C401.713 20.8429 401.565 22.9528 400.817 24.2491C400.089 25.5422 398.425 26.7062 395.823 27.7411C398.934 27.9555 401.148 28.7725 402.463 30.1922C403.776 31.5913 404.684 33.9173 405.187 37.1703L405.904 41.8026C406.426 45.1791 406.422 47.7412 405.892 49.4887C405.381 51.233 404.328 52.5343 402.733 53.3926C401.137 54.2508 397.724 55.0845 392.495 55.8935L377.455 58.2203L369.719 8.22142ZM384.044 14.7644L385.764 25.8822C386.317 25.7756 386.748 25.6984 387.057 25.6506C388.333 25.4531 389.099 25.0185 389.353 24.3467C389.604 23.6543 389.501 21.8257 389.042 18.861C388.8 17.2963 388.487 16.2274 388.103 15.6543C387.716 15.0607 387.273 14.7181 386.774 14.6267C386.296 14.5321 385.386 14.578 384.044 14.7644ZM386.968 33.6646L389.133 47.6544C390.956 47.3091 392.074 46.8409 392.489 46.2498C392.924 45.6554 392.985 44.3494 392.673 42.3318L391.952 37.6685C391.62 35.5273 391.193 34.2653 390.67 33.8824C390.147 33.4995 388.913 33.4269 386.968 33.6646ZM456.524 22.9277L443.369 23.1262L443.236 14.3147C443.198 11.7525 443.028 10.1612 442.727 9.54063C442.446 8.89895 441.827 8.58535 440.869 8.59981C439.785 8.61616 439.104 9.01191 438.824 9.78706C438.544 10.5622 438.423 12.2309 438.462 14.7931L438.816 38.2904C438.854 40.7485 439.024 42.3503 439.326 43.0958C439.629 43.8413 440.291 44.2063 441.312 44.1909C442.291 44.1761 442.921 43.7916 443.201 43.0373C443.502 42.2827 443.632 40.5201 443.59 37.7496L443.494 31.4065L456.649 31.208L456.679 33.1765C456.758 38.4051 456.439 42.1187 455.722 44.3172C455.026 46.5155 453.419 48.4566 450.903 50.1406C448.407 51.8243 445.305 52.6941 441.597 52.7501C437.744 52.8083 434.556 52.1584 432.036 50.8004C429.515 49.4425 427.83 47.5406 426.98 45.0948C426.13 42.6282 425.668 38.916 425.593 33.9582L425.37 19.1787C425.315 15.5332 425.399 12.8025 425.622 10.9864C425.844 9.14954 426.557 7.37816 427.76 5.6723C428.985 3.96613 430.683 2.61743 432.856 1.62619C435.049 0.613806 437.573 0.0860779 440.427 0.043004C444.301 -0.015476 447.51 0.686177 450.053 2.14796C452.597 3.60975 454.281 5.45954 455.107 7.69734C455.932 9.9143 456.38 13.3871 456.451 18.1157L456.524 22.9277ZM467.169 1.20966L476.449 1.99066C482.635 2.51132 486.799 3.10212 488.938 3.76306C491.098 4.42574 492.781 5.80083 493.985 7.88834C495.212 9.95684 495.644 13.1397 495.282 17.437C494.952 21.3607 494.242 23.9561 493.153 25.2234C492.064 26.4907 490.075 27.1387 487.188 27.1675C489.729 28.0294 491.4 29.0377 492.202 30.1924C493.004 31.347 493.47 32.3898 493.601 33.3207C493.754 34.2326 493.659 36.723 493.317 40.792L492.198 54.0887L480.022 53.064L481.432 36.3107C481.659 33.6119 481.582 31.9224 481.2 31.2422C480.839 30.5637 479.755 30.1484 477.949 29.9964L476.036 52.7285L462.926 51.6252L467.169 1.20966ZM479.553 10.9388L478.61 22.1491C480.084 22.2732 481.128 22.1625 481.742 21.8169C482.379 21.4524 482.791 20.1595 482.978 17.9382L483.212 15.1667C483.346 13.5682 483.144 12.4954 482.604 11.9482C482.086 11.4028 481.069 11.0663 479.553 10.9388ZM529.954 9.17473L528.291 60.2989L515.041 57.884L516.026 48.8199L511.384 47.9739L508.984 56.7802L495.58 54.3372L511.231 5.76243L529.954 9.17473ZM517.265 39.9293C517.636 34.1734 518.249 27.0956 519.102 18.6958C516.057 27.9668 513.969 34.7756 512.838 39.1224L517.265 39.9293ZM566.262 18.149L563.593 27.9156L546.126 54.5979L555.591 57.1854L552.921 66.9521L529.53 60.5575L531.466 53.4737L549.968 24.191L541.346 21.8342L544.016 12.0676L566.262 18.149ZM575.032 20.9977L595.593 28.6462L592.063 38.1358L583.832 35.0743L580.487 44.0661L588.19 46.9315L584.835 55.9526L577.132 53.0871L573.253 63.5141L582.303 66.8807L578.773 76.3704L557.392 68.4169L575.032 20.9977ZM595.09 72.3826L590.732 81.7292L582.093 77.7016L586.451 68.355L595.09 72.3826Z" fill="#0044CC"/>
</g>
<defs>
<filter id="filter0_d_2059_5817" x="0" y="0" width="600.412" height="122.196" filterUnits="userSpaceOnUse" color-interpolation-filters="sRGB">
<feFlood flood-opacity="0" result="BackgroundImageFix"/>
<feColorMatrix in="SourceAlpha" type="matrix" values="0 0 0 0 0 0 0 0 0 0 0 0 0 0 0 0 0 0 127 0" result="hardAlpha"/>
<feOffset dx="4" dy="6"/>
<feComposite in2="hardAlpha" operator="out"/>
<feColorMatrix type="matrix" values="0 0 0 0 0 0 0 0 0 0 0 0 0 0 0 0 0 0 0.1 0"/>
<feBlend mode="normal" in2="BackgroundImageFix" result="effect1_dropShadow_2059_5817"/>
<feBlend mode="normal" in="SourceGraphic" in2="effect1_dropShadow_2059_5817" result="shape"/>
</filter>
</defs>
</svg>
