<svg width="442" height="33" viewBox="0 0 442 33" fill="none" xmlns="http://www.w3.org/2000/svg">
<path d="M449.447 16.9462C451.841 24.5694 446.148 32.3252 438.158 32.3252H3.84138C-4.14887 32.3252 -9.84228 24.5693 -7.44795 16.9463L-3.91372 5.69399C-1.52958 -1.89667 9.21279 -1.89656 11.5968 5.69415C13.9807 13.2848 24.7231 13.2846 27.1074 5.694C29.4916 -1.89666 40.2342 -1.8969 42.6182 5.69385C45.0022 13.2846 55.7446 13.2847 58.1288 5.69404C60.5131 -1.89669 71.2559 -1.89585 73.6399 5.69498C76.024 13.2863 86.7675 13.287 89.1519 5.69575C91.5363 -1.89542 102.279 -1.89546 104.664 5.6958C107.048 13.2871 117.791 13.287 120.175 5.6958C122.56 -1.89537 133.303 -1.89546 135.687 5.6958C138.071 13.2871 148.814 13.287 151.199 5.6958C153.583 -1.89537 164.326 -1.89546 166.71 5.6958C169.095 13.2871 179.838 13.2861 182.222 5.69489C184.607 -1.89577 195.349 -1.89678 197.733 5.69395C200.117 13.2847 210.86 13.2845 213.244 5.6939C215.628 -1.89676 226.371 -1.8969 228.755 5.69385C231.139 13.2846 241.881 13.2847 244.266 5.69404C246.65 -1.89669 257.393 -1.89585 259.777 5.69498C262.161 13.2863 272.904 13.2871 275.289 5.69588C277.673 -1.89538 288.416 -1.89467 290.801 5.69667C293.185 13.2884 303.929 13.2882 306.314 5.69654C308.698 -1.89464 319.442 -1.89549 321.826 5.69578C324.21 13.287 334.953 13.2861 337.338 5.69488C339.722 -1.89578 350.465 -1.89678 352.849 5.69395C355.233 13.2847 365.975 13.2838 368.36 5.69315C370.744 -1.89704 381.486 -1.89792 383.87 5.69236C386.253 13.2826 396.995 13.2827 399.379 5.69254C401.763 -1.89772 412.506 -1.89612 414.89 5.69424C417.274 13.2855 428.017 13.287 430.402 5.6958C432.786 -1.89548 443.53 -1.89553 445.914 5.69582L449.447 16.9462Z" fill="#FFD700"/>
</svg>
