<svg width="1440" height="44" viewBox="0 0 1440 44" fill="none" xmlns="http://www.w3.org/2000/svg">
<path d="M1462.66 6.20366C1476.78 19.9228 1467.06 43.8479 1447.38 43.8479H-7.70308C-27.3851 43.8479 -37.0976 19.9228 -22.985 6.20366C-14.476 -2.06804 -0.930189 -2.06804 7.57878 6.20363L28.9288 26.9583C37.4673 35.2586 51.0601 35.2586 59.5985 26.9583L80.8956 6.25509C89.4341 -2.04524 103.027 -2.04524 111.565 6.25509L132.862 26.9583C141.401 35.2586 154.994 35.2586 163.532 26.9583L184.829 6.25509C193.368 -2.04524 206.96 -2.04524 215.499 6.2551L236.797 26.9593C245.335 35.2596 258.928 35.2596 267.467 26.9593L288.765 6.25509C297.303 -2.04525 310.896 -2.04524 319.434 6.25509L340.732 26.9583C349.27 35.2586 362.863 35.2586 371.401 26.9583L392.698 6.25509C401.237 -2.04524 414.83 -2.04524 423.368 6.2551L444.666 26.9593C453.205 35.2596 466.797 35.2596 475.336 26.9593L496.634 6.25509C505.172 -2.04525 518.765 -2.04524 527.304 6.25509L548.601 26.9583C557.139 35.2586 570.732 35.2586 579.27 26.9583L600.568 6.25509C609.106 -2.04524 622.699 -2.04524 631.237 6.2551L652.535 26.9593C661.074 35.2596 674.667 35.2596 683.205 26.9593L704.503 6.25509C713.042 -2.04525 726.634 -2.04524 735.173 6.25509L756.47 26.9583C765.008 35.2586 778.601 35.2586 787.14 26.9583L808.437 6.25509C816.975 -2.04524 830.568 -2.04524 839.106 6.2551L860.404 26.9593C868.943 35.2596 882.536 35.2596 891.074 26.9593L912.372 6.25509C920.911 -2.04524 934.503 -2.04523 943.042 6.2551L964.34 26.9593C972.878 35.2596 986.471 35.2596 995.01 26.9593L1016.31 6.25509C1024.85 -2.04525 1038.44 -2.04524 1046.98 6.25509L1068.27 26.9583C1076.81 35.2586 1090.41 35.2586 1098.94 26.9583L1120.24 6.25509C1128.78 -2.04524 1142.37 -2.04524 1150.91 6.25509L1172.21 26.9583C1180.75 35.2586 1194.34 35.2586 1202.88 26.9583L1224.17 6.2551C1232.71 -2.04523 1246.31 -2.04523 1254.84 6.2551L1276.14 26.9602C1284.68 35.2606 1298.27 35.2606 1306.81 26.9602L1328.11 6.25511C1336.65 -2.04523 1350.24 -2.04524 1358.78 6.2551L1380.08 26.9583C1388.62 35.2586 1402.21 35.2586 1410.75 26.9583L1432.1 6.20364C1440.61 -2.06804 1454.15 -2.06803 1462.66 6.20366Z" fill="#FFD700"/>
</svg>
