<svg width="92" height="92" viewBox="0 0 92 92" fill="none" xmlns="http://www.w3.org/2000/svg">
<rect width="92" height="92" rx="46" fill="#FFD700"/>
<path d="M22.7592 69.145C22.9985 69.3842 23.3853 69.3834 23.625 69.145L33.7123 59.0578L33.931 58.8421L34.1467 59.0578L34.5212 59.4353L35.384 60.2981C37.2341 62.1474 39.7457 63.1876 42.3615 63.1891L42.8558 63.1802C45.295 63.0591 47.6094 62.0327 49.345 60.2981L51.2354 58.4077C51.3507 58.2924 51.4152 58.1357 51.4152 57.9733C51.4151 57.8112 51.3504 57.6571 51.2354 57.5419L49.345 55.6515C47.8262 54.1331 45.8648 53.16 43.7636 52.8594L42.8558 52.7695L42.3675 52.7605L41.4807 52.7994C40.6003 52.8788 39.7385 53.0753 38.9192 53.3806L38.2901 53.6143L38.5267 52.9852C38.8346 52.1587 39.0298 51.2949 39.108 50.4177L39.1469 49.5369L39.1349 49.0516C39.0793 47.9212 38.8288 46.8065 38.3949 45.7591C37.962 44.7146 37.3519 43.753 36.5944 42.916L36.2498 42.5535L35.5069 41.8076L34.674 40.9747L34.4403 40.744L34.4074 40.7081L34.3774 40.6781C34.2598 40.5605 34.0902 40.4894 33.931 40.4894C33.7686 40.4894 33.6118 40.5539 33.4966 40.6691L31.6062 42.5595C30.6902 43.4756 29.9628 44.5628 29.4671 45.7591C29.1419 46.5444 28.9187 47.3679 28.805 48.2068L28.7271 49.0516L28.7151 49.5369C28.7149 50.8332 28.9713 52.1175 29.4671 53.3147C29.963 54.5118 30.6895 55.6008 31.6062 56.5173L32.8465 57.7546L33.0622 57.9733L22.7592 68.2791C22.5207 68.5188 22.52 68.9057 22.7592 69.145ZM33.7123 56.8888L32.475 55.6515L31.9028 55.0194C31.3653 54.3637 30.925 53.6301 30.5995 52.8444C30.1656 51.7962 29.9432 50.6717 29.9434 49.5369V49.5219L29.9854 48.7041V48.6891C30.0685 47.8454 30.2738 47.0161 30.5995 46.2295C31.0338 45.181 31.6722 44.228 32.475 43.4253L33.7123 42.188L33.928 41.9693L34.1437 42.188C34.2945 42.3389 34.4684 42.5104 34.653 42.6943C34.8802 42.9207 35.1335 43.1716 35.387 43.4253C36.1891 44.2274 36.8281 45.1812 37.2625 46.2295C37.6967 47.2778 37.9186 48.402 37.9186 49.5369V49.5519L37.8766 50.3698V50.3848L37.7897 51.0139C37.6816 51.6399 37.5068 52.2543 37.2625 52.8444C36.828 53.8929 36.1898 54.849 35.387 55.6515C35.1284 55.9104 34.8751 56.161 34.644 56.3915L33.928 57.1075L33.7123 56.8888ZM42.3675 61.9638C40.3619 61.9637 38.4262 61.2644 36.888 60.0045L36.876 59.9955L36.2648 59.4413L36.2528 59.4323L34.7968 57.9763L35.5578 57.2154L35.8664 56.9038L36.2648 56.5053L36.876 55.9511L36.888 55.9421C38.4262 54.6823 40.362 53.986 42.3675 53.9858C44.6596 53.9862 46.8582 54.8968 48.4792 56.5173L49.7195 57.7576L49.9382 57.9733L48.4792 59.4323C46.8582 61.0523 44.6592 61.9634 42.3675 61.9638Z" fill="#0044CC"/>
<path d="M52.0577 53.9772C54.4974 53.8563 56.8139 52.8302 58.5498 51.0951L60.4402 49.2047C60.5267 49.1182 60.5845 49.0079 60.608 48.8902L60.62 48.7703C60.62 48.6079 60.5555 48.4512 60.4402 48.3359L58.5498 46.4455C57.0305 44.927 55.0672 43.9536 52.9654 43.6534L52.0577 43.5665L51.5663 43.5575C50.3796 43.5581 49.2147 43.7709 48.124 44.1776L47.4949 44.4113L47.7316 43.7822C48.0394 42.9557 48.2346 42.0919 48.3128 41.2147L48.3517 40.3339L48.3397 39.8486C48.2841 38.7181 48.0336 37.6036 47.5997 36.5561C47.1668 35.5116 46.5567 34.5501 45.7992 33.713L45.4547 33.3505L44.1424 32.0323C44.0446 31.9345 43.9555 31.8476 43.8788 31.7717L43.6451 31.541L43.6122 31.5021L43.5822 31.4721C43.494 31.3839 43.3757 31.3238 43.2557 31.2984L43.1358 31.2834C42.9734 31.2834 42.8167 31.3479 42.7014 31.4631L40.811 33.3535C39.8943 34.2699 39.1678 35.3591 38.6719 36.5561C38.3466 37.3416 38.1235 38.1648 38.0098 39.0038L37.9319 39.8486L37.9199 40.3339C37.9197 41.6302 38.1761 42.9145 38.6719 44.1117C39.1678 45.3088 39.8943 46.3979 40.811 47.3143L43.6841 50.1874C43.9854 50.4898 44.2871 50.7932 44.5888 51.0951C46.439 52.9442 48.9505 53.9848 51.5663 53.9861L52.0577 53.9772ZM42.9141 47.6858L41.6798 46.4455C40.877 45.6429 40.2386 44.6897 39.8044 43.6414C39.3703 42.5931 39.148 41.4688 39.1482 40.3339V40.3189L39.1902 39.5011V39.4861C39.2732 38.6424 39.4786 37.8131 39.8044 37.0265C40.2386 35.9781 40.877 35.025 41.6798 34.2223L42.9171 32.985L43.1328 32.7663L43.3485 32.985C43.5013 33.1378 43.6764 33.3107 43.8638 33.4973C44.0902 33.7228 44.3364 33.9697 44.5888 34.2223C45.3914 35.0246 46.0327 35.9777 46.4673 37.0265C46.9015 38.0748 47.1234 39.199 47.1234 40.3339V40.3489L47.0814 41.1668V41.1818L46.9946 41.8109C46.8864 42.4369 46.7116 43.0513 46.4673 43.6414C46.0329 44.6897 45.3947 45.6429 44.5918 46.4455L43.4983 47.539L43.3485 47.6858L43.1328 47.9045L42.9141 47.6858ZM51.5693 52.7578C49.5643 52.7574 47.6306 52.0609 46.0928 50.8015L46.0808 50.7925L45.4696 50.2383L45.4577 50.2263C45.2478 50.0163 45.0362 49.807 44.8255 49.5972C44.6231 49.3955 44.4196 49.1944 44.2173 48.992L44.0016 48.7733L44.2173 48.5576L45.4217 47.3503L45.4577 47.3173L45.4696 47.3023L46.0778 46.7481L46.0928 46.7391C47.6306 45.4797 49.5643 44.7832 51.5693 44.7828C53.8617 44.783 56.0627 45.6936 57.684 47.3143L59.14 48.7703L57.684 50.2263C56.0627 51.8471 53.8617 52.7576 51.5693 52.7578Z" fill="#0044CC"/>
<path d="M61.2638 44.7738C63.7035 44.6529 66.02 43.6268 67.7559 41.8918L69.6464 40.0014C69.886 39.7617 69.886 39.3721 69.6464 39.1325L67.7559 37.2421C66.6714 36.1581 65.3589 35.3542 63.9331 34.8724L63.2561 34.6417L63.8912 34.3092C64.8787 33.7902 65.7841 33.1232 66.5755 32.3319L66.956 31.9364C68.7977 29.9026 69.8231 27.248 69.8231 24.4917V22.6942C69.8231 22.3556 69.5504 22.0805 69.212 22.08H67.4144C65.9589 22.08 64.5167 22.3681 63.1722 22.9248C61.8272 23.482 60.6004 24.2983 59.5711 25.3275C58.7742 26.1248 58.1112 27.0318 57.5968 28.0118L57.2642 28.647L57.0335 27.9669C56.9637 27.7603 56.8866 27.5548 56.8029 27.3527C56.37 26.3082 55.7598 25.3467 55.0023 24.5097L54.6578 24.1472L53.3456 22.829C53.2472 22.7306 53.1559 22.6445 53.0789 22.5683L52.8482 22.3376L52.8153 22.2987L52.7853 22.2687C52.6677 22.1511 52.4981 22.08 52.3389 22.08C52.1765 22.08 52.0198 22.1445 51.9045 22.2598L50.0141 24.1502C49.0974 25.0666 48.371 26.1557 47.875 27.3527C47.5498 28.1382 47.3266 28.9614 47.2129 29.8004L47.135 30.6452L47.123 31.1306C47.1228 32.4268 47.3792 33.7111 47.875 34.9084C48.371 36.1055 49.0974 37.1945 50.0141 38.111L51.9045 40.0014C51.9084 40.0052 51.9161 40.0106 51.9435 40.0313C51.9649 40.0475 52.0063 40.0791 52.0453 40.1182C52.3412 40.4141 52.6349 40.7134 52.9261 41.011C53.2099 41.301 53.5097 41.6061 53.795 41.8918C55.6452 43.7408 58.1566 44.7815 60.7725 44.7828L61.2638 44.7738ZM57.5518 34.3511V33.1678C57.5518 30.5534 58.5917 28.0454 60.4399 26.1963L60.4459 26.1903L60.7874 25.8668L60.7934 25.8608C61.631 25.1019 62.5962 24.4907 63.6425 24.0573C64.8379 23.5625 66.1203 23.3083 67.4144 23.3083H68.5978V24.4917C68.5978 27.1061 67.5554 29.6142 65.7067 31.4631C64.7915 32.3781 63.7059 33.1068 62.5101 33.6022C61.3145 34.0974 60.0326 34.3509 58.7382 34.3511H57.5518ZM52.1202 38.4824L50.8829 37.2421C50.0801 36.4396 49.4417 35.4864 49.0075 34.438C48.5735 33.3897 48.3512 32.2654 48.3514 31.1306V31.1156L48.3933 30.2977V30.2827C48.4764 29.439 48.6818 28.6097 49.0075 27.8231C49.4418 26.7747 50.0801 25.8216 50.8829 25.019L52.1202 23.7817L52.3359 23.563L52.5517 23.7817C52.7025 23.9326 52.8762 24.1009 53.061 24.285C53.2895 24.5127 53.5365 24.7633 53.792 25.019C54.5946 25.8213 55.2359 26.7743 55.6704 27.8231C56.1046 28.8714 56.3266 29.9957 56.3265 31.1306V31.1455L56.2846 31.9634V31.9784L56.1977 32.6075C56.0895 33.2335 55.9148 33.848 55.6704 34.438C55.2361 35.4863 54.5978 36.4395 53.795 37.2421L52.3359 38.7011L52.1202 38.4824ZM60.7754 43.5545C58.7701 43.5541 56.8339 42.8579 55.2959 41.5982L55.2869 41.5892L54.6758 41.0349L54.6638 41.0229C54.4538 40.8128 54.2425 40.6038 54.0316 40.3938L53.2078 39.5699L53.4235 39.3542L53.777 38.9977L54.3462 38.4285L54.4421 38.3297L54.6608 38.1139L54.6728 38.099L55.2869 37.5447L55.2959 37.5357C56.8339 36.276 58.7702 35.5798 60.7754 35.5794C63.0678 35.5797 65.2689 36.4902 66.8901 38.111L68.3461 39.5669L66.8901 41.0229C65.2688 42.6436 63.0678 43.5542 60.7754 43.5545Z" fill="#0044CC"/>
</svg>
