<svg width="710" height="232" viewBox="0 0 710 232" fill="none" xmlns="http://www.w3.org/2000/svg">
<g filter="url(#filter0_d_6182_58)">
<path d="M54.4398 89.3749L36.3568 136.627L24.0696 131.924L31.6647 112.078L27.9873 110.671L20.3922 130.517L8.10494 125.815L26.188 78.5631L38.4752 83.2653L32.0082 100.164L35.6856 101.571L42.1526 84.6727L54.4398 89.3749ZM69.1773 94.1154L53.9025 142.348L41.3602 138.376L56.6349 90.1434L69.1773 94.1154ZM95.9956 120.053L83.2289 116.875L84.3385 112.417C85.038 109.607 85.3544 107.818 85.288 107.05C85.2215 106.282 84.7334 105.785 83.8236 105.559C83.0352 105.363 82.424 105.532 81.99 106.068C81.556 106.605 81.027 108.126 80.403 110.633L74.5382 134.195C73.9897 136.399 73.7689 137.89 73.8758 138.668C73.9878 139.425 74.4683 139.91 75.3174 140.121C76.2473 140.353 76.9722 140.115 77.4919 139.407C78.0318 138.704 78.5861 137.21 79.1547 134.926L80.6039 129.103L78.0263 128.462L79.8832 121.002L94.8332 124.723L88.274 151.075L80.2379 149.075L79.9308 145.263C78.6841 146.563 77.298 147.431 75.7725 147.867C74.2723 148.288 72.6225 148.274 70.8232 147.826C68.6803 147.293 66.7971 146.277 65.1736 144.778C63.5753 143.264 62.4822 141.617 61.8942 139.84C61.3063 138.062 61.0998 136.303 61.2749 134.565C61.455 132.806 61.9652 130.239 62.8056 126.863L66.4362 112.277C67.6036 107.586 68.7042 104.243 69.738 102.246C70.7718 100.249 72.7003 98.6681 75.5237 97.503C78.3722 96.3228 81.6969 96.2057 85.4976 97.1517C89.2376 98.0826 92.1496 99.6233 94.2336 101.774C96.3176 103.924 97.4694 106.154 97.6891 108.463C97.9137 110.751 97.5254 113.907 96.524 117.93L95.9956 120.053ZM131.181 106.944L123.148 156.896L110.159 154.807L113.533 133.827L109.645 133.202L106.271 154.182L93.2821 152.093L101.315 102.141L114.304 104.23L111.432 122.095L115.319 122.72L118.192 104.855L131.181 106.944ZM145.84 108.262L142.38 148.583L150.35 149.267L149.485 159.355L128.406 157.546L132.732 107.137L145.84 108.262ZM181.537 109.31L171.426 141.433L171.132 159.743L158.946 159.548L159.24 141.237L150.51 108.812L162.602 109.006C164.339 118.889 165.295 125.541 165.469 128.961C166.285 123.578 167.61 116.963 169.445 109.116L181.537 109.31ZM212.117 106.695L224.404 156.349L210.996 157.624L209.482 148.633L204.784 149.08L204.867 158.207L191.303 159.497L193.171 108.497L212.117 106.695ZM208.259 139.74C207.053 134.1 205.72 127.122 204.259 118.806C203.847 128.556 203.687 135.676 203.779 140.166L208.259 139.74ZM217.343 106.166L227.021 104.364C233.268 103.202 237.54 102.703 239.839 102.869C242.157 103.03 244.012 103.66 245.403 104.757C246.794 105.855 247.784 107.186 248.371 108.75C248.955 110.295 249.686 113.422 250.563 118.133L253.805 135.552C254.636 140.017 254.978 143.048 254.83 144.643C254.698 146.215 254.19 147.528 253.306 148.582C252.418 149.617 251.238 150.451 249.766 151.085C248.291 151.698 246.007 152.293 242.915 152.869L226.601 155.905L217.343 106.166ZM231.861 112.268L237.951 144.988C239.815 144.641 240.893 144.059 241.186 143.241C241.475 142.403 241.311 140.325 240.694 137.007L237.097 117.683C236.677 115.43 236.337 113.999 236.075 113.391C235.814 112.783 235.4 112.383 234.835 112.192C234.266 111.98 233.275 112.005 231.861 112.268ZM247.52 100.521L256.991 97.8381C263.105 96.1061 267.313 95.2169 269.617 95.1706C271.941 95.1185 273.846 95.5749 275.332 96.5397C276.818 97.5046 277.925 98.739 278.655 100.243C279.378 101.727 280.393 104.774 281.699 109.384L286.529 126.432C287.767 130.802 288.385 133.788 288.385 135.39C288.398 136.967 288.013 138.321 287.229 139.453C286.44 140.564 285.342 141.503 283.935 142.27C282.523 143.017 280.303 143.819 277.276 144.676L261.311 149.199L247.52 100.521ZM262.538 105.264L271.61 137.285C273.434 136.768 274.454 136.089 274.67 135.248C274.881 134.387 274.527 132.333 273.607 129.086L268.249 110.174C267.624 107.969 267.154 106.576 266.837 105.994C266.521 105.413 266.072 105.053 265.492 104.914C264.906 104.755 263.921 104.872 262.538 105.264ZM290.613 87.3235L307.666 134.957L295.28 139.391L278.227 91.7579L290.613 87.3235ZM329.348 94.5921L317.285 99.844L313.767 91.7641C312.744 89.4146 311.975 88.0115 311.458 87.5549C310.952 87.0709 310.259 87.0202 309.38 87.4027C308.387 87.8352 307.911 88.463 307.951 89.2862C307.991 90.1094 308.523 91.6957 309.546 94.0452L318.927 115.592C319.908 117.846 320.682 119.258 321.249 119.829C321.816 120.401 322.567 120.482 323.503 120.075C324.401 119.684 324.834 119.087 324.802 118.282C324.789 117.47 324.23 115.794 323.123 113.253L320.591 107.437L332.654 102.185L333.44 103.99C335.527 108.784 336.663 112.334 336.849 114.639C337.054 116.936 336.319 119.346 334.646 121.87C332.992 124.385 330.465 126.383 327.064 127.863C323.531 129.402 320.339 130.03 317.49 129.748C314.64 129.466 312.353 128.361 310.626 126.431C308.892 124.482 307.035 121.235 305.055 116.689L299.155 103.136C297.699 99.7936 296.725 97.2415 296.23 95.4798C295.728 93.6991 295.703 91.7898 296.156 89.7519C296.629 87.7057 297.677 85.8067 299.3 84.0548C300.934 82.2755 303.059 80.8161 305.676 79.6768C309.229 78.1299 312.46 77.541 315.37 77.91C318.28 78.279 320.547 79.337 322.171 81.0839C323.787 82.8117 325.539 85.8437 327.427 90.1797L329.348 94.5921ZM344.695 61.5779L349.435 70.5245L342.532 74.1823L361.479 109.941L349.854 116.101L330.907 80.3421L324.031 83.9853L319.291 75.0386L344.695 61.5779ZM356.198 54.6107L382.239 97.9879L370.96 104.76L344.918 61.3824L356.198 54.6107ZM386.875 35.7801L407.676 82.3826L390.665 92.8408L357.698 53.7179L369.518 46.4511C378.184 57.4841 385.331 66.9202 390.957 74.7596C386.447 66.1114 382.532 58.3697 379.21 51.5345L375.055 43.0469L386.875 35.7801ZM391.276 33.3347L410.569 22.8924L415.388 31.7968L407.666 35.9767L412.232 44.4139L419.46 40.5018L424.042 48.9664L416.814 52.8786L422.109 62.6624L430.601 58.066L435.421 66.9704L415.358 77.8291L391.276 33.3347ZM441.472 52.4497L446.024 61.7032L437.471 65.9104L432.919 56.657L441.472 52.4497Z" fill="#0044CC"/>
</g>
<g filter="url(#filter1_d_6182_58)">
<path d="M261.067 165.982L273.157 215.684L259.744 216.906L258.265 207.909L253.566 208.337L253.613 217.464L240.044 218.7L242.114 167.708L261.067 165.982ZM257.078 199.011C255.894 193.366 254.589 186.383 253.161 178.061C252.711 187.809 252.522 194.928 252.597 199.419L257.078 199.011ZM265.881 165.528L275.551 163.685C281.793 162.496 286.063 161.979 288.362 162.135C290.682 162.287 292.539 162.909 293.935 164C295.33 165.092 296.325 166.418 296.92 167.981C297.511 169.522 298.254 172.647 299.151 177.354L302.467 194.759C303.318 199.221 303.672 202.249 303.531 203.846C303.406 205.418 302.904 206.733 302.024 207.791C301.14 208.829 299.964 209.668 298.495 210.309C297.023 210.929 294.741 211.533 291.651 212.122L275.35 215.227L265.881 165.528ZM280.425 171.569L286.654 204.262C288.516 203.907 289.592 203.32 289.882 202.502C290.167 201.662 289.994 199.585 289.362 196.27L285.684 176.961C285.255 174.71 284.908 173.281 284.644 172.674C284.38 172.066 283.965 171.668 283.398 171.479C282.828 171.27 281.837 171.3 280.425 171.569ZM295.652 159.846L305.09 157.049C311.182 155.244 315.38 154.305 317.683 154.231C320.006 154.151 321.916 154.585 323.414 155.532C324.911 156.479 326.033 157.7 326.78 159.195C327.522 160.67 328.573 163.705 329.934 168.299L334.967 185.288C336.257 189.643 336.911 192.621 336.93 194.224C336.962 195.8 336.594 197.159 335.823 198.3C335.047 199.421 333.96 200.373 332.563 201.156C331.159 201.919 328.95 202.748 325.933 203.642L310.023 208.355L295.652 159.846ZM310.725 164.408L320.179 196.318C321.996 195.78 323.008 195.089 323.215 194.246C323.415 193.382 323.036 191.332 322.078 188.097L316.494 169.25C315.843 167.053 315.356 165.665 315.033 165.087C314.709 164.51 314.257 164.155 313.674 164.023C313.086 163.871 312.103 164 310.725 164.408ZM334.062 147.765L346.077 142.483C349.872 140.814 352.872 139.848 355.078 139.584C357.302 139.311 359.413 139.817 361.411 141.1C363.401 142.365 365.276 145 367.037 149.005C368.228 151.713 368.629 153.79 368.24 155.235C367.87 156.672 366.562 158.226 364.315 159.896C367.376 159.301 369.726 159.52 371.363 160.553C372.992 161.566 374.469 163.579 375.794 166.593L377.68 170.884C379.055 174.012 379.712 176.488 379.649 178.313C379.606 180.13 378.924 181.659 377.603 182.9C376.283 184.14 373.2 185.825 368.356 187.955L354.424 194.08L334.062 147.765ZM349.59 150.394L354.117 160.693C354.624 160.447 355.02 160.262 355.306 160.136C356.489 159.616 357.116 158.999 357.189 158.284C357.253 157.55 356.682 155.81 355.474 153.064C354.837 151.615 354.259 150.663 353.741 150.208C353.214 149.734 352.697 149.517 352.192 149.558C351.705 149.589 350.838 149.868 349.59 150.394ZM357.287 167.902L362.984 180.861C364.656 180.058 365.617 179.317 365.865 178.639C366.132 177.952 365.855 176.675 365.033 174.806L363.134 170.486C362.262 168.503 361.524 167.393 360.92 167.158C360.316 166.923 359.105 167.171 357.287 167.902ZM402.954 146.792C405.4 151.248 407.025 154.468 407.829 156.451C408.641 158.406 408.911 160.456 408.639 162.601C408.385 164.737 407.544 166.732 406.114 168.587C404.684 170.441 402.718 172.055 400.217 173.429C397.843 174.732 395.495 175.522 393.175 175.798C390.863 176.045 388.705 175.709 386.703 174.788C384.7 173.867 383.088 172.554 381.866 170.848C380.644 169.142 378.78 166.007 376.273 161.441L372.107 153.853C369.661 149.398 368.032 146.192 367.22 144.237C366.416 142.254 366.141 140.195 366.395 138.06C366.666 135.914 367.517 133.914 368.947 132.059C370.377 130.205 372.343 128.591 374.844 127.217C377.218 125.914 379.562 125.138 381.874 124.891C384.194 124.615 386.356 124.937 388.358 125.858C390.361 126.779 391.973 128.092 393.195 129.798C394.417 131.504 396.281 134.639 398.788 139.205L402.954 146.792ZM383.42 138.551C382.287 136.488 381.447 135.238 380.898 134.802C380.358 134.338 379.732 134.302 379.02 134.693C378.417 135.024 378.082 135.517 378.014 136.172C377.954 136.799 378.551 138.254 379.804 140.537L391.175 161.245C392.588 163.82 393.561 165.354 394.093 165.846C394.643 166.329 395.301 166.359 396.068 165.938C396.854 165.507 397.165 164.884 397.003 164.07C396.842 163.256 396.044 161.543 394.61 158.932L383.42 138.551ZM411.901 105.773L417.42 114.262L410.87 118.52L432.93 152.448L421.901 159.619L399.841 125.692L393.317 129.934L387.798 121.445L411.901 105.773ZM438.107 87.6745L466.846 129.313L456.019 136.787L443.948 119.298L440.707 121.534L452.778 139.023L441.951 146.496L413.211 104.858L424.039 97.3844L434.317 112.276L437.557 110.039L427.28 95.1478L438.107 87.6745ZM478.683 63.3695L483.724 72.15L476.949 76.0402L497.1 111.135L485.691 117.686L465.54 82.5912L458.792 86.4658L453.75 77.6853L478.683 63.3695ZM524.453 73.9273C526.672 78.5008 528.132 81.7981 528.835 83.8191C529.547 85.8122 529.714 87.8734 529.334 90.0026C528.973 92.1227 528.032 94.0728 526.511 95.8529C524.989 97.633 522.945 99.146 520.377 100.392C517.94 101.574 515.556 102.244 513.225 102.403C510.903 102.533 508.765 102.089 506.811 101.068C504.858 100.048 503.314 98.6551 502.179 96.8898C501.045 95.1245 499.341 91.8989 497.068 87.2129L493.289 79.4248C491.071 74.8513 489.605 71.5679 488.893 69.5747C488.19 67.5537 488.019 65.4832 488.38 63.3631C488.76 61.2339 489.71 59.2792 491.232 57.4991C492.753 55.719 494.798 54.2061 497.366 52.9602C499.802 51.7781 502.181 51.1217 504.503 50.991C506.834 50.8326 508.977 51.2635 510.931 52.2838C512.885 53.3042 514.429 54.697 515.563 56.4623C516.697 58.2275 518.401 61.4532 520.674 66.1392L524.453 73.9273ZM505.359 64.7122C504.332 62.5941 503.555 61.3036 503.03 60.8408C502.514 60.3501 501.89 60.2821 501.159 60.6367C500.541 60.9368 500.181 61.4124 500.08 62.0634C499.989 62.6866 500.511 64.1697 501.648 66.5127L511.96 87.7683C513.242 90.4112 514.136 91.9919 514.643 92.5104C515.168 93.0199 515.824 93.0836 516.611 92.7017C517.417 92.3107 517.76 91.7045 517.639 90.8831C517.519 90.0617 516.808 88.3108 515.508 85.6304L505.359 64.7122ZM567.947 49.3431L555.553 53.7568L552.597 45.455C551.737 43.041 551.065 41.5885 550.581 41.0976C550.109 40.5801 549.422 40.482 548.519 40.8036C547.498 41.167 546.98 41.7607 546.964 42.5847C546.948 43.4087 547.369 45.0277 548.229 47.4417L556.113 69.5798C556.938 71.8957 557.613 73.358 558.139 73.9666C558.666 74.5753 559.41 74.7084 560.372 74.366C561.294 74.0375 561.767 73.471 561.79 72.6667C561.833 71.8553 561.389 70.1445 560.46 67.5342L558.331 61.5581L570.725 57.1444L571.386 58.9991C573.14 63.9252 574.031 67.5444 574.058 69.8568C574.105 72.1621 573.208 74.5163 571.365 76.9195C569.543 79.3156 566.885 81.1357 563.391 82.3798C559.76 83.6728 556.533 84.0812 553.71 83.605C550.887 83.1287 548.68 81.869 547.09 79.8257C545.493 77.7628 543.862 74.3958 542.199 69.7249L537.24 55.8002C536.017 52.3657 535.219 49.7528 534.846 47.9614C534.467 46.1505 534.573 44.244 535.165 42.2419C535.776 40.2328 536.952 38.41 538.691 36.7733C540.443 35.11 542.663 33.7996 545.352 32.8421C549.002 31.5421 552.266 31.1758 555.144 31.7432C558.022 32.3106 560.212 33.5213 561.712 35.3753C563.206 37.2097 564.746 40.3544 566.333 44.8095L567.947 49.3431ZM590.993 20.1194L611.255 67.0866L598.237 70.5427L595.269 61.9218L590.708 63.1326L592.287 72.1224L579.118 75.6186L572.599 25.0028L590.993 20.1194ZM592.605 53.3496C590.491 47.9833 588.032 41.3183 585.227 33.3545C586.419 43.0396 587.429 50.0896 588.256 54.5043L592.605 53.3496ZM604.742 16.8971L613.915 15.2909C620.03 14.2201 624.207 13.7321 626.444 13.8268C628.702 13.9179 630.679 14.8196 632.374 16.532C634.087 18.2202 635.315 21.1883 636.059 25.4362C636.738 29.3147 636.712 32.0053 635.981 33.508C635.251 35.0108 633.492 36.1435 630.707 36.9061C633.384 37.0931 635.257 37.6429 636.326 38.5555C637.395 39.4681 638.111 40.3579 638.475 41.2249C638.855 42.0678 639.397 44.5003 640.102 48.5224L642.403 61.6662L630.367 63.7736L627.468 47.2131C627.001 44.5453 626.496 42.9311 625.953 42.3704C625.432 41.8061 624.278 41.6803 622.493 41.9929L626.427 64.4635L613.468 66.7326L604.742 16.8971ZM619.194 23.1545L621.135 34.2359C622.592 33.9808 623.573 33.608 624.079 33.1175C624.603 32.6028 624.672 31.2476 624.288 29.0519L623.808 26.3123C623.531 24.7322 623.063 23.7462 622.402 23.3543C621.761 22.9588 620.692 22.8922 619.194 23.1545ZM669.246 8.19949L670.169 18.2824L662.389 18.9944L666.077 59.2947L652.976 60.4938L649.287 20.1935L641.538 20.9027L640.616 10.8198L669.246 8.19949ZM688.822 7.4944L687.904 45.6329L678.158 45.9255L674.953 7.91076L688.822 7.4944ZM689.006 47.9759L689.309 58.0963L677.502 58.4508L677.198 48.3303L689.006 47.9759Z" fill="#0044CC"/>
</g>
<defs>
<filter id="filter0_d_6182_58" x="8.10547" y="22.3973" width="441.918" height="143.095" filterUnits="userSpaceOnUse" color-interpolation-filters="sRGB">
<feFlood flood-opacity="0" result="BackgroundImageFix"/>
<feColorMatrix in="SourceAlpha" type="matrix" values="0 0 0 0 0 0 0 0 0 0 0 0 0 0 0 0 0 0 127 0" result="hardAlpha"/>
<feOffset dx="4" dy="6"/>
<feComposite in2="hardAlpha" operator="out"/>
<feColorMatrix type="matrix" values="0 0 0 0 0 0 0 0 0 0 0 0 0 0 0 0 0 0 0.1 0"/>
<feBlend mode="normal" in2="BackgroundImageFix" result="effect1_dropShadow_6182_58"/>
<feBlend mode="normal" in="SourceGraphic" in2="effect1_dropShadow_6182_58" result="shape"/>
</filter>
<filter id="filter1_d_6182_58" x="235.453" y="7.94519" width="458.887" height="217.089" filterUnits="userSpaceOnUse" color-interpolation-filters="sRGB">
<feFlood flood-opacity="0" result="BackgroundImageFix"/>
<feColorMatrix in="SourceAlpha" type="matrix" values="0 0 0 0 0 0 0 0 0 0 0 0 0 0 0 0 0 0 127 0" result="hardAlpha"/>
<feOffset dx="4" dy="6"/>
<feComposite in2="hardAlpha" operator="out"/>
<feColorMatrix type="matrix" values="0 0 0 0 0 0 0 0 0 0 0 0 0 0 0 0 0 0 0.1 0"/>
<feBlend mode="normal" in2="BackgroundImageFix" result="effect1_dropShadow_6182_58"/>
<feBlend mode="normal" in="SourceGraphic" in2="effect1_dropShadow_6182_58" result="shape"/>
</filter>
</defs>
</svg>
