<svg width="92" height="92" viewBox="0 0 92 92" fill="none" xmlns="http://www.w3.org/2000/svg">
<rect width="92" height="92" rx="46" fill="#FFD700"/>
<path d="M69.3526 24.9918L70.0909 25.0294C71.6097 25.1872 73.0357 25.8618 74.126 26.952C75.3779 28.2038 76.0833 29.8988 76.0862 31.6675L76.0608 32.2596C75.9503 33.553 75.4642 34.7905 74.6552 35.8143C73.8889 36.7836 72.8691 37.515 71.7159 37.9349L71.4834 38.0152L70.7145 38.264V65.8789C70.7145 66.0146 70.6741 66.147 70.5998 66.2587L70.5145 66.3633C70.3861 66.4917 70.2116 66.5634 70.03 66.5634H41.3193C41.3104 66.5624 41.2996 66.5608 41.2878 66.5603H22.9761C22.795 66.5603 22.6211 66.4875 22.4927 66.3592C22.3644 66.231 22.2917 66.0572 22.2916 65.8758V38.264L22.0763 38.1939L21.5238 38.0152C18.9935 37.1974 17.1637 34.9352 16.9423 32.2261L16.9199 31.6584C16.9268 27.9849 19.9199 24.9959 23.5956 24.9959H41.8992C41.9128 24.9953 41.9244 24.9939 41.9327 24.9928C41.9349 24.9926 41.9369 24.9921 41.9388 24.9918H69.3526ZM55.6193 26.3609L56.7243 28.0722L56.8777 28.321C57.0254 28.5708 57.1551 28.8233 57.2636 29.0797C57.6086 29.8954 57.7894 30.769 57.7917 31.6513L57.7613 32.2596C57.65 33.5537 57.1678 34.7914 56.3597 35.8143C55.5939 36.7834 54.5744 37.5142 53.4205 37.9349L53.1879 38.0152L52.4191 38.264V65.1953H69.3495V37.6232C69.3499 37.4463 69.4142 37.2827 69.5222 37.1631C69.6096 37.0666 69.7362 36.9919 69.8898 36.9589L69.9 36.9559L69.9406 36.9457H69.9488L69.964 36.9447C71.2707 36.8137 72.4821 36.1978 73.3602 35.2242C74.1279 34.3728 74.5984 33.2971 74.7009 32.1621V32.155L74.7019 32.1479L74.7212 31.6838V31.6706C74.7188 30.2638 74.1568 28.9104 73.1622 27.9158C72.2281 26.9821 70.9815 26.434 69.6705 26.368L69.4074 26.3609H55.6193ZM23.5418 26.3649L23.1254 26.3842L23.1091 26.3863L23.0695 26.3903C21.8556 26.5125 20.7128 27.0513 19.8439 27.9199C18.9118 28.8519 18.3631 30.0954 18.2961 31.4045L18.289 31.6665C18.2851 32.9778 18.7707 34.2514 19.6499 35.2273C20.5233 36.1957 21.7238 36.8088 23.0208 36.9457L23.1752 36.9752C23.2954 37.0125 23.4032 37.0802 23.4839 37.1692C23.5984 37.2962 23.6603 37.4605 23.6606 37.6272V65.1913H51.05V37.6272C51.0503 37.4608 51.1124 37.2973 51.2267 37.1702L51.3202 37.0849C51.42 37.0091 51.5397 36.9618 51.6655 36.9488L51.9082 36.9183C53.1187 36.7382 54.2373 36.1416 55.0617 35.2273C55.8301 34.3744 56.2989 33.2972 56.4013 32.1621L56.4023 32.155V32.1479L56.4216 31.6838L56.4227 31.6706C56.4198 30.2677 55.8626 28.9148 54.8677 27.9199C54.1064 27.1587 53.1356 26.6528 52.092 26.4564L52.0798 26.4543L51.6513 26.3914L51.6381 26.3903L51.5984 26.3863L51.5822 26.3842L51.1698 26.3649H23.5418Z" fill="#0044CC"/>
<path d="M43.5131 61.0871C43.6029 61.0871 43.6922 61.1045 43.7751 61.1389C43.858 61.1733 43.9331 61.2238 43.9965 61.2872C44.0601 61.3507 44.1104 61.4266 44.1448 61.5096C44.1791 61.5924 44.1976 61.681 44.1976 61.7706C44.1976 61.8604 44.1792 61.9497 44.1448 62.0326C44.1104 62.1157 44.0601 62.1915 43.9965 62.2551L42.9362 63.3154C42.8729 63.3789 42.7976 63.4293 42.7148 63.4637C42.6319 63.498 42.5425 63.5155 42.4528 63.5155C42.3174 63.5157 42.1836 63.4758 42.0709 63.4007C41.9584 63.3256 41.8708 63.2189 41.819 63.094C41.7672 62.9688 41.7538 62.8307 41.7804 62.6979C41.807 62.5652 41.8724 62.443 41.9683 62.3475L43.0286 61.2872C43.0922 61.2236 43.168 61.1733 43.251 61.1389C43.3341 61.1045 43.4232 61.0871 43.5131 61.0871ZM28.2909 60.0258C28.3807 60.0258 28.4699 60.0432 28.5529 60.0776C28.636 60.112 28.7118 60.1623 28.7753 60.2258C28.8388 60.2894 28.8893 60.3653 28.9236 60.4483C28.9579 60.531 28.9754 60.6197 28.9754 60.7093C28.9754 60.799 28.9579 60.8884 28.9236 60.9713C28.8892 61.0543 28.8389 61.1302 28.7753 61.1937L27.715 62.2541C27.6516 62.3176 27.5755 62.368 27.4926 62.4023C27.4098 62.4366 27.3212 62.4542 27.2316 62.4541C27.0961 62.4544 26.9624 62.4145 26.8497 62.3394C26.7371 62.2642 26.6486 62.1577 26.5968 62.0326C26.545 61.9075 26.5317 61.7693 26.5582 61.6366C26.5849 61.5039 26.6502 61.3816 26.7461 61.2862L27.8075 60.2258C27.8709 60.1624 27.946 60.1119 28.0289 60.0776C28.1118 60.0432 28.2011 60.0258 28.2909 60.0258ZM46.952 52.9692C47.0418 52.9692 47.131 52.9866 47.214 53.021C47.2968 53.0553 47.372 53.1059 47.4354 53.1693C47.499 53.2328 47.5493 53.3087 47.5837 53.3917C47.6181 53.4747 47.6365 53.5639 47.6365 53.6537C47.6365 53.7435 47.6181 53.8328 47.5837 53.9158C47.5493 53.9986 47.4989 54.0737 47.4354 54.1372L46.3751 55.1975C46.3117 55.2609 46.2366 55.3114 46.1537 55.3458C46.0707 55.3801 45.9815 55.3986 45.8917 55.3986C45.8018 55.3986 45.7127 55.3802 45.6296 55.3458C45.5466 55.3114 45.4707 55.261 45.4072 55.1975C45.3439 55.1341 45.2933 55.0589 45.2589 54.9761C45.2246 54.8931 45.2072 54.8038 45.2071 54.7141C45.2071 54.6243 45.2246 54.535 45.2589 54.452C45.2933 54.369 45.3437 54.2931 45.4072 54.2296L46.4675 53.1693C46.5311 53.1057 46.6069 53.0554 46.69 53.021C46.7729 52.9866 46.8622 52.9692 46.952 52.9692ZM36.1671 51.9089C36.2566 51.909 36.3453 51.9265 36.4281 51.9607C36.511 51.9951 36.587 52.0455 36.6505 52.109C36.714 52.1725 36.7644 52.2484 36.7988 52.3314C36.8332 52.4144 36.8506 52.5036 36.8506 52.5934C36.8506 52.6832 36.8331 52.7725 36.7988 52.8555C36.7644 52.9383 36.7139 53.0134 36.6505 53.0769L35.5902 54.1372C35.5268 54.2007 35.4507 54.2521 35.3678 54.2865C35.285 54.3207 35.1963 54.3384 35.1068 54.3383C34.9713 54.3386 34.8376 54.2986 34.7249 54.2235C34.6122 54.1484 34.5248 54.0409 34.473 53.9158C34.4212 53.7907 34.4079 53.6534 34.4344 53.5207C34.461 53.3879 34.5263 53.2659 34.6223 53.1703L35.6826 52.109C35.7461 52.0455 35.8221 51.9951 35.905 51.9607C35.988 51.9264 36.0773 51.9089 36.1671 51.9089ZM28.821 46.7008C28.9109 46.7008 29.0001 46.7192 29.0831 46.7536C29.1661 46.788 29.242 46.8383 29.3055 46.9019C29.3689 46.9653 29.4194 47.0404 29.4538 47.1233C29.4882 47.2062 29.5056 47.2955 29.5056 47.3853C29.5056 47.4751 29.4882 47.5643 29.4538 47.6473C29.4194 47.7304 29.369 47.8062 29.3055 47.8698L28.2452 48.9301C28.1818 48.9936 28.1057 49.044 28.0228 49.0783C27.94 49.1126 27.8513 49.1302 27.7618 49.1301C27.6263 49.1304 27.4926 49.0905 27.3799 49.0154C27.2672 48.9403 27.1788 48.8337 27.127 48.7087C27.0752 48.5835 27.0618 48.4454 27.0884 48.3126C27.115 48.1798 27.1804 48.0577 27.2763 47.9622L28.3376 46.9019C28.401 46.8384 28.4762 46.788 28.559 46.7536C28.6419 46.7192 28.7313 46.7008 28.821 46.7008ZM46.2126 43.3258C46.3024 43.3259 46.3917 43.3433 46.4746 43.3776C46.5574 43.412 46.6326 43.4626 46.696 43.5259C46.7596 43.5894 46.8099 43.6654 46.8443 43.7483C46.8787 43.8314 46.8971 43.9205 46.8971 44.0104C46.8971 44.1002 46.8787 44.1894 46.8443 44.2724C46.81 44.3553 46.7595 44.4304 46.696 44.4938L45.6357 45.5551C45.5724 45.6188 45.4963 45.6699 45.4133 45.7044C45.3305 45.7388 45.242 45.7572 45.1523 45.7573C45.0625 45.7573 44.9732 45.7389 44.8903 45.7044C44.8074 45.67 44.7321 45.6198 44.6689 45.5562L44.6678 45.5551C44.6044 45.4918 44.554 45.4166 44.5196 45.3337C44.4852 45.2508 44.4678 45.1615 44.4678 45.0717C44.4678 44.9819 44.4851 44.8927 44.5196 44.8097C44.5539 44.7268 44.6044 44.6517 44.6678 44.5883L45.7282 43.5259C45.7917 43.4624 45.8676 43.412 45.9506 43.3776C46.0335 43.3433 46.1228 43.3258 46.2126 43.3258ZM36.6982 41.7181C36.8796 41.7182 37.0534 41.791 37.1817 41.9192C37.3099 42.0475 37.3817 42.2213 37.3818 42.4026C37.3818 42.5841 37.31 42.7588 37.1817 42.8871L36.1214 43.9474C36.058 44.011 35.9819 44.0613 35.8989 44.0957C35.8161 44.1299 35.7275 44.1476 35.6379 44.1475C35.5025 44.1478 35.3687 44.1079 35.256 44.0327C35.1435 43.9577 35.056 43.8509 35.0042 43.726C34.9523 43.6009 34.938 43.4627 34.9646 43.3299C34.9912 43.1971 35.0575 43.0751 35.1535 42.9795L36.2138 41.9192C36.3421 41.7909 36.5167 41.7181 36.6982 41.7181ZM30.7182 32.5257C30.808 32.5257 30.8974 32.5432 30.9803 32.5775C31.0632 32.6118 31.1392 32.6623 31.2027 32.7258C31.2662 32.7893 31.3166 32.8652 31.351 32.9482C31.3854 33.0312 31.4028 33.1204 31.4028 33.2102C31.4028 33.3001 31.3854 33.3892 31.351 33.4723C31.3166 33.5551 31.2661 33.6302 31.2027 33.6937L30.1424 34.754C30.079 34.8175 30.0029 34.8689 29.92 34.9033C29.8372 34.9375 29.7485 34.9551 29.6589 34.9551C29.5235 34.9554 29.3898 34.9154 29.2771 34.8403C29.1644 34.7652 29.077 34.6577 29.0252 34.5326C28.9735 34.4076 28.9591 34.2702 28.9856 34.1375C29.0122 34.0047 29.0785 33.8827 29.1745 33.7871L30.2348 32.7258C30.2983 32.6623 30.3743 32.6118 30.4572 32.5775C30.54 32.5433 30.6287 32.5258 30.7182 32.5257ZM43.5131 30.4041C43.6029 30.4041 43.6922 30.4215 43.7751 30.4558C43.8581 30.4902 43.933 30.5416 43.9965 30.6051C44.06 30.6686 44.1104 30.7437 44.1448 30.8266C44.1792 30.9096 44.1976 30.9987 44.1976 31.0886C44.1976 31.1785 44.1792 31.2676 44.1448 31.3506C44.1104 31.4335 44.06 31.5086 43.9965 31.572L42.9362 32.6323C42.8729 32.6958 42.7976 32.7473 42.7148 32.7816C42.6319 32.816 42.5425 32.8335 42.4528 32.8334C42.3174 32.8337 42.1836 32.7938 42.0709 32.7187C41.9584 32.6436 41.8708 32.5368 41.819 32.4119C41.7672 32.2868 41.7538 32.1487 41.7804 32.0158C41.807 31.883 41.8723 31.761 41.9683 31.6655L43.0286 30.6051C43.0922 30.5416 43.168 30.4902 43.251 30.4558C43.334 30.4215 43.4233 30.4041 43.5131 30.4041Z" fill="#0044CC"/>
</svg>
