<svg width="92" height="92" viewBox="0 0 92 92" fill="none" xmlns="http://www.w3.org/2000/svg">
<rect width="92" height="92" rx="46" fill="#FFD700"/>
<mask id="path-2-inside-1_2059_5682" fill="white">
<path d="M42.343 32.0205C44.7273 29.6392 48.493 29.655 50.798 32.0256L73.0169 59.4262L73.3886 59.8812L73.4506 59.9583H75.2259C75.5962 59.9586 75.9316 60.291 75.9317 60.6368C75.9315 60.9802 75.6883 61.2418 75.4117 61.302L75.2919 61.3152H17.713C17.349 61.3147 17.0744 61.0548 17.0742 60.6368C17.0744 60.2446 17.3907 59.959 17.713 59.9583H19.6905L19.7524 59.8812L20.1231 59.4262L42.343 32.0205ZM49.3396 32.4826C47.5039 31.1435 44.934 31.2919 43.2631 32.9346L43.2154 32.9803L43.2063 32.9894L43.1971 32.9996L43.1555 33.0504L43.1545 33.0514L21.3073 59.9583H71.8337L49.9835 33.0514L49.9784 33.0453L49.9327 32.9935L49.9287 32.9884L49.8799 32.9376L49.8657 32.9234L49.5224 32.6228L49.5153 32.6167L49.3396 32.4826Z"/>
</mask>
<path d="M42.343 32.0205C44.7273 29.6392 48.493 29.655 50.798 32.0256L73.0169 59.4262L73.3886 59.8812L73.4506 59.9583H75.2259C75.5962 59.9586 75.9316 60.291 75.9317 60.6368C75.9315 60.9802 75.6883 61.2418 75.4117 61.302L75.2919 61.3152H17.713C17.349 61.3147 17.0744 61.0548 17.0742 60.6368C17.0744 60.2446 17.3907 59.959 17.713 59.9583H19.6905L19.7524 59.8812L20.1231 59.4262L42.343 32.0205ZM49.3396 32.4826C47.5039 31.1435 44.934 31.2919 43.2631 32.9346L43.2154 32.9803L43.2063 32.9894L43.1971 32.9996L43.1555 33.0504L43.1545 33.0514L21.3073 59.9583H71.8337L49.9835 33.0514L49.9784 33.0453L49.9327 32.9935L49.9287 32.9884L49.8799 32.9376L49.8657 32.9234L49.5224 32.6228L49.5153 32.6167L49.3396 32.4826Z" fill="#0044CC"/>
<path d="M42.343 32.0205L40.8731 30.5488L40.796 30.6259L40.7273 30.7106L42.343 32.0205ZM50.798 32.0256L52.4136 30.7155L52.3546 30.6428L52.2893 30.5756L50.798 32.0256ZM73.0169 59.4262L71.4013 60.7362L71.4061 60.7421L73.0169 59.4262ZM73.3886 59.8812L75.0107 58.5792L75.0051 58.5722L74.9994 58.5652L73.3886 59.8812ZM73.4506 59.9583L71.8284 61.2603L72.4529 62.0383H73.4506V59.9583ZM75.2259 59.9583L75.2273 57.8783H75.2259V59.9583ZM75.9317 60.6368L78.0117 60.6381V60.6359L75.9317 60.6368ZM75.4117 61.302L75.6395 63.3695L75.7477 63.3576L75.854 63.3345L75.4117 61.302ZM75.2919 61.3152V63.3952H75.4061L75.5197 63.3827L75.2919 61.3152ZM17.713 61.3152L17.7103 63.3952H17.713V61.3152ZM17.0742 60.6368L14.9942 60.6361L14.9942 60.6379L17.0742 60.6368ZM17.713 59.9583V57.8783L17.7092 57.8783L17.713 59.9583ZM19.6905 59.9583V62.0383H20.6881L21.3126 61.2603L19.6905 59.9583ZM19.7524 59.8812L18.1399 58.5674L18.1351 58.5733L18.1303 58.5792L19.7524 59.8812ZM20.1231 59.4262L21.7357 60.74L21.7388 60.7361L20.1231 59.4262ZM49.3396 32.4826L50.6013 30.829L50.5835 30.8154L50.5654 30.8022L49.3396 32.4826ZM43.2631 32.9346L44.7016 34.437L44.7115 34.4275L44.7214 34.4178L43.2631 32.9346ZM43.2154 32.9803L41.7769 31.4779L41.7606 31.4935L41.7446 31.5095L43.2154 32.9803ZM43.2063 32.9894L41.7355 31.5187L41.6968 31.5573L41.6602 31.598L43.2063 32.9894ZM43.1971 32.9996L41.6511 31.6081L41.6191 31.6437L41.5887 31.6807L43.1971 32.9996ZM43.1555 33.0504L44.6263 34.5212L44.6988 34.4486L44.7639 34.3693L43.1555 33.0504ZM43.1545 33.0514L41.6837 31.5806L41.6076 31.6567L41.5397 31.7403L43.1545 33.0514ZM21.3073 59.9583L19.6926 58.6472L16.9392 62.0383H21.3073V59.9583ZM71.8337 59.9583V62.0383H76.2022L73.4483 58.6471L71.8337 59.9583ZM49.9835 33.0514L51.5982 31.7402L51.5899 31.7299L51.5814 31.7198L49.9835 33.0514ZM49.9784 33.0453L51.5763 31.7137L51.5575 31.6911L51.5381 31.6691L49.9784 33.0453ZM49.9327 32.9935L48.3085 34.2929L48.3399 34.332L48.3731 34.3697L49.9327 32.9935ZM49.9287 32.9884L51.5529 31.6891L51.4942 31.6157L51.4292 31.548L49.9287 32.9884ZM49.8799 32.9376L51.3804 31.4972L51.3657 31.4819L51.3507 31.4669L49.8799 32.9376ZM49.8657 32.9234L51.3365 31.4526L51.2878 31.404L51.236 31.3586L49.8657 32.9234ZM49.5224 32.6228L50.8928 31.058L50.8845 31.0507L50.8761 31.0435L49.5224 32.6228ZM49.5153 32.6167L50.869 31.0374L50.8241 30.999L50.777 30.9631L49.5153 32.6167ZM42.343 32.0205L43.8128 33.4923C45.3924 31.9147 47.8256 31.9523 49.3068 33.4756L50.798 32.0256L52.2893 30.5756C49.1604 27.3576 44.0622 27.3638 40.8731 30.5488L42.343 32.0205ZM50.798 32.0256L49.1825 33.3357L71.4013 60.7362L73.0169 59.4262L74.6325 58.1161L52.4136 30.7155L50.798 32.0256ZM73.0169 59.4262L71.4061 60.7421L71.7778 61.1971L73.3886 59.8812L74.9994 58.5652L74.6277 58.1102L73.0169 59.4262ZM73.3886 59.8812L71.7665 61.1831L71.8284 61.2603L73.4506 59.9583L75.0727 58.6564L75.0107 58.5792L73.3886 59.8812ZM73.4506 59.9583V62.0383H75.2259V59.9583V57.8783H73.4506V59.9583ZM75.2259 59.9583L75.2244 62.0383C74.79 62.038 74.4657 61.8516 74.2688 61.6604C74.0777 61.4749 73.8519 61.1317 73.8517 60.6377L75.9317 60.6368L78.0117 60.6359C78.0114 59.796 77.6178 59.1138 77.1665 58.6756C76.7092 58.2317 76.0321 57.8789 75.2273 57.8783L75.2259 59.9583ZM75.9317 60.6368L73.8517 60.6355C73.8521 59.9646 74.3267 59.4095 74.9695 59.2696L75.4117 61.302L75.854 63.3345C77.0499 63.0742 78.0109 61.9959 78.0117 60.6381L75.9317 60.6368ZM75.4117 61.302L75.1839 59.2345L75.0641 59.2477L75.2919 61.3152L75.5197 63.3827L75.6395 63.3695L75.4117 61.302ZM75.2919 61.3152V59.2352H17.713V61.3152V63.3952H75.2919V61.3152ZM17.713 61.3152L17.7158 59.2352C18.0407 59.2357 18.4351 59.3607 18.7477 59.6818C19.061 60.0036 19.1541 60.3789 19.1542 60.6357L17.0742 60.6368L14.9942 60.6379C14.9946 61.3127 15.2251 62.0269 15.7667 62.5834C16.3076 63.1391 17.0214 63.3943 17.7103 63.3952L17.713 61.3152ZM17.0742 60.6368L19.1542 60.6375C19.154 61.3771 18.5567 62.0368 17.7169 62.0383L17.713 59.9583L17.7092 57.8783C16.2248 57.8811 14.9948 59.1121 14.9942 60.6361L17.0742 60.6368ZM17.713 59.9583V62.0383H19.6905V59.9583V57.8783H17.713V59.9583ZM19.6905 59.9583L21.3126 61.2603L21.3745 61.1831L19.7524 59.8812L18.1303 58.5792L18.0683 58.6564L19.6905 59.9583ZM19.7524 59.8812L21.365 61.195L21.7357 60.74L20.1231 59.4262L18.5106 58.1124L18.1399 58.5674L19.7524 59.8812ZM20.1231 59.4262L21.7388 60.7361L43.9587 33.3305L42.343 32.0205L40.7273 30.7106L18.5074 58.1162L20.1231 59.4262ZM49.3396 32.4826L50.5654 30.8022C47.9191 28.8718 44.212 29.0848 41.8049 31.4514L43.2631 32.9346L44.7214 34.4178C45.6559 33.499 47.0887 33.4152 48.1138 34.163L49.3396 32.4826ZM43.2631 32.9346L41.8247 31.4322L41.7769 31.4779L43.2154 32.9803L44.6539 34.4827L44.7016 34.437L43.2631 32.9346ZM43.2154 32.9803L41.7446 31.5095L41.7355 31.5187L43.2063 32.9894L44.677 34.4602L44.6862 34.4511L43.2154 32.9803ZM43.2063 32.9894L41.6602 31.598L41.6511 31.6081L43.1971 32.9996L44.7432 34.391L44.7523 34.3809L43.2063 32.9894ZM43.1971 32.9996L41.5887 31.6807L41.5471 31.7315L43.1555 33.0504L44.7639 34.3693L44.8055 34.3185L43.1971 32.9996ZM43.1555 33.0504L41.6847 31.5796L41.6837 31.5806L43.1545 33.0514L44.6252 34.5222L44.6263 34.5212L43.1555 33.0504ZM21.3073 59.9583V62.0383H71.8337V59.9583V57.8783H21.3073V59.9583ZM49.9835 33.0514L51.5814 31.7198L51.5763 31.7137L49.9784 33.0453L48.3805 34.3769L48.3856 34.383L49.9835 33.0514ZM49.9784 33.0453L51.5381 31.6691L51.4924 31.6173L49.9327 32.9935L48.3731 34.3697L48.4188 34.4215L49.9784 33.0453ZM49.9327 32.9935L51.5569 31.6941L51.5529 31.6891L49.9287 32.9884L48.3045 34.2878L48.3085 34.2929L49.9327 32.9935ZM49.9287 32.9884L51.4292 31.548L51.3804 31.4972L49.8799 32.9376L48.3794 34.3781L48.4282 34.4289L49.9287 32.9884ZM49.8799 32.9376L51.3507 31.4669L51.3365 31.4526L49.8657 32.9234L48.3949 34.3942L48.4091 34.4084L49.8799 32.9376ZM49.8657 32.9234L51.236 31.3586L50.8928 31.058L49.5224 32.6228L48.1521 34.1876L48.4954 34.4882L49.8657 32.9234ZM49.5224 32.6228L50.8761 31.0435L50.869 31.0374L49.5153 32.6167L48.1617 34.196L48.1688 34.2021L49.5224 32.6228ZM49.5153 32.6167L50.777 30.9631L50.6013 30.829L49.3396 32.4826L48.0779 34.1363L48.2536 34.2703L49.5153 32.6167ZM43.1545 33.0514L41.5397 31.7403L19.6926 58.6472L21.3073 59.9583L22.9221 61.2694L44.7692 34.3625L43.1545 33.0514ZM71.8337 59.9583L73.4483 58.6471L51.5982 31.7402L49.9835 33.0514L48.3689 34.3626L70.219 61.2696L71.8337 59.9583Z" fill="#0044CC" mask="url(#path-2-inside-1_2059_5682)"/>
<path d="M33.0605 55.0538C33.0661 55.0586 33.0709 55.0622 33.0752 55.0645H33.0781C33.0787 55.0637 33.0797 55.0618 33.0811 55.0587C33.0822 55.0561 33.0833 55.0531 33.084 55.0499C33.0847 55.0465 33.085 55.0439 33.085 55.043L33.0605 55.0421M33.0605 55.0538V55.0421M33.0605 55.0538C33.0589 55.0523 33.0564 55.0516 33.0547 55.0499C33.0524 55.0476 33.0516 55.0442 33.0498 55.0421H33.0605M33.0605 55.0538V55.0421M33.0605 55.0421V55.0196M33.0605 55.0421H33.0488C33.0447 55.0371 33.0422 55.0323 33.04 55.0284L33.043 55.0206C33.0446 55.0199 33.0508 55.0196 33.0605 55.0196M33.0605 55.0421H33.085C33.0849 55.0324 33.0825 55.0267 33.082 55.0255C33.081 55.0248 33.0795 55.0236 33.0771 55.0225C33.0745 55.0214 33.0707 55.0203 33.0674 55.0196C33.0642 55.0189 33.0615 55.0196 33.0605 55.0196M33.0605 55.0421V55.0196M43.7695 48.6202C43.7715 48.6219 43.7743 48.623 43.7764 48.6251C43.7832 48.6319 43.7869 48.6392 43.79 48.6446V48.6475C43.7879 48.6523 43.7865 48.654 43.7871 48.6534C43.7879 48.6526 43.7881 48.652 43.7871 48.6524C43.7856 48.653 43.7797 48.6553 43.7695 48.6553M43.7695 48.6202V48.6553M43.7695 48.6202C43.7636 48.6152 43.7583 48.6117 43.7539 48.6094H43.752C43.7513 48.6103 43.7512 48.6126 43.75 48.6153C43.7488 48.618 43.7478 48.6217 43.7471 48.6251C43.7464 48.6283 43.7461 48.631 43.7461 48.6319L43.748 48.6485C43.7488 48.6491 43.7509 48.6501 43.7539 48.6514C43.7564 48.6525 43.7595 48.6537 43.7627 48.6544L43.7695 48.6553M43.7695 48.6202V48.6553M48.749 48.6202C48.7507 48.6216 48.7532 48.6224 48.7549 48.6241C48.7618 48.631 48.7654 48.6391 48.7686 48.6446V48.6475C48.7675 48.6499 48.7663 48.6515 48.7656 48.6524C48.7637 48.6531 48.7583 48.6553 48.749 48.6553M48.749 48.6202V48.6553M48.749 48.6202C48.7432 48.6151 48.7378 48.6118 48.7334 48.6094H48.7314C48.7308 48.6104 48.7306 48.6127 48.7295 48.6153C48.7284 48.6179 48.7273 48.6209 48.7266 48.6241C48.7258 48.6275 48.7256 48.6309 48.7256 48.6319L48.7275 48.6485C48.7282 48.649 48.7303 48.6501 48.7334 48.6514C48.7359 48.6525 48.739 48.6537 48.7422 48.6544L48.749 48.6553M48.749 48.6202V48.6553M38.7217 48.6993H38.7109C38.7066 48.6942 38.7034 48.6896 38.7012 48.6856L38.7021 48.6837C38.7038 48.6799 38.7056 48.6783 38.7061 48.6778H38.7051C38.7068 48.6771 38.7124 48.6758 38.7217 48.6758M38.7217 48.6993V48.6758M38.7217 48.6993H38.7461C38.746 48.6899 38.7438 48.6843 38.7432 48.6827C38.7427 48.6817 38.7434 48.6819 38.7441 48.6827C38.7439 48.6825 38.7415 48.6816 38.7373 48.6797C38.7347 48.6786 38.7317 48.6775 38.7285 48.6768C38.7252 48.6761 38.7225 48.6758 38.7217 48.6758M38.7217 48.6993V48.6758M55.5928 49.3887C55.5921 49.3919 55.5909 49.3949 55.5898 49.3975C55.5887 49.4001 55.5876 49.4024 55.5869 49.4034C55.5857 49.4039 55.58 49.4053 55.5703 49.4053V49.3585C55.5714 49.3585 55.5735 49.3579 55.5762 49.3585C55.5795 49.3592 55.5833 49.3603 55.5859 49.3614C55.5884 49.3625 55.5899 49.3637 55.5908 49.3643C55.5915 49.366 55.5928 49.3723 55.5928 49.3819C55.5928 49.3829 55.5935 49.3855 55.5928 49.3887ZM55.5693 49.4053C55.5683 49.4053 55.5657 49.406 55.5625 49.4053C55.5593 49.4046 55.5563 49.4035 55.5537 49.4024C55.5501 49.4008 55.5485 49.399 55.5479 49.3985L55.5459 49.3819C55.5459 49.3744 55.5473 49.3673 55.5479 49.3614C55.5542 49.3607 55.5612 49.3585 55.5693 49.3585V49.4053ZM38.7461 48.7003C38.7461 48.7013 38.7457 48.7033 38.7451 48.7061C38.7444 48.7094 38.7433 48.7133 38.7422 48.7159C38.7405 48.7197 38.7394 48.7216 38.7393 48.7217V48.7208C38.7387 48.721 38.7376 48.7204 38.7363 48.7208C38.7322 48.7185 38.7271 48.7156 38.7217 48.711L38.7227 48.7003H38.7461ZM38.7217 48.7003V48.71C38.72 48.7086 38.7176 48.7078 38.7158 48.7061C38.7142 48.7045 38.7133 48.7019 38.7119 48.7003H38.7217ZM51.2207 44.3799C51.2207 44.38 51.2226 44.3823 51.2246 44.3868C51.2257 44.3894 51.2269 44.3924 51.2275 44.3956C51.2282 44.3988 51.2285 44.4013 51.2285 44.4024C51.2285 44.4033 51.2282 44.4061 51.2275 44.4092C51.2268 44.4125 51.2257 44.4164 51.2246 44.419C51.2235 44.4215 51.2223 44.423 51.2217 44.4239C51.2199 44.4246 51.2143 44.4258 51.2051 44.4258V44.378L51.2207 44.3799ZM51.2041 44.4258C51.2031 44.4258 51.2006 44.4256 51.1973 44.4249C51.194 44.4242 51.1911 44.4231 51.1885 44.4219C51.184 44.42 51.1817 44.419 51.1816 44.419L51.1807 44.4024C51.1807 44.4014 51.18 44.3988 51.1807 44.3956C51.1814 44.3924 51.1825 44.3894 51.1836 44.3868C51.185 44.3835 51.1869 44.3817 51.1875 44.3809L51.2041 44.378V44.4258ZM46.2412 44.3799C46.2414 44.3802 46.2433 44.3826 46.2451 44.3868C46.2462 44.3894 46.2474 44.3924 46.248 44.3956V44.4092C46.2473 44.4125 46.2463 44.4164 46.2451 44.419C46.244 44.4215 46.2428 44.423 46.2422 44.4239C46.2405 44.4246 46.2342 44.4258 46.2246 44.4258C46.2235 44.4258 46.2207 44.4255 46.2178 44.4249C46.2147 44.4242 46.2114 44.424 46.209 44.4229C46.2048 44.4211 46.2031 44.419 46.2031 44.419L46.2021 44.4024C46.2022 44.4013 46.2015 44.3988 46.2021 44.3956C46.2028 44.3924 46.204 44.3894 46.2051 44.3868C46.2065 44.3836 46.2074 44.3807 46.208 44.3799C46.2095 44.3794 46.2153 44.378 46.2246 44.378C46.233 44.378 46.239 44.3792 46.2412 44.3799ZM42.002 43.045C42 43.0469 41.997 43.0473 41.9951 43.0489L41.9961 43.0391H42.0059C42.0044 43.0408 42.0037 43.0433 42.002 43.045ZM42.0029 43.0147C42.0061 43.0154 42.0093 43.0166 42.0117 43.0176C42.0146 43.019 42.016 43.0201 42.0166 43.0206V43.0225C42.0143 43.0269 42.011 43.0321 42.0059 43.0381H41.9951L41.9961 43.0137L42.0029 43.0147ZM44.9795 39.4698C44.9808 39.4693 44.987 39.4679 44.9971 39.4678C44.998 39.4678 45.0006 39.4681 45.0039 39.4688C45.0071 39.4695 45.0102 39.4706 45.0127 39.4717C45.0147 39.4726 45.0166 39.4731 45.0176 39.4737C45.0181 39.475 45.0205 39.4811 45.0205 39.4913C45.0205 39.4922 45.0202 39.4949 45.0195 39.4981C45.0188 39.5015 45.0178 39.5052 45.0166 39.5079C45.0152 39.511 45.0143 39.513 45.0137 39.5137V39.5128C45.012 39.5134 45.0064 39.5157 44.9971 39.5157C44.9961 39.5157 44.9934 39.5154 44.9902 39.5147C44.9872 39.514 44.9839 39.5129 44.9814 39.5118C44.9778 39.5101 44.9758 39.5091 44.9756 39.5089H44.9766C44.9758 39.507 44.9736 39.5009 44.9736 39.4913C44.9736 39.4903 44.9739 39.4878 44.9746 39.4844C44.9753 39.4812 44.9764 39.4782 44.9775 39.4756C44.9787 39.4731 44.9789 39.4707 44.9795 39.4698Z" fill="#0044CC" stroke="#0044CC" stroke-width="2.08"/>
</svg>
