<svg width="112" height="110" viewBox="0 0 112 110" fill="none" xmlns="http://www.w3.org/2000/svg">
<path d="M51.3571 16.4317C49.1607 14.5011 45.7409 14.0144 43.0894 12.9663C42.459 12.6413 41.8128 13.5848 42.5043 14.101C44.9607 15.5273 48.0515 16.9615 50.772 17.5664C51.4065 17.5744 51.7966 16.818 51.3571 16.4317ZM64.7307 27.6372C63.8759 24.962 61.2973 23.1535 58.9629 22.1094C58.4586 21.8493 58.0685 22.6058 58.5728 22.8658C59.7136 23.6033 60.767 24.4677 61.7128 25.4426C62.5264 26.3409 63.1489 27.3003 63.9624 28.1986C64.2106 28.6458 64.9139 28.2105 64.7307 27.6372ZM72.8978 44.2975C72.9786 42.9027 72.4901 41.374 71.8716 40.0975C71.4442 38.7599 70.6996 37.4183 70.016 36.2679C69.7678 35.8207 69.1295 36.1299 69.3777 36.5771C69.9963 37.8537 70.4237 39.1913 70.7251 40.4639C71.1525 41.8015 71.1978 43.2612 71.6252 44.5988C71.7432 45.298 72.8247 45.0577 72.8978 44.2975ZM71.3885 53.4143C71.3354 52.5889 70.1926 52.638 70.2459 53.4635C70.173 54.2239 70.1612 55.1754 70.0883 55.9358C69.8853 56.9484 69.304 57.7658 69.2921 58.7172C69.2231 59.1605 69.8535 59.4855 70.1746 59.1723C71.5203 58.1107 71.4298 55.1912 71.3885 53.4143ZM66.6658 70.9289C67.3159 69.6681 67.966 68.4074 68.299 67.1427C68.498 66.4473 67.7415 66.0572 67.4165 66.6876C66.7053 67.7572 66.1852 68.7658 65.6001 69.9005C65.015 71.0352 64.1777 72.0398 63.9708 73.3695C63.8369 73.9386 64.7195 74.3937 65.1055 73.9546C65.8779 73.0762 66.272 72.0026 66.6658 70.9289ZM57.9191 80.4632C56.7647 81.4639 55.6104 82.4644 54.2038 83.3351C52.9882 84.1449 51.5206 84.8245 50.7444 86.0202C50.2932 86.5856 51.1107 87.1667 51.6191 87.1094C53.0827 86.7472 54.3674 85.4943 55.5216 84.4935C56.8023 83.5579 57.8304 82.4923 58.7327 81.3615C59.2488 80.6701 58.37 79.8978 57.9191 80.4632ZM47.2396 87.2453C46.0282 87.7375 44.7515 88.3563 43.605 88.7226C43.0317 88.9058 42.3324 89.024 41.6981 89.0161C41.0637 89.0082 40.8116 88.8782 40.1733 89.1874C39.7261 89.4356 39.7182 90.0699 40.0314 90.3911C41.036 91.2285 42.6298 90.6138 43.7763 90.2474C45.1789 89.6939 46.3943 88.8845 47.6748 87.9488C47.9962 87.6355 47.6868 86.9971 47.2396 87.2453ZM35.9065 85.3912C35.0161 85.5704 34.0646 85.5586 33.3082 85.1685C32.6778 84.8434 31.9864 84.3273 31.222 84.5716C30.8399 84.6937 30.6448 85.0719 30.7669 85.4541C31.3777 87.3647 34.8092 86.9001 36.0859 86.2814C36.5332 86.0335 36.4151 85.334 35.9065 85.3912ZM29.2031 78.5826C28.2594 77.9367 27.2549 77.0992 26.4413 76.2009C25.5666 75.1117 25.5174 73.9691 25.4072 72.6352C25.2891 71.9359 24.4676 71.6719 23.9515 72.3633C22.07 75.7023 26.0315 78.5431 28.748 79.4652C29.1912 79.5343 29.5814 78.7777 29.2031 78.5826ZM27.1901 67.0113C27.1567 64.6001 28.384 62.839 29.046 60.6268C29.1799 60.0577 28.4234 59.6676 28.0374 60.1067C26.554 62.0549 26.0141 64.6493 26.3647 67.0645C26.4218 67.5727 27.0564 67.5807 27.1901 67.0113ZM38.8765 45.5865C35.502 46.5596 33.3723 49.4516 32.0032 52.4161C31.7431 52.9204 32.6257 53.3755 32.8857 52.8712C34.377 50.2887 36.4987 48.0312 39.2428 46.7333C40.0075 46.4889 39.6411 45.3424 38.8765 45.5865ZM50.87 40.28C48.0155 40.2445 45.1453 41.4775 42.6532 42.9057C42.015 43.2149 42.6374 44.1743 43.1496 43.8C45.6377 42.6891 48.309 42.1514 50.9192 41.4226C51.6835 41.1783 51.5041 40.2878 50.87 40.28ZM62.0789 36.8033C60.3138 35.8931 57.5165 36.3658 55.7317 37.0415C54.9674 37.2857 55.3337 38.4322 56.0981 38.188C57.0535 37.8827 58.07 37.7685 59.0215 37.7803C59.973 37.7922 60.9855 37.9951 62.002 37.8809C62.5103 37.8238 62.4571 36.9983 62.0789 36.8033ZM81.7036 40.22C80.695 39.6999 79.4914 39.558 78.4178 39.164C77.027 38.766 75.7012 38.2419 74.3065 38.1611C73.5461 38.0882 73.3432 39.1007 74.0386 39.2997C75.3033 39.6327 76.629 40.1567 77.8287 40.6158C78.9023 41.0098 80.163 41.6599 81.3706 41.4846C82.131 41.5576 82.3338 40.5449 81.7036 40.22ZM93.5743 44.7453C92.1304 43.5219 89.9182 42.86 88.0881 42.0759C87.4578 41.7508 87.0027 42.6333 87.633 42.9584C89.3331 43.9946 91.0292 45.348 92.9892 45.88C93.6844 46.0789 94.1395 45.1963 93.5743 44.7453ZM104.974 51.4218C104.222 50.7146 103.274 50.3856 102.391 49.9304C101.509 49.4754 100.5 48.9552 99.5528 48.6262C98.9224 48.3011 98.4023 49.3097 99.0327 49.6348C99.9152 50.0899 100.924 50.6101 101.741 51.1911C102.624 51.6462 103.441 52.2274 104.454 52.4304C104.958 52.6905 105.348 51.934 104.974 51.4218Z" fill="#0044CC" stroke="#0044CC"/>
<path d="M33.8286 7.95192C36.42 7.65946 38.923 7.47792 41.4483 7.49558C43.2649 7.49245 46.2552 7.15514 47.6087 8.41554C48.1633 8.85765 48.0764 9.87685 47.3016 10.1662C45.7518 10.7448 43.6684 10.1724 42.1396 10.0422C40.2121 9.95687 38.1078 10.0934 36.0035 10.23C37.5145 12.8858 38.7602 15.8743 39.9835 18.6635C40.3837 19.5268 38.9674 20.3932 38.3676 19.5523C36.302 16.4544 35.2766 12.7344 32.8348 9.88083C32.2579 9.23952 32.9426 8.15269 33.8286 7.95192Z" fill="#0044CC"/>
</svg>
