<svg width="120" height="93" viewBox="0 0 120 93" fill="none" xmlns="http://www.w3.org/2000/svg">
<path d="M21.368 64.5625C18.7758 68.1814 14.0046 71.0462 8.56987 71.767C13.5128 73.2412 19.3388 74.113 24.3265 73.6595C26.8599 73.4276 29.9418 73.3571 32.2345 72.027C40.4531 76.142 52.0617 80.1486 60.8253 80.1949C70.3821 80.2451 80.312 77.3467 87.4018 73.1153C94.8803 68.6525 100.128 62.02 101.486 54.5255C103.386 44.0321 97.3346 32.3458 86.6451 24.4016C69.3003 11.5092 36.1062 5.75243 19.7144 23.5815C10.8705 33.199 8.75309 47.0566 16.592 58.898C17.901 60.8769 19.5143 62.773 21.368 64.5625Z" fill="#272525"/>
<path d="M20.6215 63.5207C18.4788 67.3379 14.1012 70.5437 8.8243 71.6383C13.8662 72.7857 19.7103 73.2686 24.5774 72.4731C27.0482 72.0697 30.0785 71.789 32.188 70.295C40.7623 73.8791 52.6642 77.124 61.3099 76.577C70.7393 75.98 80.1973 72.3888 86.7057 67.6502C93.5704 62.6528 97.9864 55.6223 98.4697 47.9884C99.1451 37.2979 91.8458 25.9469 80.3971 18.6769C61.8233 6.87899 28.4387 3.33513 14.3123 22.3877C6.69019 32.6677 6.18586 46.7571 15.265 58.1429C16.7827 60.0452 18.5889 61.8452 20.6215 63.5207Z" fill="white"/>
<path d="M95.9525 53.698C94.6642 57.3245 92.4721 60.6403 89.5575 63.5572C86.7466 66.3718 83.1827 68.735 79.2619 70.6409C75.3751 72.5297 70.9168 74.0057 66.2805 74.8591C64.1702 75.2478 61.8397 75.5244 59.5427 75.5608C57.2992 75.5973 55.2818 75.4294 53.0308 75.1177C48.1811 74.4477 43.4295 73.2301 38.8519 71.7052C36.7054 70.9907 34.591 70.2024 32.5212 69.3389C32.1145 69.1692 31.5937 69.1804 31.2791 69.3991C29.3253 70.7546 26.4873 71.0715 23.8896 71.458C20.8143 71.9162 17.5445 71.8848 14.3459 71.5246C14.032 71.4892 13.7197 71.4463 13.4071 71.4045C17.1063 69.803 20.043 67.2132 21.7336 64.2337C21.741 64.2207 21.7453 64.2056 21.7515 64.1909C22.0023 63.8211 21.9291 63.2669 21.5211 62.9295C21.5143 62.9246 21.5082 62.9189 21.5017 62.9129C21.4751 62.888 21.4453 62.8634 21.4159 62.8392C17.8772 59.8912 15.2041 56.7122 13.2255 53.0866C12.309 51.4099 11.6858 49.9476 11.1041 48.1214C10.8261 47.2509 10.5944 46.3777 10.4039 45.5026C10.2125 44.6241 10.0942 43.9114 10.0012 43.1481C9.79179 41.3899 9.7518 39.6345 9.87058 37.901C9.99109 36.1519 10.2317 34.6898 10.6657 33.0226C11.5328 29.6846 12.9501 26.6056 14.9646 23.7377C15.8923 22.4189 16.9384 21.1551 18.1128 19.9681C18.6984 19.3757 19.1065 18.9982 19.6566 18.5249C20.2503 18.0141 20.8707 17.5237 21.5155 17.0523C22.7672 16.1378 24.1135 15.3015 25.5434 14.5496C25.864 14.3814 26.1898 14.2164 26.5185 14.0578C26.6976 13.97 26.879 13.8863 27.0591 13.8011C27.0699 13.7943 27.0759 13.7933 27.0845 13.7893C27.1972 13.7369 27.3108 13.6855 27.4244 13.6365C28.1517 13.3133 28.8966 13.0154 29.6573 12.7347C31.1305 12.196 32.6619 11.7342 34.2344 11.3563C35.0325 11.1655 35.8425 10.9917 36.6605 10.8427C36.8644 10.8033 37.069 10.7679 37.2732 10.7321C37.3409 10.7204 37.4065 10.7112 37.4742 10.6995C37.5061 10.6936 37.652 10.6695 37.6769 10.6657C38.0895 10.6008 38.5035 10.5421 38.9193 10.4895C42.2066 10.061 45.6046 9.94185 49.0183 10.1024C49.4131 10.1218 49.8082 10.1457 50.2032 10.1704C50.2753 10.1742 50.3467 10.1802 50.4188 10.184C50.453 10.1877 50.6048 10.2003 50.6285 10.2018C50.8813 10.2197 51.133 10.2408 51.3843 10.2639C52.2105 10.3361 53.0362 10.4255 53.8611 10.5318C55.5774 10.7469 57.2902 11.0306 58.9895 11.3765C60.6428 11.7127 62.285 12.1069 63.907 12.562C63.97 12.5784 64.0327 12.5974 64.0976 12.6134C64.129 12.6232 64.2734 12.6652 64.3018 12.6744C64.5064 12.7311 64.7105 12.7924 64.9141 12.8556C65.3224 12.9756 65.7293 13.1022 66.1325 13.2313C66.9376 13.4907 67.7354 13.7631 68.5275 14.0491C70.0586 14.6046 71.5627 15.2089 73.0333 15.8711C73.7717 16.2019 74.5027 16.548 75.2229 16.9067C75.312 16.9517 75.4012 16.9967 75.4918 17.0417C75.5152 17.0524 75.5905 17.091 75.6384 17.116C75.7532 17.1754 75.8698 17.234 75.9839 17.2968C76.3634 17.4961 76.7381 17.6967 77.1117 17.9039C78.6172 18.7399 80.0674 19.6358 81.4494 20.5973C81.8545 20.8784 82.2517 21.1657 82.644 21.4555C82.8574 21.6164 83.0712 21.7753 83.2809 21.939C83.3852 22.0189 83.4913 22.0995 83.5956 22.1795C83.6568 22.2276 83.7173 22.278 83.7786 22.3261C83.7957 22.3388 83.8187 22.3585 83.8488 22.3817C84.6667 23.047 85.4622 23.7268 86.2221 24.4321C87.7124 25.809 89.0725 27.2647 90.3096 28.7718C90.3333 28.8031 90.3452 28.8181 90.3582 28.8357C90.3729 28.8525 90.3859 28.8701 90.4112 28.9014C90.4875 28.9997 90.5647 29.0943 90.6411 29.1923C90.7674 29.3556 90.8923 29.5186 91.0158 29.6825C91.3355 30.1072 91.6469 30.5371 91.9452 30.9712C92.4747 31.7351 92.9691 32.512 93.4268 33.2998C94.4385 35.0409 95.0736 36.3838 95.7144 38.1519C96.3135 39.8085 96.7511 41.4858 97.006 43.1637C97.0133 43.2232 97.032 43.3502 97.032 43.3502C97.0459 43.4578 97.0594 43.5653 97.0717 43.6729C97.0977 43.8888 97.1202 44.1067 97.1404 44.3206C97.1799 44.7514 97.206 45.1828 97.2216 45.6144C97.2514 46.4954 97.2303 47.3747 97.1562 48.2475C96.9963 50.1102 96.5902 51.9052 95.9525 53.698ZM99.7232 48.5831C100.292 41.475 97.3689 34.0761 92.1851 27.6891C87.6077 22.0468 81.2151 17.3499 73.7905 14.0007C67.5521 11.1882 60.6595 9.28136 53.7696 8.42149C46.6351 7.52858 39.4286 7.74247 32.8589 9.34079C25.8883 11.0356 19.9649 14.3392 15.6832 18.7543C10.5292 24.0671 7.69127 30.8371 7.29252 37.7678C6.87657 45.0036 9.28611 52.5488 14.6437 59.0747C15.9417 60.6541 17.4377 62.1404 19.0641 63.5404C16.8459 66.9455 13.0448 69.5927 8.18758 70.6183C7.66108 70.7283 7.44878 71.2895 7.58716 71.6854C7.75272 72.1587 8.19753 72.5461 8.81714 72.6854C12.2281 73.4574 15.7358 73.8907 19.1847 73.9336C22.4009 73.9741 25.5524 73.5503 28.5652 72.9411C30.0079 72.6487 31.3921 72.2085 32.5559 71.533C36.9404 73.3193 41.5214 74.7926 46.179 75.9074C50.882 77.0317 55.8213 77.8308 60.5839 77.6967C65.5266 77.557 70.3559 76.5075 74.7095 75.0457C79.1676 73.5481 83.3189 71.5335 86.8904 69.0625C94.2836 63.9438 99.0803 56.6325 99.7232 48.5831Z" fill="#272525"/>
<path d="M100.941 28.7769C105.948 26.7509 110.957 24.7276 115.964 22.702C116.526 22.4748 115.913 21.9761 115.532 21.8207C114.904 21.5692 114.155 21.5311 113.586 21.7612C108.579 23.7848 103.572 25.8108 98.5648 27.8364C98.0032 28.0635 98.6137 28.5619 98.9966 28.7176C99.623 28.9688 100.373 29.007 100.941 28.7769Z" fill="#272525"/>
<path d="M103.132 35.1998C107.363 35.1507 111.559 34.9133 115.7 34.4925C117.308 34.3282 116.336 32.2263 114.822 32.3806C110.683 32.802 106.485 33.0391 102.254 33.0882C101.544 33.0961 101.279 33.8011 101.495 34.267C101.761 34.8362 102.375 35.2102 103.132 35.1998Z" fill="#272525"/>
<path d="M33.576 34.2725C33.5324 34.9549 33.4925 35.63 33.4562 36.2979C33.4199 36.9658 33.3727 37.6409 33.3146 38.3233L28.6975 38.5629L28.6975 39.9349L32.7048 39.9349L32.487 43.3106L28.6757 43.4195L28.6975 49.8661L23.1875 49.9749L23.536 34.2725L33.576 34.2725Z" fill="#0E0E0E"/>
<path d="M43.6813 44.2036L43.224 49.0385L34.0551 49.7572L34.4036 34.2071L40.066 34.2071L39.2602 44.2036L43.6813 44.2036Z" fill="#0E0E0E"/>
<path d="M57.9246 49.0385L52.5235 49.7354L51.8701 47.2744L49.3873 47.2744L48.8429 49.7354L43.2893 49.1909L47.6233 34.6863L53.6778 34.3814L57.9246 49.0385ZM51.4781 43.9422L50.6505 40.1527L49.8447 43.9422L51.4781 43.9422Z" fill="#0E0E0E"/>
<path d="M71.5363 35.9059L66.7232 41.6337L71.1443 49.1256L66.0916 50.0185L62.7813 45.5321L62.607 49.8007L58.0771 49.9749L58.4255 34.3814L63.5 34.6645L63.1079 39.1509L66.2659 34.5991L71.5363 35.9059Z" fill="#0E0E0E"/>
<path d="M85.0174 35.2307L79.8994 43.5938L80.0518 49.7572L74.4547 49.7572L74.5854 43.6373L70.5998 35.5574L76.1534 34.8605L77.8957 39.5647L79.7905 34.8605L85.0174 35.2307Z" fill="#0E0E0E"/>
<path d="M90.7561 33.7933L89.8632 45.249L85.8341 45.249L85.4203 33.7933L90.7561 33.7933ZM90.0374 48.6029C90.0374 48.9223 89.9757 49.22 89.8523 49.4958C89.7288 49.7717 89.5619 50.0112 89.3513 50.2145C89.1481 50.425 88.9085 50.5884 88.6326 50.7045C88.3568 50.828 88.0628 50.8897 87.7506 50.8897C87.4312 50.8897 87.1335 50.828 86.8577 50.7045C86.5818 50.5884 86.3386 50.425 86.1281 50.2145C85.9248 50.0112 85.7615 49.7717 85.6381 49.4958C85.5219 49.22 85.4638 48.9223 85.4638 48.6029C85.4638 48.2907 85.5219 47.9931 85.6381 47.71C85.7615 47.4268 85.9248 47.1836 86.1281 46.9804C86.3386 46.7698 86.5818 46.6029 86.8577 46.4795C87.1335 46.356 87.4312 46.2943 87.7506 46.2943C88.0628 46.2943 88.3568 46.356 88.6326 46.4795C88.9085 46.6029 89.1481 46.7698 89.3513 46.9804C89.5619 47.1836 89.7288 47.4268 89.8523 47.71C89.9757 47.9931 90.0374 48.2907 90.0374 48.6029Z" fill="#0E0E0E"/>
</svg>
