<svg width="118" height="92" viewBox="0 0 118 92" fill="none" xmlns="http://www.w3.org/2000/svg">
<path d="M39.3144 67.1201C22.3506 66.7981 13.4732 56.1959 12.276 46.9703C10.2711 31.5121 24.513 20.2101 37.2571 14.8665C50.1083 9.47985 64.6444 7.83533 78.4002 9.95661C90.3152 11.7948 107.584 16.9083 110.792 30.3958C112.299 36.7266 109.979 43.5394 106.07 48.5379C95.552 61.989 75.4386 68.1793 59.0037 68.0351C59.1217 73.2227 61.9844 79.1159 66.4534 81.7516C56.1304 81.7568 44.8235 75.8498 39.3144 67.1201Z" fill="#272525"/>
<path d="M36.8329 68.5101C19.8756 69.1109 10.4341 59.0085 8.73675 49.8613C5.8915 34.5361 19.497 22.4727 31.9312 16.4426C44.4701 10.3645 58.8947 7.92916 72.7458 9.29863C84.7431 10.4883 102.264 14.6521 106.203 27.9446C108.052 34.1857 106.108 41.1153 102.477 46.3187C92.7078 60.3248 72.9599 67.6013 56.5423 68.3516C56.9431 73.5252 60.1219 79.2546 64.7275 81.6435C54.42 82.21 42.809 76.9271 36.8329 68.5101Z" fill="white"/>
<path d="M105.754 33.434C105.62 37.7016 104.113 41.9298 101.722 45.4516C97.3586 51.8816 90.9645 56.7047 84.0908 60.1866C77.1367 63.7085 69.4735 65.935 61.7514 66.9155C59.9562 67.1438 58.1522 67.3012 56.3452 67.3858C55.7536 67.4138 55.3561 67.9149 55.4029 68.4775C55.7722 72.9698 57.9937 77.6717 61.5056 80.6697C54.622 80.288 47.6701 77.4539 42.4332 73.0083C40.7432 71.5725 39.1811 69.9508 37.8901 68.145C37.7612 67.8917 37.5264 67.725 37.257 67.634C37.0697 67.5564 36.8663 67.5244 36.6566 67.5447C36.6506 67.5445 36.6428 67.5432 36.6368 67.5429C32.7203 67.6753 28.7991 67.2157 25.1479 65.9862C23.5229 65.4391 22.0784 64.807 20.6591 64.0031C19.9654 63.6096 19.2889 63.1849 18.6353 62.7289C18.3169 62.5071 18.0046 62.2774 17.6961 62.0408C17.5604 61.9355 17.4244 61.8287 17.2896 61.7207C17.1519 61.6107 17.1239 61.5886 16.9352 61.4267C15.8223 60.4756 14.7961 59.4221 13.8802 58.2801C13.0844 57.2901 12.3452 56.1672 11.694 54.9202C10.388 52.4214 9.68673 49.7947 9.53135 46.8489C9.15502 39.7928 12.5966 33.2921 17.2965 28.2528C22.3145 22.8701 28.7501 18.8347 35.4073 15.976C44.4266 12.1043 54.1909 10.0822 63.9994 9.90684C68.1196 9.83122 72.2423 10.1283 76.321 10.7081C77.9603 10.9394 79.5926 11.2207 81.2144 11.5576C82.8591 11.9004 84.4064 12.2838 86.1091 12.7886C89.4198 13.7711 92.5997 15.023 95.5019 16.7441C98.2478 18.3755 100.771 20.4247 102.581 23.0022C104.729 26.0613 105.871 29.683 105.754 33.434ZM106.898 26.4914C104.405 19.7483 98.2605 15.3879 91.8459 12.729C85.235 9.9856 77.9739 8.67834 70.861 8.16446C60.6643 7.42818 50.3191 8.67022 40.6012 11.852C32.7312 14.4276 25.219 18.2672 18.925 23.6893C13.3879 28.4635 8.69958 34.7291 7.49276 42.0906C6.94803 45.4212 7.12677 48.9666 8.15193 52.1895C9.02658 54.9452 10.4548 57.4741 12.2935 59.7021C16.8332 65.1975 23.6424 68.314 30.6231 69.2088C32.4832 69.4461 34.3612 69.5262 36.2357 69.4946C41.3571 76.2764 49.3726 80.6754 57.6777 82.157C60.0676 82.5831 62.5029 82.7349 64.9272 82.6085C65.8104 82.5613 66.2787 81.3368 65.4081 80.8776C61.1694 78.6464 58.4844 73.9375 57.8029 69.2555C65.4922 68.7768 73.1557 67.0226 80.2921 64.1383C87.8236 61.0947 94.9868 56.7072 100.458 50.6367C103.321 47.4599 105.714 43.8304 106.991 39.7235C108.339 35.3911 108.484 30.7804 106.898 26.4914Z" fill="#272525"/>
<path d="M89.2645 9.10112C90.6014 9.30285 91.6875 9.55003 92.9132 9.93476C94.1613 10.3294 95.3793 10.8121 96.5557 11.3837C97.5864 11.8857 98.7637 12.578 99.7875 13.282C100.828 13.9976 101.795 14.7679 102.681 15.6091C103.723 16.5974 104.671 17.6778 105.513 18.8392C106.162 19.7342 108.25 18.9277 107.458 17.8306C104.274 13.4286 99.5202 10.1825 94.3912 8.47762C92.8889 7.97835 91.3393 7.60415 89.7746 7.37055C89.2595 7.29445 88.548 7.51941 88.389 8.07352C88.2281 8.63198 88.7767 9.02908 89.2645 9.10112Z" fill="#272525"/>
<path d="M4.63226 34.2947C5.23316 32.8223 5.92726 31.3976 6.72733 30.0375C7.56072 28.6257 8.41371 27.3821 9.39257 26.1596C10.4468 24.8431 11.3106 23.9013 12.5211 22.7576C12.8119 22.4821 13.1085 22.2115 13.4097 21.9465C13.4698 21.8939 13.5294 21.8401 13.5894 21.7866C13.8867 21.5282 13.4193 21.9302 13.7208 21.6749C13.8748 21.5461 14.0281 21.4183 14.1836 21.2892C14.8042 20.7819 15.4412 20.2936 16.0961 19.8319C16.5236 19.5246 16.7313 19.3846 17.1573 19.1126C17.5277 18.8744 17.9036 18.6412 18.2835 18.4173C19.0396 17.97 19.8326 17.5373 20.6065 17.1616C21.0936 16.9265 21.5729 16.536 21.7879 16.0255C21.947 15.6462 21.7498 15.3268 21.3178 15.5384C14.8916 18.6446 9.39151 23.6036 5.65172 29.6884C4.62255 31.3645 3.72367 33.1221 2.98186 34.9426C2.81527 35.351 3.03344 35.589 3.45088 35.4309C3.92855 35.2499 4.43856 34.7701 4.63226 34.2947Z" fill="#272525"/>
<path d="M7.73927 22.1128C10.3007 19.1998 13.549 16.9276 17.1725 15.5384C17.3716 15.4621 16.5526 15.0939 16.4892 15.0662C16.2166 14.9472 15.9365 14.8395 15.6519 14.7532C15.5181 14.7125 15.2541 14.5921 15.1218 14.6441C11.4579 16.0461 8.17321 18.3145 5.58103 21.2641C5.50051 21.3554 6.52309 21.8011 6.60387 21.832C6.76831 21.896 7.58102 22.2912 7.73927 22.1128Z" fill="#272525"/>
<path d="M28.277 32.5345L27.7002 36.8807C27.5011 36.8258 27.302 36.788 27.1029 36.7674C26.9038 36.7468 26.7047 36.7365 26.5055 36.7365C25.9975 36.7365 25.5134 36.8052 25.0534 36.9425C24.5933 37.073 24.1848 37.2755 23.8278 37.5501C23.4776 37.8248 23.1961 38.1681 22.9832 38.5801C22.7772 38.992 22.6743 39.4761 22.6743 40.0322C22.6743 40.3893 22.7292 40.6983 22.839 40.9592C22.9558 41.2201 23.1171 41.4364 23.3231 41.608C23.5291 41.7797 23.7728 41.9067 24.0543 41.9891C24.3359 42.0715 24.6448 42.1127 24.9813 42.1127C25.2353 42.1127 25.4997 42.0852 25.7743 42.0303C26.0489 41.9754 26.3202 41.9033 26.5879 41.814C26.8557 41.7247 27.1166 41.6218 27.3707 41.505C27.6247 41.3883 27.8582 41.2681 28.071 41.1446L27.6591 45.9852C27.3913 46.1225 27.0995 46.2461 26.7836 46.3559C26.4746 46.4589 26.1554 46.5516 25.8258 46.634C25.4962 46.7095 25.1667 46.7679 24.8371 46.8091C24.5075 46.8503 24.1917 46.8709 23.8896 46.8709C23.0176 46.8709 22.2039 46.7095 21.4487 46.3868C20.6934 46.0641 20.0377 45.6213 19.4815 45.0582C18.9254 44.4952 18.4859 43.8326 18.1632 43.0705C17.8474 42.3015 17.6895 41.4741 17.6895 40.5884C17.6895 39.4143 17.8577 38.3089 18.1941 37.2721C18.5306 36.2284 19.0249 35.3152 19.6772 34.5325C20.3295 33.7498 21.1362 33.1318 22.0975 32.6786C23.0656 32.2255 24.1779 31.9989 25.4344 31.9989C25.9082 31.9989 26.3923 32.0367 26.8866 32.1122C27.3878 32.1877 27.8513 32.3285 28.277 32.5345Z" fill="#0E0E0E"/>
<path d="M37.9582 41.5565L37.5257 46.1294L28.8538 46.8091L29.1833 32.1019L34.5389 32.1019L33.7768 41.5565L37.9582 41.5565Z" fill="#0E0E0E"/>
<path d="M51.4295 46.1294L46.3212 46.7885L45.7032 44.4609L43.355 44.4609L42.84 46.7885L37.5875 46.2735L41.6865 32.555L47.4129 32.2667L51.4295 46.1294ZM45.3324 41.3093L44.5497 37.7252L43.7876 41.3093L45.3324 41.3093Z" fill="#0E0E0E"/>
<path d="M62.2025 41.7419C62.2025 42.6826 62.0377 43.4962 61.7081 44.1828C61.3854 44.8626 60.9391 45.4256 60.3692 45.8719C59.8062 46.3113 59.1436 46.6375 58.3815 46.8503C57.6262 47.0563 56.8126 47.1593 55.9406 47.1593C55.6041 47.1593 55.2334 47.1146 54.8283 47.0254C54.43 46.9361 54.0249 46.8263 53.613 46.6958C53.201 46.5585 52.8028 46.4143 52.4183 46.2632C52.0406 46.1053 51.7042 45.9577 51.4089 45.8204L51.8621 41.7831C52.4457 42.1333 53.0911 42.4011 53.7984 42.5864C54.5124 42.765 55.2128 42.8542 55.8994 42.8542C56.0298 42.8542 56.1878 42.8508 56.3731 42.8439C56.5585 42.8302 56.7336 42.7993 56.8984 42.7512C57.0701 42.6963 57.2142 42.6173 57.331 42.5143C57.4477 42.4114 57.5061 42.2637 57.5061 42.0715C57.5061 41.941 57.4649 41.8312 57.3825 41.7419C57.3001 41.6458 57.1936 41.5703 57.0632 41.5153C56.9327 41.4535 56.7851 41.4089 56.6203 41.3814C56.4555 41.3471 56.2942 41.3231 56.1363 41.3093C55.9783 41.2956 55.8307 41.2887 55.6934 41.2887C55.5561 41.2887 55.4462 41.2887 55.3638 41.2887C54.7733 41.2887 54.2343 41.1961 53.7469 41.0107C53.2662 40.8253 52.8508 40.5644 52.5007 40.2279C52.1574 39.8846 51.8896 39.4727 51.6973 38.992C51.5051 38.5045 51.4089 37.9655 51.4089 37.3751C51.4089 36.5649 51.5703 35.8405 51.893 35.2019C52.2226 34.5565 52.6586 34.0107 53.201 33.5644C53.7503 33.1112 54.3785 32.7645 55.0857 32.5242C55.793 32.2838 56.5242 32.1637 57.2795 32.1637C57.6159 32.1637 57.9626 32.1774 58.3197 32.2049C58.6767 32.2255 59.0303 32.2667 59.3805 32.3285C59.7375 32.3903 60.0843 32.4692 60.4207 32.5653C60.7572 32.6615 61.0764 32.7816 61.3785 32.9258L60.9872 37.1073C60.5203 36.9494 60.0294 36.8189 59.5144 36.7159C59.0063 36.6061 58.5085 36.5511 58.021 36.5511C57.9318 36.5511 57.815 36.5546 57.6708 36.5614C57.5335 36.5614 57.3859 36.5717 57.228 36.5923C57.0769 36.6061 56.9224 36.6301 56.7645 36.6644C56.6066 36.6988 56.4658 36.7468 56.3422 36.8086C56.2187 36.8635 56.1191 36.9391 56.0436 37.0352C55.968 37.1313 55.9337 37.2446 55.9406 37.3751C55.9474 37.5261 56.0024 37.6428 56.1054 37.7252C56.2152 37.8076 56.3525 37.8694 56.5173 37.9106C56.689 37.9449 56.8744 37.9621 57.0735 37.9621C57.2795 37.9621 57.482 37.9587 57.6811 37.9518C57.8803 37.9381 58.0656 37.9278 58.2373 37.9209C58.4089 37.9072 58.5497 37.9038 58.6596 37.9106C59.2089 37.9449 59.7032 38.0617 60.1426 38.2608C60.5821 38.4599 60.9528 38.7243 61.255 39.0538C61.5639 39.3834 61.7974 39.7782 61.9553 40.2382C62.1201 40.6914 62.2025 41.1926 62.2025 41.7419Z" fill="#0E0E0E"/>
<path d="M73.3256 41.7419C73.3256 42.6826 73.1608 43.4962 72.8312 44.1828C72.5085 44.8626 72.0622 45.4256 71.4923 45.8719C70.9293 46.3113 70.2667 46.6375 69.5046 46.8503C68.7493 47.0563 67.9357 47.1593 67.0637 47.1593C66.7272 47.1593 66.3565 47.1146 65.9514 47.0254C65.5531 46.9361 65.148 46.8263 64.7361 46.6958C64.3241 46.5585 63.9259 46.4143 63.5414 46.2632C63.1637 46.1053 62.8273 45.9577 62.5321 45.8204L62.9852 41.7831C63.5688 42.1333 64.2142 42.4011 64.9215 42.5864C65.6355 42.765 66.3359 42.8542 67.0225 42.8542C67.1529 42.8542 67.3109 42.8508 67.4963 42.8439C67.6816 42.8302 67.8567 42.7993 68.0215 42.7512C68.1932 42.6963 68.3374 42.6173 68.4541 42.5143C68.5708 42.4114 68.6292 42.2637 68.6292 42.0715C68.6292 41.941 68.588 41.8312 68.5056 41.7419C68.4232 41.6458 68.3168 41.5703 68.1863 41.5153C68.0558 41.4535 67.9082 41.4089 67.7434 41.3814C67.5786 41.3471 67.4173 41.3231 67.2594 41.3093C67.1014 41.2956 66.9538 41.2887 66.8165 41.2887C66.6792 41.2887 66.5693 41.2887 66.4869 41.2887C65.8964 41.2887 65.3575 41.1961 64.87 41.0107C64.3893 40.8253 63.9739 40.5644 63.6238 40.2279C63.2805 39.8846 63.0127 39.4727 62.8204 38.992C62.6282 38.5045 62.5321 37.9655 62.5321 37.3751C62.5321 36.5649 62.6934 35.8405 63.0161 35.2019C63.3457 34.5565 63.7817 34.0107 64.3241 33.5644C64.8734 33.1112 65.5016 32.7645 66.2089 32.5242C66.9161 32.2838 67.6473 32.1637 68.4026 32.1637C68.739 32.1637 69.0858 32.1774 69.4428 32.2049C69.7998 32.2255 70.1534 32.2667 70.5036 32.3285C70.8606 32.3903 71.2074 32.4692 71.5438 32.5653C71.8803 32.6615 72.1995 32.7816 72.5016 32.9258L72.1103 37.1073C71.6434 36.9494 71.1525 36.8189 70.6375 36.7159C70.1294 36.6061 69.6316 36.5511 69.1441 36.5511C69.0549 36.5511 68.9381 36.5546 68.7939 36.5614C68.6566 36.5614 68.509 36.5717 68.3511 36.5923C68.2 36.6061 68.0455 36.6301 67.8876 36.6644C67.7297 36.6988 67.5889 36.7468 67.4654 36.8086C67.3418 36.8635 67.2422 36.9391 67.1667 37.0352C67.0912 37.1313 67.0568 37.2446 67.0637 37.3751C67.0706 37.5261 67.1255 37.6428 67.2285 37.7252C67.3383 37.8076 67.4757 37.8694 67.6404 37.9106C67.8121 37.9449 67.9975 37.9621 68.1966 37.9621C68.4026 37.9621 68.6051 37.9587 68.8042 37.9518C69.0034 37.9381 69.1887 37.9278 69.3604 37.9209C69.5321 37.9072 69.6728 37.9038 69.7827 37.9106C70.332 37.9449 70.8263 38.0617 71.2657 38.2608C71.7052 38.4599 72.076 38.7243 72.3781 39.0538C72.687 39.3834 72.9205 39.7782 73.0784 40.2382C73.2432 40.6914 73.3256 41.1926 73.3256 41.7419Z" fill="#0E0E0E"/>
<path d="M79.3712 32.5139L78.6503 46.5413L74.304 46.7679L73.892 32.8022L79.3712 32.5139Z" fill="#0E0E0E"/>
<path d="M90.0411 32.9464L89.6704 37.2927C89.4713 37.2377 89.2756 37.2 89.0833 37.1794C88.8911 37.1588 88.6954 37.1485 88.4963 37.1485C88.0088 37.1485 87.5419 37.2103 87.0956 37.3339C86.6561 37.4575 86.2648 37.6463 85.9215 37.9003C85.585 38.1544 85.3138 38.4771 85.1078 38.8684C84.9087 39.2529 84.8092 39.7095 84.8092 40.2382C84.8092 40.6227 84.8641 40.9592 84.9739 41.2476C85.0907 41.5291 85.252 41.7659 85.458 41.9582C85.6709 42.1436 85.9249 42.2843 86.2201 42.3805C86.5223 42.4766 86.8553 42.5246 87.2192 42.5246C87.4732 42.5246 87.7341 42.5006 88.0019 42.4526C88.2697 42.3976 88.5375 42.3255 88.8052 42.2363C89.073 42.147 89.3305 42.044 89.5777 41.9273C89.8249 41.8106 90.0549 41.687 90.2677 41.5565L90.1029 46.3971C89.8352 46.5345 89.5468 46.658 89.2378 46.7679C88.9288 46.8709 88.6096 46.9602 88.28 47.0357C87.9573 47.1181 87.6311 47.1799 87.3016 47.2211C86.9789 47.2623 86.6699 47.2829 86.3746 47.2829C85.3996 47.2829 84.5105 47.1009 83.7072 46.737C82.9107 46.3731 82.2241 45.8787 81.6473 45.2539C81.0774 44.6222 80.6346 43.891 80.3187 43.0602C80.0029 42.2294 79.845 41.3437 79.845 40.403C79.845 39.277 80.0029 38.2265 80.3187 37.2515C80.6414 36.2765 81.1118 35.432 81.7297 34.7179C82.3545 33.9969 83.1235 33.4339 84.0367 33.0288C84.9568 32.6168 86.0107 32.4109 87.1986 32.4109C87.6723 32.4109 88.153 32.4486 88.6405 32.5242C89.128 32.5997 89.5948 32.7404 90.0411 32.9464Z" fill="#0E0E0E"/>
<path d="M96.0765 31.7105L95.2319 42.5452L91.4212 42.5452L91.0299 31.7105L96.0765 31.7105ZM95.3967 45.7174C95.3967 46.0195 95.3383 46.301 95.2216 46.5619C95.1049 46.8228 94.947 47.0494 94.7479 47.2417C94.5556 47.4408 94.329 47.5953 94.0681 47.7051C93.8072 47.8219 93.5291 47.8802 93.2339 47.8802C92.9318 47.8802 92.6503 47.8219 92.3894 47.7051C92.1284 47.5953 91.8984 47.4408 91.6993 47.2417C91.5071 47.0494 91.3526 46.8228 91.2358 46.5619C91.126 46.301 91.0711 46.0195 91.0711 45.7174C91.0711 45.4221 91.126 45.1406 91.2358 44.8729C91.3526 44.6051 91.5071 44.3751 91.6993 44.1828C91.8984 43.9837 92.1284 43.8258 92.3894 43.7091C92.6503 43.5923 92.9318 43.534 93.2339 43.534C93.5291 43.534 93.8072 43.5923 94.0681 43.7091C94.329 43.8258 94.5556 43.9837 94.7479 44.1828C94.947 44.3751 95.1049 44.6051 95.2216 44.8729C95.3383 45.1406 95.3967 45.4221 95.3967 45.7174Z" fill="#0E0E0E"/>
</svg>
