<svg width="155" height="155" viewBox="0 0 155 155" fill="none" xmlns="http://www.w3.org/2000/svg">
<g clip-path="url(#clip0_2079_6203)">
<path d="M14.4034 36.7526C13.5307 37.9265 12.0711 38.664 11.4578 39.9606C10.8987 40.8068 11.3086 41.9528 12.2776 42.2525C13.1782 42.3612 13.9965 41.6376 14.6922 41.1733C15.1968 40.7774 15.2512 40.3271 15.0462 39.7541C15.4826 39.1672 15.9189 38.5802 16.0959 37.8706C16.5866 36.8334 15.0851 35.647 14.4034 36.7526ZM10.7945 50.7539C9.97105 52.1591 9.27319 53.6342 8.70905 55.1621C8.16399 56.6497 7.56459 58.5875 8.04281 59.9245C8.31609 60.6884 9.40768 60.7288 9.58471 60.0192C10.1981 58.7227 9.84253 57.1264 10.1966 55.7072C10.4823 54.097 11.0957 52.8004 11.8317 51.2446C12.0088 50.5349 11.0399 50.2352 10.7945 50.7539ZM12.3593 69.5828C11.4308 68.1915 10.6249 66.5409 10.0101 64.822C9.80512 64.249 8.85016 64.5906 9.05512 65.1635C9.87494 67.4555 10.3686 72.4492 13.2071 73.1573C13.7257 73.4026 14.0937 72.6247 13.9571 72.2427C13.6155 71.2878 12.8919 70.4694 12.3593 69.5828ZM25.651 73.0147C22.7317 74.4898 20.2628 76.0192 16.8514 75.516C16.4011 75.4617 16.3467 75.912 16.797 75.9663C20.4134 77.0425 24.0019 76.836 26.6339 73.9557C27.2612 73.3004 26.1556 72.6187 25.651 73.0147ZM35.8499 58.1642C34.5269 59.2837 33.7909 60.8396 32.7955 62.2728C31.6775 63.9653 30.7504 65.5894 29.8917 67.4046C29.6464 67.9232 30.4926 68.4822 30.929 67.8953C31.665 66.3394 32.7287 65.0972 33.724 63.6641C34.7194 62.2309 36.165 60.852 36.9011 59.2962C37.2691 58.5182 36.4772 57.5089 35.8499 58.1642ZM43.7274 39.8354C40.7678 42.4021 38.6824 46.8104 37.1559 50.3724C36.9789 51.082 37.7568 51.45 38.1932 50.8631C39.2429 48.9796 40.4836 47.0278 41.7926 45.267C42.7879 43.8338 44.0426 42.5233 44.7787 40.9674C45.0784 39.9985 44.2321 39.4395 43.7274 39.8354ZM58.198 26.6884C54.6918 27.7271 51.7322 30.2938 49.0862 32.5328C48.5815 32.9288 49.0458 33.6244 49.6188 33.4195C52.5241 31.3031 55.6343 29.7597 58.8128 28.4073C59.6995 27.8747 59.1529 26.3468 58.198 26.6884ZM73.249 28.4138C71.8841 27.6095 70.1372 26.9417 68.6497 26.3967C67.4215 25.9743 66.6854 27.5302 67.791 28.2119C69.0878 28.8251 70.4524 29.6296 71.8173 30.4339C73.1825 31.2382 74.752 32.6156 76.4305 33.0924C77.1401 33.2694 77.6991 32.4232 77.2349 31.7275C76.6883 30.1996 74.8048 29.1499 73.249 28.4138ZM80.567 37.4294C80.2937 36.6654 78.9571 37.1435 79.2304 37.9075C79.7226 39.8857 79.9554 41.7413 80.2563 43.788C80.4892 45.6435 80.1491 47.704 80.8323 49.614C81.1739 50.5689 82.6475 50.4727 82.6882 49.381C83.2457 45.5192 81.9877 40.7989 80.567 37.4294ZM79.2545 59.6573L77.824 64.693C77.5385 66.3031 76.6798 68.1182 77.035 69.7146C77.3083 70.4786 78.1406 70.3963 78.6453 70.0004C79.7773 68.9492 79.7354 67.0253 79.8984 65.6744C80.3068 63.8048 80.456 61.8126 80.8644 59.9431C80.9051 58.8514 79.5542 58.6883 79.2545 59.6573ZM74.6921 77.0156C73.5197 79.1584 72.7293 81.1646 72.1982 83.2934C71.6671 85.4222 71.0273 88.4517 72.1608 90.416C72.6934 91.3026 73.7167 91.152 74.0164 90.1831C74.4931 88.5045 74.0009 86.5263 74.0273 84.7934C73.9715 82.2282 74.5569 79.6491 75.4017 77.1926C75.7154 76.865 74.9374 76.497 74.6921 77.0156ZM70.5007 99.627C69.3283 101.77 68.6062 103.967 68.2118 106.478C67.8173 108.989 67.437 112.141 68.6388 114.296C69.103 114.992 70.249 114.582 70.235 113.941C70.766 111.812 69.9462 109.52 70.027 107.336C70.0395 104.963 70.6249 102.383 71.4696 99.9267C71.715 99.4081 70.8687 98.849 70.5007 99.627ZM80.7623 128.917C79.1522 128.631 77.8013 128.468 76.4364 127.664C74.9349 126.478 73.7331 124.322 73.1182 122.603C72.9132 122.03 71.9582 122.372 72.1633 122.945C73.0793 126.71 76.0977 132.74 80.9953 130.773C81.6909 130.308 81.663 129.026 80.7623 128.917ZM103.399 128.36C101.23 128.92 99.2651 130.054 97.1645 130.805C94.4221 131.571 91.6658 131.695 89.0183 130.918C88.5681 130.864 88.5821 131.506 88.8413 131.628C93.9452 133.249 100.441 133.942 104.655 130.065C105.405 129.15 104.354 128.019 103.399 128.36ZM114.987 109.566C113.924 110.808 113.188 112.364 112.001 113.865C110.938 115.107 109.546 116.036 108.087 116.773C107.2 117.306 107.678 118.643 108.633 118.301C112.139 117.263 116.122 114.545 116.871 110.615C117.294 109.387 115.806 108.842 114.987 109.566ZM118.719 95.3047C117.124 98.6757 115.407 102.306 114.781 105.977C114.55 107.137 116.091 107.231 116.391 106.263C117.536 102.837 120.29 99.6975 120.657 95.904C120.506 94.8811 119.21 94.2678 118.719 95.3047ZM133.112 90.372C132.129 89.431 130.328 89.2136 128.977 89.0505C127.435 88.9558 125.839 89.3116 124.311 89.8582C123.356 90.1998 123.834 91.5364 124.789 91.1948C126.126 90.7166 127.409 90.689 128.76 90.8521C129.92 91.0833 131.026 91.765 132.185 91.9962C133.154 92.2956 133.767 90.9995 133.112 90.372Z" fill="#0044CC"/>
<path d="M147.234 93.7215C142.989 90.2852 139.494 85.9342 135.562 82.1702C133.665 80.4792 131.292 83.4823 132.999 85.2416C136.084 88.4462 139.047 91.9109 142.637 94.7199C140.986 95.5257 139.335 96.3316 137.494 97.2058C136.798 97.67 135.461 98.1483 135.162 99.1175L135.039 99.3764C135.039 99.3764 134.848 99.4447 134.916 99.6357C134.671 100.154 135.326 100.782 135.708 100.645C135.968 100.768 136.159 100.699 136.541 100.563C137.564 100.412 138.451 99.8795 139.597 99.4696C142.011 98.3905 144.235 97.3794 146.786 96.6826C148 96.4637 148.217 94.6625 147.234 93.7215Z" fill="#0044CC"/>
</g>
<defs>
<clipPath id="clip0_2079_6203">
<rect width="121" height="121" fill="white" transform="translate(0 40.7531) rotate(-19.6822)"/>
</clipPath>
</defs>
</svg>
